<svg xmlns="http://www.w3.org/2000/svg" xmlns:xlink="http://www.w3.org/1999/xlink" width="1024" zoomAndPan="magnify" viewBox="0 0 768 767.999994" height="1024" preserveAspectRatio="xMidYMid meet" version="1.0"><defs><g/><clipPath id="80d70175e1"><path d="M 134.957031 127 L 632.957031 127 L 632.957031 641 L 134.957031 641 Z M 134.957031 127 " clip-rule="nonzero"/></clipPath></defs><g clip-path="url(#80d70175e1)"><path fill="#3d3b3a" d="M 321.382812 134.789062 C 325.417969 133.773438 329.472656 132.863281 333.554688 132.046875 C 337.632812 131.230469 341.730469 130.515625 345.84375 129.902344 C 349.957031 129.285156 354.082031 128.769531 358.222656 128.355469 C 362.359375 127.9375 366.507812 127.625 370.660156 127.410156 C 374.816406 127.195312 378.972656 127.082031 383.132812 127.070312 C 387.292969 127.058594 391.449219 127.148438 395.605469 127.339844 C 399.761719 127.527344 403.910156 127.820312 408.050781 128.210938 C 412.191406 128.601562 416.320312 129.09375 420.4375 129.6875 C 424.554688 130.28125 428.65625 130.972656 432.738281 131.761719 C 436.824219 132.554688 440.882812 133.445312 444.925781 134.433594 C 448.964844 135.421875 452.980469 136.507812 456.96875 137.691406 C 460.953125 138.875 464.910156 140.15625 468.835938 141.535156 C 472.761719 142.910156 476.652344 144.378906 480.507812 145.945312 C 484.359375 147.511719 488.171875 149.167969 491.945312 150.917969 C 495.71875 152.667969 499.449219 154.511719 503.132812 156.441406 C 506.816406 158.375 510.453125 160.394531 514.039062 162.503906 C 517.625 164.609375 521.15625 166.804688 524.636719 169.085938 C 528.113281 171.363281 531.535156 173.726562 534.902344 176.175781 C 538.265625 178.621094 541.566406 181.148438 544.808594 183.753906 C 548.050781 186.359375 551.226562 189.042969 554.339844 191.804688 C 557.449219 194.566406 560.492188 197.402344 563.464844 200.308594 C 566.4375 203.21875 569.339844 206.199219 572.167969 209.25 C 574.996094 212.296875 577.75 215.414062 580.429688 218.597656 C 583.105469 221.78125 585.703125 225.027344 588.222656 228.339844 C 590.742188 231.648438 593.179688 235.019531 595.535156 238.445312 C 597.890625 241.875 600.164062 245.359375 602.347656 248.898438 C 604.535156 252.433594 606.636719 256.023438 608.648438 259.664062 C 610.660156 263.304688 612.582031 266.992188 614.414062 270.726562 C 616.246094 274.460938 617.988281 278.238281 619.636719 282.058594 C 621.289062 285.875 622.84375 289.730469 624.304688 293.625 C 625.765625 297.519531 627.132812 301.449219 628.40625 305.410156 C 629.675781 309.371094 630.851562 313.359375 631.929688 317.375 C 632.328125 318.859375 632.71875 320.371094 633.09375 321.914062 L 629.171875 323.28125 C 628.769531 321.667969 628.359375 320.054688 627.925781 318.445312 C 626.859375 314.460938 625.695312 310.507812 624.433594 306.582031 C 623.175781 302.65625 621.820312 298.765625 620.367188 294.90625 C 618.917969 291.046875 617.371094 287.226562 615.734375 283.441406 C 614.097656 279.660156 612.367188 275.917969 610.542969 272.21875 C 608.722656 268.519531 606.8125 264.867188 604.8125 261.261719 C 602.8125 257.65625 600.726562 254.105469 598.550781 250.601562 C 596.378906 247.097656 594.117188 243.648438 591.777344 240.257812 C 589.433594 236.867188 587.007812 233.53125 584.503906 230.257812 C 581.996094 226.984375 579.410156 223.773438 576.75 220.628906 C 574.085938 217.480469 571.347656 214.402344 568.53125 211.386719 C 565.71875 208.375 562.832031 205.433594 559.875 202.5625 C 556.914062 199.6875 553.890625 196.890625 550.792969 194.167969 C 547.699219 191.445312 544.539062 188.796875 541.3125 186.230469 C 538.089844 183.660156 534.804688 181.171875 531.457031 178.765625 C 528.109375 176.355469 524.707031 174.03125 521.246094 171.792969 C 517.785156 169.550781 514.273438 167.394531 510.707031 165.324219 C 507.140625 163.257812 503.527344 161.277344 499.863281 159.382812 C 496.199219 157.492188 492.492188 155.691406 488.742188 153.980469 C 484.992188 152.269531 481.199219 150.648438 477.371094 149.125 C 473.539062 147.601562 469.675781 146.167969 465.773438 144.832031 C 461.875 143.496094 457.941406 142.257812 453.980469 141.113281 C 450.019531 139.972656 446.035156 138.925781 442.023438 137.976562 C 438.007812 137.03125 433.976562 136.179688 429.921875 135.429688 C 425.867188 134.679688 421.800781 134.027344 417.714844 133.476562 C 413.628906 132.925781 409.53125 132.472656 405.421875 132.125 C 401.316406 131.773438 397.199219 131.523438 393.082031 131.371094 C 388.960938 131.222656 384.839844 131.175781 380.71875 131.226562 C 376.59375 131.28125 372.476562 131.433594 368.359375 131.6875 C 364.246094 131.941406 360.140625 132.296875 356.042969 132.75 C 351.945312 133.207031 347.859375 133.761719 343.789062 134.417969 C 339.71875 135.070312 335.667969 135.824219 331.632812 136.679688 C 327.601562 137.53125 323.589844 138.484375 319.605469 139.535156 C 320.226562 137.96875 320.828125 136.398438 321.382812 134.796875 Z M 138.882812 445.253906 C 139.214844 446.578125 139.550781 447.890625 139.90625 449.210938 C 140.976562 453.207031 142.140625 457.167969 143.40625 461.105469 C 144.671875 465.039062 146.03125 468.941406 147.488281 472.808594 C 148.941406 476.675781 150.492188 480.507812 152.136719 484.300781 C 153.78125 488.089844 155.515625 491.839844 157.34375 495.546875 C 159.171875 499.253906 161.089844 502.914062 163.097656 506.527344 C 165.105469 510.140625 167.199219 513.703125 169.382812 517.210938 C 171.5625 520.722656 173.832031 524.175781 176.183594 527.574219 C 178.535156 530.972656 180.96875 534.3125 183.484375 537.59375 C 186 540.871094 188.59375 544.085938 191.269531 547.238281 C 193.941406 550.390625 196.691406 553.476562 199.515625 556.492188 C 202.339844 559.511719 205.238281 562.457031 208.207031 565.332031 C 211.179688 568.207031 214.214844 571.007812 217.324219 573.730469 C 220.429688 576.457031 223.601562 579.105469 226.839844 581.675781 C 230.078125 584.246094 233.375 586.734375 236.734375 589.144531 C 240.09375 591.550781 243.507812 593.875 246.980469 596.117188 C 250.457031 598.355469 253.980469 600.511719 257.558594 602.578125 C 261.140625 604.644531 264.765625 606.625 268.441406 608.511719 C 272.117188 610.402344 275.839844 612.199219 279.601562 613.90625 C 283.367188 615.613281 287.171875 617.226562 291.015625 618.746094 C 294.859375 620.269531 298.738281 621.691406 302.648438 623.023438 C 306.5625 624.351562 310.507812 625.585938 314.480469 626.722656 C 318.457031 627.855469 322.453125 628.894531 326.480469 629.835938 C 330.503906 630.773438 334.550781 631.617188 338.617188 632.355469 C 342.683594 633.097656 346.765625 633.738281 350.863281 634.28125 C 354.960938 634.820312 359.066406 635.261719 363.1875 635.601562 C 367.304688 635.941406 371.429688 636.179688 375.5625 636.316406 C 379.691406 636.453125 383.824219 636.488281 387.957031 636.421875 C 392.089844 636.355469 396.21875 636.1875 400.34375 635.917969 C 404.46875 635.652344 408.582031 635.28125 412.6875 634.8125 C 416.796875 634.339844 420.886719 633.769531 424.964844 633.097656 C 429.042969 632.425781 433.105469 631.65625 437.144531 630.785156 C 441.183594 629.914062 445.203125 628.945312 449.195312 627.878906 C 448.550781 629.445312 447.925781 631.023438 447.347656 632.625 C 443.308594 633.652344 439.246094 634.582031 435.160156 635.414062 C 431.074219 636.246094 426.972656 636.976562 422.851562 637.609375 C 418.730469 638.242188 414.59375 638.769531 410.449219 639.199219 C 406.300781 639.632812 402.144531 639.960938 397.980469 640.1875 C 393.820312 640.414062 389.652344 640.542969 385.484375 640.566406 C 381.316406 640.589844 377.148438 640.515625 372.980469 640.335938 C 368.816406 640.15625 364.65625 639.878906 360.507812 639.496094 C 356.355469 639.117188 352.214844 638.636719 348.085938 638.054688 C 343.957031 637.472656 339.847656 636.789062 335.75 636.003906 C 331.65625 635.222656 327.582031 634.339844 323.53125 633.359375 C 319.476562 632.378906 315.453125 631.300781 311.453125 630.125 C 307.453125 628.945312 303.484375 627.671875 299.546875 626.300781 C 295.609375 624.933594 291.707031 623.464844 287.839844 621.90625 C 283.972656 620.34375 280.148438 618.691406 276.363281 616.945312 C 272.578125 615.199219 268.835938 613.359375 265.140625 611.433594 C 261.441406 609.503906 257.796875 607.484375 254.199219 605.378906 C 250.601562 603.273438 247.054688 601.078125 243.566406 598.800781 C 240.074219 596.519531 236.640625 594.160156 233.261719 591.710938 C 229.886719 589.265625 226.574219 586.738281 223.320312 584.128906 C 220.066406 581.523438 216.878906 578.835938 213.757812 576.074219 C 210.636719 573.3125 207.582031 570.472656 204.597656 567.5625 C 201.613281 564.652344 198.703125 561.667969 195.863281 558.613281 C 193.023438 555.5625 190.261719 552.441406 187.574219 549.253906 C 184.886719 546.0625 182.28125 542.8125 179.753906 539.496094 C 177.222656 536.183594 174.777344 532.808594 172.414062 529.375 C 170.050781 525.9375 167.769531 522.449219 165.578125 518.90625 C 163.382812 515.359375 161.277344 511.761719 159.257812 508.113281 C 157.238281 504.46875 155.308594 500.773438 153.46875 497.03125 C 151.628906 493.289062 149.882812 489.503906 148.230469 485.679688 C 146.574219 481.851562 145.011719 477.984375 143.546875 474.082031 C 142.082031 470.179688 140.710938 466.246094 139.433594 462.273438 C 138.160156 458.304688 136.984375 454.308594 135.902344 450.28125 C 135.582031 449.066406 135.269531 447.84375 134.957031 446.632812 Z M 138.882812 445.253906 " fill-opacity="1" fill-rule="evenodd"/></g><g fill="#000000" fill-opacity="1"><g transform="translate(95.364554, 395.12005)"><g><path d="M 25.40625 -34.5625 L 25.40625 -28 L 17 -28 L 17 0 L 10.1875 0 L 10.1875 -28 L 2.109375 -28 L 2.109375 -34.5625 Z M 25.40625 -34.5625 "/></g></g></g><g fill="#000000" fill-opacity="1"><g transform="translate(160.469896, 395.12005)"><g><path d="M 28.046875 -34.5625 L 28.046875 -28 L 11.265625 -28 L 11.265625 -20.625 L 26.109375 -20.625 L 26.109375 -14.046875 L 11.265625 -14.046875 L 11.265625 -6.578125 L 28.703125 -6.578125 L 28.703125 0 L 4.46875 0 L 4.46875 -34.5625 Z M 28.046875 -34.5625 "/></g></g></g><g fill="#000000" fill-opacity="1"><g transform="translate(229.332372, 395.12005)"><g><path d="M 11.171875 -20.53125 L 12.21875 -21.84375 L 23.484375 -34.5625 L 32.3125 -34.5625 L 18.03125 -19.0625 L 32.359375 0 L 23.71875 0 L 13.0625 -14.75 L 11.359375 -13.0625 L 11.359375 0 L 4.46875 0 L 4.46875 -34.5625 L 11.359375 -34.5625 L 11.359375 -22.265625 Z M 11.171875 -20.53125 "/></g></g></g><g fill="#000000" fill-opacity="1"><g transform="translate(299.979482, 395.12005)"><g><path d="M 35.609375 -34.5625 L 35.609375 1.40625 L 35.421875 1.40625 L 11.21875 -20.4375 L 11.359375 0 L 4.46875 0 L 4.46875 -35.9375 L 4.75 -35.9375 L 28.890625 -13.765625 L 28.75 -34.5625 Z M 35.609375 -34.5625 "/></g></g></g><g fill="#000000" fill-opacity="1"><g transform="translate(377.62427, 395.12005)"><g><path d="M 2.34375 -17.234375 C 2.34375 -20.367188 3.132812 -23.296875 4.71875 -26.015625 C 6.300781 -28.742188 8.445312 -30.910156 11.15625 -32.515625 C 13.863281 -34.128906 16.800781 -34.9375 19.96875 -34.9375 C 23.125 -34.9375 26.054688 -34.128906 28.765625 -32.515625 C 31.472656 -30.910156 33.632812 -28.742188 35.25 -26.015625 C 36.863281 -23.296875 37.671875 -20.367188 37.671875 -17.234375 C 37.671875 -14.046875 36.863281 -11.101562 35.25 -8.40625 C 33.632812 -5.71875 31.472656 -3.582031 28.765625 -2 C 26.054688 -0.414062 23.125 0.375 19.96875 0.375 C 16.769531 0.375 13.820312 -0.414062 11.125 -2 C 8.4375 -3.582031 6.300781 -5.71875 4.71875 -8.40625 C 3.132812 -11.101562 2.34375 -14.046875 2.34375 -17.234375 Z M 9.390625 -17.234375 C 9.390625 -15.234375 9.867188 -13.382812 10.828125 -11.6875 C 11.785156 -10 13.082031 -8.660156 14.71875 -7.671875 C 16.363281 -6.691406 18.191406 -6.203125 20.203125 -6.203125 C 22.140625 -6.203125 23.90625 -6.691406 25.5 -7.671875 C 27.101562 -8.660156 28.359375 -9.992188 29.265625 -11.671875 C 30.171875 -13.347656 30.625 -15.203125 30.625 -17.234375 C 30.625 -19.304688 30.15625 -21.1875 29.21875 -22.875 C 28.28125 -24.5625 27.003906 -25.898438 25.390625 -26.890625 C 23.773438 -27.878906 21.984375 -28.375 20.015625 -28.375 C 18.035156 -28.375 16.238281 -27.878906 14.625 -26.890625 C 13.019531 -25.898438 11.742188 -24.5625 10.796875 -22.875 C 9.859375 -21.1875 9.390625 -19.304688 9.390625 -17.234375 Z M 9.390625 -17.234375 "/></g></g></g><g fill="#000000" fill-opacity="1"><g transform="translate(455.222101, 395.12005)"><g><path d="M 11.265625 -34.5625 L 11.265625 -6.578125 L 27.53125 -6.578125 L 27.53125 0 L 4.46875 0 L 4.46875 -34.5625 Z M 11.265625 -34.5625 "/></g></g></g><g fill="#000000" fill-opacity="1"><g transform="translate(522.910483, 395.12005)"><g><path d="M 2.34375 -17.234375 C 2.34375 -20.367188 3.132812 -23.296875 4.71875 -26.015625 C 6.300781 -28.742188 8.445312 -30.910156 11.15625 -32.515625 C 13.863281 -34.128906 16.800781 -34.9375 19.96875 -34.9375 C 23.125 -34.9375 26.054688 -34.128906 28.765625 -32.515625 C 31.472656 -30.910156 33.632812 -28.742188 35.25 -26.015625 C 36.863281 -23.296875 37.671875 -20.367188 37.671875 -17.234375 C 37.671875 -14.046875 36.863281 -11.101562 35.25 -8.40625 C 33.632812 -5.71875 31.472656 -3.582031 28.765625 -2 C 26.054688 -0.414062 23.125 0.375 19.96875 0.375 C 16.769531 0.375 13.820312 -0.414062 11.125 -2 C 8.4375 -3.582031 6.300781 -5.71875 4.71875 -8.40625 C 3.132812 -11.101562 2.34375 -14.046875 2.34375 -17.234375 Z M 9.390625 -17.234375 C 9.390625 -15.234375 9.867188 -13.382812 10.828125 -11.6875 C 11.785156 -10 13.082031 -8.660156 14.71875 -7.671875 C 16.363281 -6.691406 18.191406 -6.203125 20.203125 -6.203125 C 22.140625 -6.203125 23.90625 -6.691406 25.5 -7.671875 C 27.101562 -8.660156 28.359375 -9.992188 29.265625 -11.671875 C 30.171875 -13.347656 30.625 -15.203125 30.625 -17.234375 C 30.625 -19.304688 30.15625 -21.1875 29.21875 -22.875 C 28.28125 -24.5625 27.003906 -25.898438 25.390625 -26.890625 C 23.773438 -27.878906 21.984375 -28.375 20.015625 -28.375 C 18.035156 -28.375 16.238281 -27.878906 14.625 -26.890625 C 13.019531 -25.898438 11.742188 -24.5625 10.796875 -22.875 C 9.859375 -21.1875 9.390625 -19.304688 9.390625 -17.234375 Z M 9.390625 -17.234375 "/></g></g></g><g fill="#000000" fill-opacity="1"><g transform="translate(600.508288, 395.12005)"><g><path d="M 14.328125 -7.28125 C 14.328125 -4.332031 13.738281 -1.789062 12.5625 0.34375 C 11.382812 2.488281 9.734375 4.140625 7.609375 5.296875 C 5.484375 6.460938 3.023438 7.09375 0.234375 7.1875 L 0.234375 0.5625 C 5.054688 0.3125 7.46875 -2.347656 7.46875 -7.421875 L 7.46875 -34.5625 L 14.328125 -34.5625 Z M 14.328125 -7.28125 "/></g></g></g><g fill="#000000" fill-opacity="1"><g transform="translate(656.878288, 395.12005)"><g><path d="M 11.265625 -34.5625 L 11.265625 0 L 4.46875 0 L 4.46875 -34.5625 Z M 4.328125 -39.96875 C 4.328125 -40.90625 4.691406 -41.691406 5.421875 -42.328125 C 6.160156 -42.972656 7 -43.296875 7.9375 -43.296875 C 8.84375 -43.296875 9.65625 -42.972656 10.375 -42.328125 C 11.101562 -41.691406 11.46875 -40.90625 11.46875 -39.96875 C 11.46875 -39.03125 11.101562 -38.242188 10.375 -37.609375 C 9.65625 -36.984375 8.84375 -36.671875 7.9375 -36.671875 C 7 -36.671875 6.160156 -36.984375 5.421875 -37.609375 C 4.691406 -38.242188 4.328125 -39.03125 4.328125 -39.96875 Z M 4.328125 -39.96875 "/></g></g></g><g fill="#000000" fill-opacity="1"><g transform="translate(276.043824, 471.890029)"><g><path d="M 10.453125 1.015625 C 11.359375 1.015625 12.085938 1.203125 12.640625 1.578125 C 13.191406 1.960938 13.46875 2.507812 13.46875 3.21875 C 13.46875 4.050781 13.117188 4.6875 12.421875 5.125 C 11.734375 5.5625 10.882812 5.78125 9.875 5.78125 C 8.71875 5.78125 7.800781 5.441406 7.125 4.765625 L 7.984375 3.640625 C 8.171875 3.835938 8.398438 3.992188 8.671875 4.109375 C 8.941406 4.234375 9.242188 4.296875 9.578125 4.296875 C 9.992188 4.296875 10.359375 4.203125 10.671875 4.015625 C 10.984375 3.835938 11.140625 3.59375 11.140625 3.28125 C 11.140625 3 11.023438 2.757812 10.796875 2.5625 C 10.566406 2.363281 10.1875 2.265625 9.65625 2.265625 C 9.289062 2.265625 8.769531 2.363281 8.09375 2.5625 L 7.640625 1.234375 L 8.984375 0.078125 C 7.429688 -0.148438 6.078125 -0.6875 4.921875 -1.53125 C 3.773438 -2.375 2.894531 -3.4375 2.28125 -4.71875 C 1.664062 -6.007812 1.359375 -7.398438 1.359375 -8.890625 C 1.359375 -10.691406 1.734375 -12.300781 2.484375 -13.71875 C 3.242188 -15.144531 4.296875 -16.257812 5.640625 -17.0625 C 6.992188 -17.863281 8.53125 -18.265625 10.25 -18.265625 C 11.300781 -18.265625 12.28125 -18.125 13.1875 -17.84375 C 14.09375 -17.5625 14.890625 -17.203125 15.578125 -16.765625 L 14.4375 -14.0625 C 13.101562 -15.007812 11.738281 -15.484375 10.34375 -15.484375 C 9.289062 -15.484375 8.300781 -15.195312 7.375 -14.625 C 6.457031 -14.050781 5.722656 -13.269531 5.171875 -12.28125 C 4.628906 -11.300781 4.359375 -10.226562 4.359375 -9.0625 C 4.359375 -7.820312 4.609375 -6.707031 5.109375 -5.71875 C 5.617188 -4.738281 6.34375 -3.96875 7.28125 -3.40625 C 8.21875 -2.851562 9.296875 -2.578125 10.515625 -2.578125 C 11.390625 -2.578125 12.175781 -2.707031 12.875 -2.96875 C 13.582031 -3.238281 14.179688 -3.582031 14.671875 -4 L 15.875 -1.421875 C 15.414062 -1.066406 14.765625 -0.722656 13.921875 -0.390625 C 13.085938 -0.0664062 12.171875 0.117188 11.171875 0.171875 Z M 10.453125 1.015625 "/></g></g></g><g fill="#000000" fill-opacity="1"><g transform="translate(303.213315, 471.890029)"><g><path d="M 1.359375 -9 C 1.359375 -10.65625 1.769531 -12.191406 2.59375 -13.609375 C 3.425781 -15.023438 4.550781 -16.15625 5.96875 -17 C 7.382812 -17.84375 8.925781 -18.265625 10.59375 -18.265625 C 12.25 -18.265625 13.78125 -17.84375 15.1875 -17 C 16.601562 -16.15625 17.734375 -15.019531 18.578125 -13.59375 C 19.421875 -12.175781 19.84375 -10.644531 19.84375 -9 C 19.84375 -7.332031 19.425781 -5.796875 18.59375 -4.390625 C 17.757812 -2.984375 16.628906 -1.863281 15.203125 -1.03125 C 13.785156 -0.207031 12.25 0.203125 10.59375 0.203125 C 8.925781 0.203125 7.382812 -0.207031 5.96875 -1.03125 C 4.550781 -1.851562 3.425781 -2.960938 2.59375 -4.359375 C 1.769531 -5.765625 1.359375 -7.3125 1.359375 -9 Z M 4.34375 -9 C 4.34375 -7.832031 4.625 -6.757812 5.1875 -5.78125 C 5.75 -4.800781 6.515625 -4.019531 7.484375 -3.4375 C 8.453125 -2.863281 9.515625 -2.578125 10.671875 -2.578125 C 11.804688 -2.578125 12.84375 -2.863281 13.78125 -3.4375 C 14.726562 -4.007812 15.476562 -4.785156 16.03125 -5.765625 C 16.59375 -6.753906 16.875 -7.832031 16.875 -9 C 16.875 -10.175781 16.59375 -11.257812 16.03125 -12.25 C 15.46875 -13.25 14.707031 -14.035156 13.75 -14.609375 C 12.789062 -15.191406 11.738281 -15.484375 10.59375 -15.484375 C 9.4375 -15.484375 8.378906 -15.191406 7.421875 -14.609375 C 6.472656 -14.035156 5.722656 -13.25 5.171875 -12.25 C 4.617188 -11.257812 4.34375 -10.175781 4.34375 -9 Z M 6.625 -20.625 C 6.625 -21.050781 6.773438 -21.410156 7.078125 -21.703125 C 7.390625 -21.992188 7.742188 -22.140625 8.140625 -22.140625 C 8.503906 -22.140625 8.835938 -21.988281 9.140625 -21.6875 C 9.453125 -21.382812 9.609375 -21.03125 9.609375 -20.625 C 9.609375 -20.1875 9.453125 -19.820312 9.140625 -19.53125 C 8.835938 -19.25 8.503906 -19.109375 8.140625 -19.109375 C 7.742188 -19.109375 7.390625 -19.25 7.078125 -19.53125 C 6.773438 -19.820312 6.625 -20.1875 6.625 -20.625 Z M 11.390625 -20.625 C 11.390625 -21.050781 11.539062 -21.410156 11.84375 -21.703125 C 12.15625 -21.992188 12.507812 -22.140625 12.90625 -22.140625 C 13.269531 -22.140625 13.601562 -21.988281 13.90625 -21.6875 C 14.207031 -21.382812 14.359375 -21.03125 14.359375 -20.625 C 14.359375 -20.1875 14.207031 -19.820312 13.90625 -19.53125 C 13.601562 -19.25 13.269531 -19.109375 12.90625 -19.109375 C 12.507812 -19.109375 12.15625 -19.25 11.84375 -19.53125 C 11.539062 -19.820312 11.390625 -20.1875 11.390625 -20.625 Z M 11.390625 -20.625 "/></g></g></g><g fill="#000000" fill-opacity="1"><g transform="translate(334.352787, 471.890029)"><g><path d="M 16.453125 -2.78125 L 16.453125 0 L 1.1875 0 C 1.375 -0.257812 2.976562 -2.695312 6 -7.3125 C 8.519531 -11.207031 10.257812 -13.863281 11.21875 -15.28125 L 4.515625 -15.28125 C 3.972656 -15.28125 3.472656 -15.4375 3.015625 -15.75 C 2.554688 -16.070312 2.328125 -16.460938 2.328125 -16.921875 L 2.328125 -18.984375 L 5.015625 -18.984375 L 5.015625 -18.640625 C 5.015625 -18.359375 5.054688 -18.191406 5.140625 -18.140625 C 5.234375 -18.085938 5.445312 -18.0625 5.78125 -18.0625 L 16.296875 -18.0625 L 6.15625 -2.78125 Z M 16.453125 -2.78125 "/></g></g></g><g fill="#000000" fill-opacity="1"><g transform="translate(362.043334, 471.890029)"><g><path d="M 5.09375 -6.5 C 5.09375 -5.800781 5.269531 -5.15625 5.625 -4.5625 C 5.988281 -3.96875 6.484375 -3.492188 7.109375 -3.140625 C 7.742188 -2.785156 8.4375 -2.609375 9.1875 -2.609375 C 9.957031 -2.609375 10.660156 -2.78125 11.296875 -3.125 C 11.929688 -3.46875 12.429688 -3.9375 12.796875 -4.53125 C 13.160156 -5.132812 13.34375 -5.789062 13.34375 -6.5 L 13.34375 -18.0625 L 16.203125 -18.0625 L 16.203125 -6.421875 C 16.203125 -5.128906 15.890625 -3.984375 15.265625 -2.984375 C 14.648438 -1.984375 13.800781 -1.203125 12.71875 -0.640625 C 11.644531 -0.078125 10.46875 0.203125 9.1875 0.203125 C 7.894531 0.203125 6.710938 -0.078125 5.640625 -0.640625 C 4.578125 -1.203125 3.738281 -1.984375 3.125 -2.984375 C 2.507812 -3.984375 2.203125 -5.128906 2.203125 -6.421875 L 2.203125 -18.0625 L 5.09375 -18.0625 Z M 5.203125 -20.828125 C 5.203125 -21.253906 5.351562 -21.613281 5.65625 -21.90625 C 5.96875 -22.195312 6.320312 -22.34375 6.71875 -22.34375 C 7.082031 -22.34375 7.414062 -22.191406 7.71875 -21.890625 C 8.03125 -21.585938 8.1875 -21.234375 8.1875 -20.828125 C 8.1875 -20.390625 8.03125 -20.023438 7.71875 -19.734375 C 7.414062 -19.453125 7.082031 -19.3125 6.71875 -19.3125 C 6.320312 -19.3125 5.96875 -19.453125 5.65625 -19.734375 C 5.351562 -20.023438 5.203125 -20.390625 5.203125 -20.828125 Z M 9.96875 -20.828125 C 9.96875 -21.253906 10.117188 -21.613281 10.421875 -21.90625 C 10.734375 -22.195312 11.085938 -22.34375 11.484375 -22.34375 C 11.847656 -22.34375 12.179688 -22.191406 12.484375 -21.890625 C 12.785156 -21.585938 12.9375 -21.234375 12.9375 -20.828125 C 12.9375 -20.390625 12.785156 -20.023438 12.484375 -19.734375 C 12.179688 -19.453125 11.847656 -19.3125 11.484375 -19.3125 C 11.085938 -19.3125 10.734375 -19.453125 10.421875 -19.734375 C 10.117188 -20.023438 9.96875 -20.390625 9.96875 -20.828125 Z M 9.96875 -20.828125 "/></g></g></g><g fill="#000000" fill-opacity="1"><g transform="translate(390.354189, 471.890029)"><g><path d="M 20.71875 -18.703125 L 20.71875 0 L 17.84375 0 L 17.84375 -10.453125 L 11.515625 -1.46875 L 11.46875 -1.46875 L 5.28125 -10.03125 L 5.28125 0 L 2.484375 0 L 2.484375 -18.703125 L 2.5 -18.703125 L 11.515625 -5.953125 L 20.671875 -18.703125 Z M 20.71875 -18.703125 "/></g></g></g><g fill="#000000" fill-opacity="1"><g transform="translate(423.47865, 471.890029)"><g><path d="M 5.390625 -18.0625 L 5.390625 -2.78125 L 14.296875 -2.78125 L 14.296875 0 L 2.484375 0 L 2.484375 -18.0625 Z M 5.390625 -18.0625 "/></g></g></g><g fill="#000000" fill-opacity="1"><g transform="translate(449.035356, 471.890029)"><g><path d="M 14.46875 -18.0625 L 14.46875 -15.28125 L 5.390625 -15.28125 L 5.390625 -10.46875 L 13.46875 -10.46875 L 13.46875 -7.6875 L 5.390625 -7.6875 L 5.390625 -2.78125 L 14.8125 -2.78125 L 14.8125 0 L 2.484375 0 L 2.484375 -18.0625 Z M 14.46875 -18.0625 "/></g></g></g><g fill="#000000" fill-opacity="1"><g transform="translate(475.2868, 471.890029)"><g><path d="M 12.359375 0 L 8.28125 -6.28125 L 5.390625 -6.28125 L 5.390625 0 L 2.484375 0 L 2.484375 -18.0625 L 7.5625 -18.0625 C 9.582031 -18.0625 11.203125 -17.546875 12.421875 -16.515625 C 13.640625 -15.492188 14.25 -14.070312 14.25 -12.25 C 14.25 -11.144531 14.007812 -10.113281 13.53125 -9.15625 C 13.0625 -8.207031 12.320312 -7.476562 11.3125 -6.96875 L 15.703125 0 Z M 5.390625 -9.0625 L 7.96875 -9.0625 C 9.125 -9.0625 9.960938 -9.378906 10.484375 -10.015625 C 11.003906 -10.648438 11.265625 -11.363281 11.265625 -12.15625 C 11.265625 -12.625 11.164062 -13.09375 10.96875 -13.5625 C 10.769531 -14.03125 10.429688 -14.429688 9.953125 -14.765625 C 9.472656 -15.109375 8.84375 -15.28125 8.0625 -15.28125 L 5.390625 -15.28125 Z M 5.390625 -9.0625 "/></g></g></g><g fill="#3d3b3a" fill-opacity="1"><g transform="translate(307.564736, 377.282583)"><g><path d="M 11.46875 -93.890625 C 12.546875 -94.15625 13.640625 -96.0625 13.375 -97.15625 C 13.375 -97.703125 12.828125 -98.25 12.546875 -98.53125 C 11.46875 -99.34375 10.375 -98.796875 10.09375 -97.15625 C 10.09375 -96.34375 9.828125 -95.796875 9.546875 -95.515625 C 8.734375 -94.984375 10.375 -93.34375 11.46875 -93.890625 Z M -4.09375 -74.234375 C -1.09375 -74.5 4.09375 -76.140625 8.453125 -78.0625 L 20.46875 -83.515625 L 23.75 -84.875 C 24.5625 -85.421875 24.5625 -86.25 24.015625 -86.515625 L 23.46875 -86.796875 L 22.921875 -86.796875 L 22.375 -86.515625 C 10.375 -81.328125 2.1875 -78.0625 -1.640625 -77.234375 C -1.640625 -77.234375 -3.828125 -76.421875 -4.90625 -76.96875 C -4.90625 -78.0625 -4.640625 -79.140625 -3.828125 -80.234375 L 0.8125 -84.0625 C 4.09375 -86.796875 4.90625 -88.15625 3.546875 -88.703125 C 3 -88.96875 0.8125 -88.15625 -1.09375 -86.796875 C -6 -82.6875 -8.1875 -79.96875 -8.1875 -77.234375 L -8.1875 -76.421875 C -8.1875 -74.78125 -6.828125 -73.96875 -4.09375 -74.234375 Z M -4.09375 -74.234375 "/></g></g></g><g fill="#3d3b3a" fill-opacity="1"><g transform="translate(335.129952, 377.282583)"><g><path d="M -12.015625 -56.21875 C -11.734375 -56.21875 -11.46875 -57.59375 -10.921875 -60.59375 C -10.375 -65.5 -8.734375 -69.046875 -4.640625 -75.046875 C -1.09375 -80.515625 9.546875 -94.15625 10.09375 -94.15625 C 10.375 -94.4375 10.640625 -94.703125 10.640625 -94.984375 C 11.1875 -95.515625 11.734375 -95.796875 12.28125 -96.0625 L 17.1875 -99.34375 C 19.65625 -100.703125 20.203125 -100.984375 22.375 -102.625 L 24.828125 -104.25 C 25.109375 -104.25 27.84375 -105.890625 29.46875 -107.265625 C 31.390625 -108.625 36.578125 -111.890625 37.390625 -112.4375 L 40.125 -114.359375 L 43.125 -116.53125 L 46.671875 -119.265625 L 53.5 -124.71875 C 57.59375 -127.734375 67.140625 -136.1875 67.6875 -138.640625 C 68.234375 -140.828125 66.59375 -141.921875 63.59375 -140.828125 C 60.59375 -140.015625 56.5 -137.546875 54.3125 -135.921875 C 51.859375 -134.28125 48.578125 -132.640625 46.125 -130.734375 C 39.03125 -125.546875 31.65625 -119.8125 24.5625 -113.53125 C 21.5625 -110.8125 15.28125 -104.796875 13.921875 -103.703125 L 8.453125 -98.25 C 7.921875 -97.984375 7.640625 -97.984375 7.640625 -97.984375 C 7.375 -98.25 7.09375 -97.984375 7.09375 -97.984375 C 7.09375 -97.4375 4.09375 -96.609375 3.546875 -96.890625 C 3.28125 -97.15625 3 -96.890625 3 -96.609375 C 3 -96.0625 4.359375 -94.703125 4.90625 -94.703125 L 5.453125 -94.703125 C 4.640625 -93.890625 4.359375 -93.34375 4.359375 -93.0625 L 3.28125 -91.703125 C 2.453125 -90.890625 1.90625 -90.34375 1.90625 -90.0625 C 1.90625 -89.796875 1.90625 -89.515625 1.640625 -89.515625 C 1.359375 -89.515625 0.546875 -88.421875 -0.546875 -87.0625 L -2.734375 -84.328125 C -3 -84.328125 -3 -83.78125 -3 -83.515625 C -3.28125 -82.96875 -3.546875 -82.6875 -3.828125 -82.6875 L -4.640625 -81.875 C -4.640625 -81.328125 -4.640625 -81.328125 -4.90625 -81.328125 C -5.1875 -81.328125 -5.453125 -81.0625 -5.453125 -80.78125 C -5.453125 -80.234375 -5.734375 -79.96875 -6 -79.96875 C -6 -80.234375 -6.28125 -79.96875 -6.28125 -79.6875 C -6.28125 -79.140625 -7.921875 -76.6875 -9.28125 -74.78125 C -10.375 -73.140625 -10.640625 -72.328125 -10.921875 -71.78125 C -10.921875 -71.234375 -11.1875 -70.6875 -11.46875 -69.875 C -12.828125 -67.953125 -13.921875 -63.046875 -13.375 -60.046875 C -13.09375 -57.046875 -12.828125 -56.5 -12.015625 -56.21875 Z M 17.734375 -102.34375 C 16.921875 -102.078125 17.46875 -102.34375 19.65625 -104.796875 C 22.109375 -107.53125 36.03125 -119.546875 36.578125 -119.546875 L 46.390625 -127.453125 L 50.484375 -130.1875 L 52.671875 -132.09375 L 54.3125 -133.1875 L 58.671875 -135.921875 L 60.59375 -137 L 61.953125 -137.828125 L 62.5 -138.09375 C 62.765625 -138.375 63.046875 -138.375 63.59375 -138.375 C 63.859375 -138.640625 64.140625 -138.375 64.140625 -137.828125 C 64.140625 -137.828125 64.140625 -137.546875 63.859375 -137.28125 L 63.3125 -136.734375 L 63.3125 -136.453125 L 62.5 -135.921875 L 62.21875 -135.640625 L 61.6875 -134.828125 L 60.859375 -134 L 57.046875 -130.453125 L 51.859375 -126.359375 C 49.671875 -124.453125 48.03125 -123.09375 47.765625 -123.09375 L 46.125 -122 C 43.9375 -120.078125 37.65625 -115.71875 36.578125 -114.90625 C 35.484375 -114.359375 32.203125 -112.171875 31.109375 -111.359375 C 29.46875 -109.984375 25.109375 -106.71875 24.015625 -106.171875 L 22.921875 -105.34375 Z M 17.734375 -102.34375 "/></g></g></g><g fill="#3d3b3a" fill-opacity="1"><g transform="translate(363.78686, 377.282583)"><g><path d="M -2.734375 -74.5 C 0.265625 -75.046875 2.1875 -75.59375 7.09375 -78.0625 L 19.375 -83.515625 L 22.921875 -85.15625 C 23.203125 -85.421875 23.203125 -86.25 22.65625 -86.515625 L 22.375 -86.796875 L 21.5625 -86.796875 L 21.015625 -86.515625 C 6 -79.96875 -3 -76.6875 -4.640625 -77.234375 C -5.1875 -77.515625 -5.1875 -77.78125 -4.359375 -78.59375 C -3.828125 -79.6875 -3.28125 -79.96875 -1.359375 -80.515625 C 1.640625 -81.328125 4.359375 -82.6875 9 -85.96875 C 13.375 -88.96875 15.28125 -90.609375 15.015625 -91.421875 C 14.46875 -93.0625 12.015625 -92.796875 7.640625 -91.15625 C 2.1875 -89.25 -4.09375 -84.328125 -6.828125 -79.96875 C -8.1875 -77.78125 -8.453125 -76.96875 -7.921875 -75.875 C -7.640625 -73.96875 -7.09375 -73.96875 -2.734375 -74.5 Z M -0.546875 -83.515625 C -0.265625 -84.328125 4.359375 -87.609375 6.28125 -88.15625 C 7.921875 -88.96875 10.640625 -90.0625 10.640625 -89.515625 C 10.375 -89.25 6.28125 -86.515625 3.828125 -85.15625 C 0.8125 -83.515625 -1.09375 -82.96875 -0.546875 -83.515625 Z M -0.546875 -83.515625 "/></g></g></g><g fill="#3d3b3a" fill-opacity="1"><g transform="translate(390.260415, 377.282583)"><g><path d="M -7.375 -73.421875 C -6.828125 -74.234375 -5.1875 -75.328125 -4.09375 -76.140625 L -1.09375 -78.328125 C 0 -79.421875 1.640625 -80.234375 7.375 -82.96875 L 10.375 -84.609375 C 11.734375 -85.15625 12.015625 -85.15625 13.09375 -84.328125 C 14.734375 -83.515625 16.921875 -83.78125 20.734375 -85.15625 L 25.109375 -87.328125 L 28.109375 -88.703125 C 28.65625 -88.96875 30.015625 -89.25 30.5625 -89.25 C 31.390625 -89.25 31.9375 -89.515625 32.75 -90.0625 C 34.390625 -91.703125 34.65625 -92.515625 34.109375 -93.34375 C 33.5625 -94.4375 32.75 -94.4375 30.5625 -92.796875 C 29.46875 -92.25 28.65625 -91.703125 28.390625 -91.703125 C 28.109375 -91.703125 27.296875 -91.421875 26.46875 -90.890625 C 24.015625 -89.25 18.5625 -86.796875 16.921875 -86.796875 C 16.375 -86.796875 16.109375 -87.0625 15.828125 -87.875 C 15.5625 -89.515625 14.734375 -89.796875 13.09375 -88.96875 C 12.546875 -88.421875 6.828125 -85.96875 5.453125 -85.15625 L 3 -84.0625 C 2.1875 -83.515625 3 -84.609375 5.1875 -86.515625 C 7.921875 -88.96875 8.453125 -90.609375 6.828125 -91.15625 C 6 -91.421875 5.453125 -91.421875 4.359375 -90.609375 C 1.90625 -89.25 -4.359375 -82.96875 -6.546875 -80.234375 L -9 -77.234375 C -9.828125 -76.140625 -10.640625 -75.046875 -10.921875 -74.5 C -11.1875 -72.328125 -8.734375 -71.78125 -7.375 -73.421875 Z M -7.375 -73.421875 "/></g></g></g><g fill="#3d3b3a" fill-opacity="1"><g transform="translate(437.476025, 377.282583)"><g><path d="M 11.46875 -93.890625 C 12.546875 -94.15625 13.640625 -96.0625 13.375 -97.15625 C 13.375 -97.703125 12.828125 -98.25 12.546875 -98.53125 C 11.46875 -99.34375 10.375 -98.796875 10.09375 -97.15625 C 10.09375 -96.34375 9.828125 -95.796875 9.546875 -95.515625 C 8.734375 -94.984375 10.375 -93.34375 11.46875 -93.890625 Z M -4.09375 -74.234375 C -1.09375 -74.5 4.09375 -76.140625 8.453125 -78.0625 L 20.46875 -83.515625 L 23.75 -84.875 C 24.5625 -85.421875 24.5625 -86.25 24.015625 -86.515625 L 23.46875 -86.796875 L 22.921875 -86.796875 L 22.375 -86.515625 C 10.375 -81.328125 2.1875 -78.0625 -1.640625 -77.234375 C -1.640625 -77.234375 -3.828125 -76.421875 -4.90625 -76.96875 C -4.90625 -78.0625 -4.640625 -79.140625 -3.828125 -80.234375 L 0.8125 -84.0625 C 4.09375 -86.796875 4.90625 -88.15625 3.546875 -88.703125 C 3 -88.96875 0.8125 -88.15625 -1.09375 -86.796875 C -6 -82.6875 -8.1875 -79.96875 -8.1875 -77.234375 L -8.1875 -76.421875 C -8.1875 -74.78125 -6.828125 -73.96875 -4.09375 -74.234375 Z M -4.09375 -74.234375 "/></g></g></g><g fill="#000000" fill-opacity="1"><g transform="translate(369.841706, 524.150187)"><g><path d="M 3.96875 -4.453125 L 3.96875 -2.828125 L 0.890625 -2.828125 L 0.890625 -4.453125 Z M 3.96875 -4.453125 "/></g></g></g><g fill="#000000" fill-opacity="1"><g transform="translate(381.458561, 524.150187)"><g><path d="M 3.96875 -4.453125 L 3.96875 -2.828125 L 0.890625 -2.828125 L 0.890625 -4.453125 Z M 3.96875 -4.453125 "/></g></g></g><g fill="#000000" fill-opacity="1"><g transform="translate(393.075417, 524.150187)"><g><path d="M 3.96875 -4.453125 L 3.96875 -2.828125 L 0.890625 -2.828125 L 0.890625 -4.453125 Z M 3.96875 -4.453125 "/></g></g></g></svg>