<svg xmlns="http://www.w3.org/2000/svg" xmlns:xlink="http://www.w3.org/1999/xlink" width="1024" zoomAndPan="magnify" viewBox="0 0 768 767.999994" height="1024" preserveAspectRatio="xMidYMid meet" version="1.0"><defs><g/><clipPath id="5f12b79e66"><path d="M 82.949219 76.800781 L 677.699219 76.800781 L 677.699219 671.550781 L 82.949219 671.550781 Z M 82.949219 76.800781 " clip-rule="nonzero"/></clipPath><clipPath id="c4dec046a9"><path d="M 230 366 L 532 366 L 532 556.964844 L 230 556.964844 Z M 230 366 " clip-rule="nonzero"/></clipPath></defs><g clip-path="url(#5f12b79e66)"><path fill="#122620" d="M 380.320312 671.539062 C 216.03125 671.539062 82.949219 537.539062 82.949219 374.167969 C 82.949219 210.800781 216.03125 76.800781 380.320312 76.800781 C 544.605469 76.800781 677.6875 209.882812 677.6875 374.167969 C 677.6875 538.457031 543.6875 671.539062 380.320312 671.539062 Z M 380.320312 95.15625 C 226.128906 95.15625 101.308594 219.976562 101.308594 374.167969 C 101.308594 528.359375 226.128906 653.183594 380.320312 653.183594 C 534.511719 653.183594 659.332031 528.359375 659.332031 374.167969 C 659.332031 219.976562 533.59375 95.15625 380.320312 95.15625 Z M 380.320312 95.15625 " fill-opacity="1" fill-rule="nonzero"/></g><path fill="#fffef9" d="M 632.660156 576.652344 C 628.886719 581.332031 624.988281 585.902344 620.964844 590.363281 C 616.941406 594.824219 612.796875 599.171875 608.527344 603.402344 C 604.261719 607.632812 599.882812 611.742188 595.386719 615.730469 C 590.890625 619.71875 586.289062 623.578125 581.578125 627.308594 C 576.871094 631.039062 572.058594 634.636719 567.152344 638.101562 C 562.242188 641.566406 557.238281 644.890625 552.144531 648.078125 C 547.050781 651.261719 541.871094 654.304688 536.605469 657.203125 C 531.34375 660.097656 526 662.847656 520.585938 665.449219 C 515.167969 668.050781 509.683594 670.496094 504.128906 672.792969 C 498.578125 675.089844 492.964844 677.226562 487.292969 679.210938 C 481.621094 681.195312 475.898438 683.019531 470.125 684.683594 C 464.351562 686.351562 458.535156 687.851562 452.679688 689.195312 C 446.820312 690.535156 440.933594 691.714844 435.011719 692.726562 C 429.085938 693.742188 423.140625 694.589844 417.171875 695.273438 C 411.203125 695.957031 405.21875 696.472656 399.21875 696.824219 C 393.21875 697.175781 387.21875 697.359375 381.207031 697.375 C 375.199219 697.390625 369.195312 697.242188 363.195312 696.925781 C 357.195312 696.605469 351.207031 696.121094 345.234375 695.472656 C 339.261719 694.820312 333.308594 694.007812 327.382812 693.023438 C 321.453125 692.042969 315.558594 690.898438 309.691406 689.589844 C 303.828125 688.28125 298.003906 686.808594 292.222656 685.175781 C 286.441406 683.542969 280.707031 681.75 275.023438 679.796875 C 269.34375 677.84375 263.71875 675.734375 258.152344 673.472656 C 252.585938 671.207031 247.089844 668.789062 241.65625 666.21875 C 236.226562 663.648438 230.871094 660.925781 225.589844 658.058594 C 220.3125 655.191406 215.117188 652.175781 210.003906 649.019531 C 204.890625 645.863281 199.871094 642.5625 194.941406 639.128906 C 190.011719 635.691406 185.183594 632.121094 180.453125 628.414062 C 175.722656 624.707031 171.101562 620.875 166.582031 616.910156 C 162.066406 612.949219 157.664062 608.863281 153.371094 604.65625 C 149.082031 600.449219 144.914062 596.125 140.863281 591.6875 C 136.816406 587.246094 132.894531 582.699219 129.097656 578.039062 L 185.097656 532.398438 C 188.046875 536.015625 191.09375 539.550781 194.242188 543 C 197.386719 546.449219 200.628906 549.808594 203.960938 553.082031 C 207.296875 556.351562 210.71875 559.523438 214.226562 562.605469 C 217.738281 565.683594 221.328125 568.664062 225.003906 571.542969 C 228.679688 574.421875 232.433594 577.195312 236.265625 579.867188 C 240.09375 582.539062 243.996094 585.101562 247.96875 587.554688 C 251.941406 590.007812 255.980469 592.347656 260.082031 594.578125 C 264.183594 596.808594 268.347656 598.921875 272.566406 600.917969 C 276.785156 602.917969 281.058594 604.796875 285.382812 606.554688 C 289.710938 608.316406 294.078125 609.953125 298.496094 611.46875 C 302.910156 612.988281 307.367188 614.378906 311.859375 615.648438 C 316.351562 616.917969 320.878906 618.0625 325.4375 619.078125 C 329.992188 620.097656 334.574219 620.988281 339.179688 621.75 C 343.789062 622.511719 348.414062 623.148438 353.054688 623.652344 C 357.695312 624.15625 362.347656 624.535156 367.011719 624.78125 C 371.671875 625.027344 376.339844 625.144531 381.007812 625.128906 C 385.679688 625.117188 390.34375 624.976562 395.003906 624.703125 C 399.667969 624.429688 404.316406 624.027344 408.957031 623.496094 C 413.59375 622.96875 418.214844 622.308594 422.816406 621.519531 C 427.417969 620.730469 431.996094 619.816406 436.546875 618.773438 C 441.097656 617.730469 445.617188 616.5625 450.105469 615.269531 C 454.589844 613.976562 459.039062 612.558594 463.445312 611.015625 C 467.855469 609.476562 472.214844 607.8125 476.53125 606.027344 C 480.84375 604.246094 485.105469 602.34375 489.316406 600.320312 C 493.527344 598.300781 497.675781 596.164062 501.765625 593.914062 C 505.855469 591.660156 509.882812 589.296875 513.839844 586.820312 C 517.800781 584.34375 521.6875 581.761719 525.503906 579.070312 C 529.316406 576.378906 533.054688 573.582031 536.714844 570.683594 C 540.375 567.78125 543.949219 564.785156 547.445312 561.683594 C 550.9375 558.585938 554.339844 555.394531 557.65625 552.105469 C 560.972656 548.816406 564.191406 545.441406 567.320312 541.972656 C 570.449219 538.503906 573.476562 534.953125 576.40625 531.320312 Z M 632.660156 576.652344 " fill-opacity="1" fill-rule="nonzero"/><g fill="#122620" fill-opacity="1"><g transform="translate(152.801093, 576.745597)"><g><path d="M 27.921875 -21.453125 L 38.640625 -10.75 C 41.203125 -8.1875 42.679688 -5.617188 43.078125 -3.046875 C 43.472656 -0.472656 42.703125 1.773438 40.765625 3.703125 C 39.378906 5.097656 37.8125 5.894531 36.0625 6.09375 C 34.3125 6.289062 32.601562 5.890625 30.9375 4.890625 C 32.300781 6.804688 32.898438 8.785156 32.734375 10.828125 C 32.566406 12.878906 31.648438 14.738281 29.984375 16.40625 C 27.867188 18.519531 25.410156 19.378906 22.609375 18.984375 C 19.816406 18.585938 17.019531 16.992188 14.21875 14.203125 L 3.25 3.25 Z M 28.375 -13.609375 L 21.859375 -7.078125 L 28.21875 -0.71875 C 29.53125 0.59375 30.851562 1.332031 32.1875 1.5 C 33.53125 1.664062 34.71875 1.234375 35.75 0.203125 C 36.789062 -0.828125 37.21875 -1.992188 37.03125 -3.296875 C 36.84375 -4.597656 36.078125 -5.914062 34.734375 -7.25 Z M 18.1875 -3.40625 L 11.109375 3.6875 L 17.46875 10.046875 C 19.113281 11.679688 20.695312 12.640625 22.21875 12.921875 C 23.75 13.203125 25.09375 12.765625 26.25 11.609375 C 27.332031 10.523438 27.722656 9.210938 27.421875 7.671875 C 27.117188 6.140625 26.160156 4.566406 24.546875 2.953125 Z M 18.1875 -3.40625 "/></g></g></g><g fill="#122620" fill-opacity="1"><g transform="translate(212.78624, 628.07731)"><g><path d="M 28.21875 -35.4375 C 29.101562 -35.65625 29.953125 -35.503906 30.765625 -34.984375 C 31.585938 -34.472656 32.09375 -33.773438 32.28125 -32.890625 C 32.476562 -32.015625 32.300781 -31.140625 31.75 -30.265625 C 31.226562 -29.421875 30.523438 -28.890625 29.640625 -28.671875 C 28.753906 -28.453125 27.898438 -28.597656 27.078125 -29.109375 C 26.265625 -29.628906 25.765625 -30.332031 25.578125 -31.21875 C 25.390625 -32.101562 25.554688 -32.96875 26.078125 -33.8125 C 26.628906 -34.6875 27.34375 -35.226562 28.21875 -35.4375 Z M 8.875 5.546875 L 3.890625 2.4375 L 22.40625 -27.15625 L 27.390625 -24.046875 Z M 8.875 5.546875 "/></g></g></g><g fill="#122620" fill-opacity="1"><g transform="translate(264.515426, 655.730515)"><g><path d="M 11.671875 -1.453125 L 25.875 3.703125 L 24.046875 8.71875 L 4.3125 1.5625 L 16.21875 -31.25 L 21.75 -29.25 Z M 11.671875 -1.453125 "/></g></g></g><g fill="#122620" fill-opacity="1"><g transform="translate(332.053934, 674.706187)"><g><path d="M 11.21875 -43.890625 C 11.9375 -44.441406 12.773438 -44.648438 13.734375 -44.515625 C 14.703125 -44.378906 15.453125 -43.953125 15.984375 -43.234375 C 16.515625 -42.515625 16.710938 -41.640625 16.578125 -40.609375 C 16.441406 -39.617188 16.015625 -38.84375 15.296875 -38.28125 C 14.585938 -37.726562 13.75 -37.519531 12.78125 -37.65625 C 11.820312 -37.789062 11.078125 -38.21875 10.546875 -38.9375 C 10.015625 -39.664062 9.816406 -40.523438 9.953125 -41.515625 C 10.085938 -42.546875 10.507812 -43.335938 11.21875 -43.890625 Z M 10.375 1.4375 L 4.546875 0.625 L 9.3125 -33.953125 L 15.140625 -33.140625 Z M 10.375 1.4375 "/></g></g></g><g fill="#122620" fill-opacity="1"><g transform="translate(390.997588, 679.087644)"><g><path d="M 34.703125 -3.34375 L 28.9375 -2.796875 L 8.015625 -25.921875 L 10.421875 -1 L 4.578125 -0.4375 L 1.21875 -35.1875 L 6.96875 -35.75 L 28 -12.578125 L 25.578125 -37.546875 L 31.34375 -38.09375 Z M 34.703125 -3.34375 "/></g></g></g><g fill="#122620" fill-opacity="1"><g transform="translate(473.789918, 664.793596)"><g><path d="M 20.203125 -7.53125 L 20 -4.9375 C 21.070312 -5.132812 22.019531 -5.023438 22.84375 -4.609375 C 23.675781 -4.191406 24.285156 -3.488281 24.671875 -2.5 C 25.171875 -1.164062 25.097656 0.0820312 24.453125 1.25 C 23.816406 2.414062 22.800781 3.265625 21.40625 3.796875 C 19.84375 4.390625 18.3125 4.476562 16.8125 4.0625 L 16.875 1.140625 C 17.914062 1.460938 18.9375 1.4375 19.9375 1.0625 C 20.582031 0.8125 21.023438 0.414062 21.265625 -0.125 C 21.503906 -0.664062 21.53125 -1.179688 21.34375 -1.671875 C 21.15625 -2.171875 20.800781 -2.515625 20.28125 -2.703125 C 19.757812 -2.890625 19.144531 -2.847656 18.4375 -2.578125 C 17.914062 -2.378906 17.398438 -2.097656 16.890625 -1.734375 L 17.09375 -6.28125 C 12.53125 -4.976562 8.1875 -5.328125 4.0625 -7.328125 C -0.0507812 -9.335938 -2.945312 -12.550781 -4.625 -16.96875 C -6.394531 -21.601562 -6.226562 -26.125 -4.125 -30.53125 C -2.019531 -34.9375 1.441406 -38.054688 6.265625 -39.890625 C 8.566406 -40.765625 10.976562 -41.175781 13.5 -41.125 C 16.019531 -41.070312 18.378906 -40.554688 20.578125 -39.578125 L 18.890625 -34.359375 C 17.222656 -35.179688 15.441406 -35.65625 13.546875 -35.78125 C 11.648438 -35.914062 9.878906 -35.671875 8.234375 -35.046875 C 4.960938 -33.796875 2.625 -31.628906 1.21875 -28.546875 C -0.1875 -25.472656 -0.28125 -22.335938 0.9375 -19.140625 C 2.164062 -15.910156 4.328125 -13.609375 7.421875 -12.234375 C 10.523438 -10.867188 13.710938 -10.8125 16.984375 -12.0625 C 20.359375 -13.34375 22.894531 -15.785156 24.59375 -19.390625 L 29.21875 -16.984375 C 27.257812 -12.722656 24.253906 -9.570312 20.203125 -7.53125 Z M 20.203125 -7.53125 "/></g></g></g><g fill="#122620" fill-opacity="1"><g transform="translate(545.198569, 631.297343)"><g><path d="M 5.53125 -10.375 L 17.921875 -19.015625 L 20.984375 -14.625 L 3.765625 -2.625 L -16.203125 -31.265625 L -11.375 -34.625 Z M 5.53125 -10.375 "/></g></g></g><g fill="#122620" fill-opacity="1"><g transform="translate(599.61386, 587.017855)"><g><path d="M -29.40625 -34.46875 C -29.445312 -35.363281 -29.132812 -36.164062 -28.46875 -36.875 C -27.8125 -37.582031 -27.03125 -37.945312 -26.125 -37.96875 C -25.226562 -38 -24.398438 -37.660156 -23.640625 -36.953125 C -22.910156 -36.273438 -22.523438 -35.476562 -22.484375 -34.5625 C -22.441406 -33.65625 -22.75 -32.847656 -23.40625 -32.140625 C -24.070312 -31.429688 -24.851562 -31.070312 -25.75 -31.0625 C -26.65625 -31.050781 -27.472656 -31.382812 -28.203125 -32.0625 C -28.960938 -32.769531 -29.363281 -33.570312 -29.40625 -34.46875 Z M 7.140625 -7.65625 L 3.140625 -3.359375 L -22.375 -27.171875 L -18.375 -31.46875 Z M 7.140625 -7.65625 "/></g></g></g><g clip-path="url(#c4dec046a9)"><path fill="#414042" d="M 531.109375 380.203125 C 519.113281 386.785156 504.246094 388.734375 487.503906 382.277344 C 477.257812 393.242188 463.203125 401.828125 438.792969 397.425781 C 440.183594 403 445.179688 412.742188 451.910156 423.886719 C 427.769531 421.109375 389.054688 403.199219 373.648438 382.402344 C 368.386719 385.855469 362.738281 388.480469 356.707031 390.277344 C 350.675781 392.074219 344.511719 392.964844 338.214844 392.953125 C 317.757812 392.953125 297.265625 381.464844 286.347656 366.980469 C 276.820312 369.046875 267.199219 369.648438 257.484375 368.785156 C 257.539062 371.796875 257.140625 374.746094 256.285156 377.632812 C 255.429688 380.519531 254.15625 383.210938 252.46875 385.703125 C 246.820312 394.179688 240.976562 402.53125 234.808594 410.628906 C 226.867188 421.054688 228.816406 429.207031 240.742188 434.910156 C 243.917969 436.421875 248.355469 438.515625 249.058594 441.183594 C 249.480469 443.46875 249.59375 445.765625 249.402344 448.078125 C 249.214844 450.390625 248.726562 452.636719 247.941406 454.820312 C 246.246094 460.234375 246.769531 464.09375 252.667969 466.796875 C 248.933594 472.949219 249.058594 477.945312 256.132812 482.527344 C 262.046875 486.351562 260.425781 493.546875 259.632812 499.464844 C 257.03125 518.816406 267.859375 527.097656 281.964844 527.382812 C 293.296875 527.601562 304.714844 525.90625 315.972656 524.226562 C 323.1875 523.164062 329.46875 523.957031 334.339844 529.640625 C 341.507812 537.753906 347.042969 546.863281 350.9375 556.964844 L 480.289062 556.964844 C 478.738281 553.359375 477.222656 549.570312 476.15625 546.523438 C 465.332031 515.859375 470.113281 487.992188 492.394531 462.542969 C 514.816406 436.695312 527.644531 412.398438 531.109375 380.203125 Z M 531.109375 380.203125 " fill-opacity="1" fill-rule="nonzero"/></g><path fill="#333132" d="M 487.503906 382.257812 C 477.257812 393.226562 463.203125 401.8125 438.792969 397.410156 C 440.183594 402.984375 445.179688 412.722656 451.910156 423.871094 C 427.769531 421.09375 389.054688 403.179688 373.648438 382.386719 C 368.386719 385.839844 362.742188 388.46875 356.707031 390.269531 C 350.675781 392.066406 344.511719 392.964844 338.214844 392.953125 C 317.757812 392.953125 297.265625 381.464844 286.347656 366.980469 C 276.820312 369.046875 267.199219 369.648438 257.484375 368.785156 C 257.539062 371.796875 257.140625 374.746094 256.285156 377.632812 C 255.429688 380.519531 254.15625 383.210938 252.46875 385.703125 L 249.023438 390.808594 C 262.335938 390.898438 280 387.957031 287.234375 385.214844 C 300.816406 401.449219 323.910156 411.0625 345.144531 411.0625 C 351.074219 411.074219 356.917969 410.355469 362.671875 408.914062 C 368.421875 407.46875 373.910156 405.34375 379.132812 402.53125 C 397.535156 422.714844 434.066406 439.148438 458.152344 441.941406 L 472.261719 443.566406 L 464.917969 431.410156 C 461.148438 425.167969 458.511719 420.351562 456.671875 416.671875 L 458.242188 416.671875 C 461.859375 416.742188 465.445312 416.445312 469 415.777344 C 472.554688 415.109375 476.007812 414.085938 479.351562 412.710938 C 482.695312 411.335938 485.867188 409.632812 488.863281 407.605469 C 491.859375 405.578125 494.617188 403.269531 497.136719 400.675781 C 506.695312 403.035156 516.390625 404.484375 526.21875 405.019531 C 528.632812 396.902344 530.261719 388.628906 531.109375 380.203125 C 519.128906 386.769531 504.191406 388.714844 487.503906 382.257812 Z M 487.503906 382.257812 " fill-opacity="1" fill-rule="nonzero"/><path fill="#39b54a" d="M 520.773438 288.214844 C 521.546875 286.066406 522.164062 283.875 522.621094 281.636719 C 523.078125 279.398438 523.371094 277.140625 523.496094 274.863281 C 523.625 272.582031 523.589844 270.304688 523.382812 268.03125 C 523.179688 265.757812 522.8125 263.507812 522.28125 261.289062 C 521.75 259.066406 521.0625 256.898438 520.214844 254.777344 C 519.367188 252.65625 518.371094 250.609375 517.226562 248.632812 C 516.082031 246.660156 514.796875 244.777344 513.378906 242.988281 C 511.957031 241.199219 510.417969 239.523438 508.753906 237.960938 C 507.089844 236.394531 505.320312 234.960938 503.449219 233.652344 C 501.574219 232.347656 499.617188 231.183594 497.578125 230.160156 C 495.535156 229.136719 493.429688 228.269531 491.257812 227.554688 C 489.089844 226.839844 486.882812 226.285156 484.632812 225.890625 C 482.382812 225.496094 480.117188 225.269531 477.832031 225.207031 C 475.550781 225.140625 473.273438 225.242188 471.007812 225.511719 C 468.738281 225.777344 466.503906 226.210938 464.296875 226.800781 C 462.09375 227.394531 459.941406 228.144531 457.84375 229.050781 C 457.441406 227.800781 456.996094 226.570312 456.5 225.355469 C 456.003906 224.136719 455.464844 222.941406 454.878906 221.765625 C 454.292969 220.589844 453.667969 219.441406 452.996094 218.3125 C 452.324219 217.183594 451.609375 216.082031 450.855469 215.007812 C 450.101562 213.933594 449.304688 212.890625 448.472656 211.875 C 447.640625 210.863281 446.769531 209.878906 445.863281 208.929688 C 444.953125 207.980469 444.011719 207.070312 443.039062 206.191406 C 442.0625 205.3125 441.054688 204.472656 440.015625 203.667969 C 438.976562 202.867188 437.90625 202.105469 436.808594 201.382812 C 435.714844 200.660156 434.589844 199.980469 433.445312 199.34375 C 432.296875 198.707031 431.125 198.113281 429.933594 197.566406 C 428.738281 197.015625 427.527344 196.511719 426.296875 196.054688 C 425.066406 195.597656 423.820312 195.183594 422.558594 194.820312 C 421.300781 194.457031 420.027344 194.140625 418.742188 193.871094 C 417.457031 193.601562 416.160156 193.382812 414.859375 193.210938 C 413.558594 193.039062 412.25 192.917969 410.941406 192.847656 C 409.628906 192.773438 408.316406 192.75 407.003906 192.777344 C 405.691406 192.800781 404.382812 192.878906 403.074219 193.003906 C 401.769531 193.125 400.46875 193.300781 399.171875 193.523438 C 397.878906 193.746094 396.597656 194.015625 395.320312 194.335938 C 394.046875 194.65625 392.789062 195.019531 391.542969 195.433594 C 390.296875 195.847656 389.066406 196.308594 387.855469 196.816406 C 386.644531 197.320312 385.453125 197.875 384.285156 198.46875 C 383.113281 199.066406 381.96875 199.703125 380.847656 200.386719 C 379.726562 201.070312 378.632812 201.792969 377.5625 202.558594 C 376.496094 203.324219 375.460938 204.125 374.453125 204.96875 C 373.445312 205.8125 372.472656 206.691406 371.53125 207.605469 C 370.59375 208.523438 369.6875 209.472656 368.820312 210.457031 C 367.949219 211.441406 367.117188 212.457031 366.328125 213.503906 C 365.535156 214.550781 364.78125 215.625 364.070312 216.730469 C 363.359375 217.832031 362.691406 218.960938 362.0625 220.113281 C 361.4375 221.269531 360.855469 222.441406 360.316406 223.640625 C 358.367188 222.28125 356.335938 221.058594 354.21875 219.976562 C 352.105469 218.890625 349.925781 217.957031 347.679688 217.171875 C 345.4375 216.382812 343.152344 215.753906 340.824219 215.277344 C 338.492188 214.804688 336.144531 214.488281 333.769531 214.335938 C 331.398438 214.179688 329.027344 214.1875 326.65625 214.355469 C 324.285156 214.523438 321.9375 214.851562 319.609375 215.339844 C 317.285156 215.832031 315 216.472656 312.761719 217.273438 C 310.523438 218.074219 308.351562 219.023438 306.242188 220.117188 C 304.132812 221.214844 302.105469 222.449219 300.164062 223.820312 C 298.226562 225.191406 296.386719 226.6875 294.648438 228.3125 C 292.914062 229.933594 291.292969 231.667969 289.792969 233.511719 C 288.292969 235.355469 286.921875 237.289062 285.6875 239.320312 C 284.449219 241.347656 283.355469 243.453125 282.40625 245.632812 C 281.457031 247.8125 280.660156 250.042969 280.015625 252.332031 C 279.371094 254.617188 278.882812 256.9375 278.554688 259.292969 C 278.226562 261.648438 278.058594 264.011719 278.050781 266.386719 C 278.050781 266.496094 278.050781 266.585938 278.050781 266.695312 C 276.652344 266.863281 275.265625 267.097656 273.886719 267.398438 C 272.511719 267.699219 271.152344 268.066406 269.808594 268.492188 C 268.464844 268.921875 267.148438 269.414062 265.851562 269.964844 C 264.554688 270.519531 263.289062 271.132812 262.050781 271.804688 C 260.8125 272.476562 259.609375 273.207031 258.4375 273.992188 C 257.269531 274.78125 256.140625 275.621094 255.050781 276.511719 C 253.960938 277.40625 252.914062 278.347656 251.914062 279.339844 C 250.914062 280.332031 249.960938 281.367188 249.058594 282.449219 C 248.15625 283.53125 247.304688 284.652344 246.507812 285.816406 C 245.710938 286.976562 244.96875 288.175781 244.285156 289.40625 C 243.601562 290.636719 242.976562 291.898438 242.410156 293.1875 C 241.847656 294.480469 241.34375 295.792969 240.902344 297.132812 C 240.460938 298.472656 240.085938 299.828125 239.773438 301.199219 C 239.460938 302.574219 239.210938 303.960938 239.03125 305.355469 C 238.847656 306.753906 238.734375 308.15625 238.683594 309.5625 C 238.632812 310.972656 238.652344 312.378906 238.734375 313.785156 C 238.816406 315.191406 238.964844 316.589844 239.183594 317.984375 C 239.398438 319.375 239.679688 320.753906 240.023438 322.121094 C 240.371094 323.488281 240.777344 324.832031 241.25 326.160156 C 241.722656 327.488281 242.257812 328.789062 242.855469 330.066406 C 243.449219 331.34375 244.105469 332.589844 244.820312 333.804688 C 245.53125 335.019531 246.300781 336.199219 247.125 337.339844 C 247.949219 338.484375 248.828125 339.582031 249.757812 340.644531 C 250.683594 341.703125 251.660156 342.714844 252.6875 343.683594 C 253.710938 344.652344 254.777344 345.566406 255.890625 346.433594 C 257 347.300781 258.148438 348.113281 259.335938 348.871094 C 260.523438 349.628906 261.746094 350.332031 263 350.972656 C 264.253906 351.617188 265.535156 352.199219 266.84375 352.722656 C 268.152344 353.242188 269.484375 353.703125 270.835938 354.097656 C 272.1875 354.496094 273.554688 354.828125 274.941406 355.09375 C 276.324219 355.359375 277.714844 355.5625 279.117188 355.699219 C 280.523438 355.835938 281.925781 355.902344 283.335938 355.90625 C 286.15625 355.898438 288.953125 355.636719 291.726562 355.113281 C 292.242188 356 292.78125 356.871094 293.34375 357.726562 C 293.910156 358.582031 294.5 359.417969 295.113281 360.238281 C 295.722656 361.0625 296.359375 361.863281 297.019531 362.648438 C 297.679688 363.433594 298.359375 364.199219 299.0625 364.945312 C 299.765625 365.691406 300.488281 366.417969 301.234375 367.121094 C 301.976562 367.828125 302.742188 368.511719 303.523438 369.171875 C 304.308594 369.832031 305.109375 370.46875 305.929688 371.082031 C 306.75 371.699219 307.589844 372.289062 308.441406 372.855469 C 309.296875 373.421875 310.164062 373.964844 311.050781 374.480469 C 311.9375 375 312.835938 375.488281 313.75 375.957031 C 314.660156 376.421875 315.585938 376.859375 316.527344 377.273438 C 317.464844 377.683594 318.414062 378.070312 319.375 378.425781 C 320.335938 378.785156 321.304688 379.117188 322.285156 379.417969 C 323.265625 379.71875 324.25 379.992188 325.246094 380.238281 C 326.242188 380.484375 327.242188 380.703125 328.25 380.890625 C 329.257812 381.078125 330.269531 381.238281 331.289062 381.367188 C 332.304688 381.5 333.324219 381.601562 334.347656 381.671875 C 335.367188 381.742188 336.394531 381.785156 337.417969 381.800781 C 338.441406 381.8125 339.46875 381.796875 340.492188 381.75 C 341.515625 381.703125 342.539062 381.628906 343.558594 381.527344 C 344.578125 381.421875 345.59375 381.289062 346.605469 381.125 C 347.617188 380.964844 348.625 380.773438 349.625 380.550781 C 350.625 380.332031 351.621094 380.082031 352.605469 379.804688 C 353.59375 379.527344 354.570312 379.222656 355.542969 378.890625 C 356.511719 378.558594 357.46875 378.195312 358.417969 377.808594 C 359.367188 377.421875 360.304688 377.003906 361.230469 376.5625 C 362.152344 376.121094 363.066406 375.652344 363.964844 375.160156 C 364.863281 374.664062 365.746094 374.144531 366.613281 373.601562 C 367.480469 373.058594 368.332031 372.488281 369.167969 371.894531 C 370.003906 371.300781 370.824219 370.683594 371.621094 370.042969 C 372.421875 369.402344 373.203125 368.738281 373.964844 368.054688 C 374.730469 367.371094 375.472656 366.664062 376.191406 365.933594 C 377.890625 368.886719 379.730469 371.746094 381.710938 374.515625 C 383.691406 377.28125 385.800781 379.949219 388.046875 382.507812 C 390.289062 385.066406 392.65625 387.511719 395.140625 389.835938 C 397.625 392.164062 400.21875 394.363281 402.921875 396.433594 C 405.625 398.5 408.425781 400.433594 411.320312 402.226562 C 414.210938 404.019531 417.1875 405.667969 420.246094 407.164062 C 423.300781 408.664062 426.425781 410.011719 429.613281 411.199219 C 432.804688 412.390625 436.042969 413.421875 439.335938 414.292969 C 432.417969 404.285156 427.429688 393.398438 424.363281 381.628906 C 425.527344 382.375 426.726562 383.0625 427.957031 383.691406 C 429.1875 384.324219 430.449219 384.894531 431.734375 385.40625 C 433.019531 385.914062 434.328125 386.363281 435.65625 386.75 C 436.988281 387.132812 438.332031 387.453125 439.691406 387.710938 C 441.050781 387.964844 442.421875 388.15625 443.800781 388.28125 C 445.175781 388.40625 446.558594 388.464844 447.941406 388.457031 C 449.328125 388.449219 450.707031 388.375 452.082031 388.234375 C 453.460938 388.097656 454.828125 387.890625 456.183594 387.621094 C 457.542969 387.347656 458.882812 387.011719 460.207031 386.613281 C 461.53125 386.214844 462.835938 385.753906 464.117188 385.226562 C 465.398438 384.703125 466.648438 384.117188 467.875 383.472656 C 469.097656 382.828125 470.289062 382.128906 471.449219 381.371094 C 472.605469 380.609375 473.722656 379.796875 474.800781 378.933594 C 475.882812 378.066406 476.917969 377.152344 477.910156 376.1875 C 478.902344 375.222656 479.84375 374.210938 480.738281 373.15625 C 481.632812 372.097656 482.476562 371.003906 483.265625 369.867188 C 487.535156 371.160156 491.902344 371.804688 496.363281 371.796875 C 497.578125 371.792969 498.792969 371.742188 500.003906 371.644531 C 501.214844 371.542969 502.417969 371.394531 503.621094 371.199219 C 504.820312 371 506.007812 370.757812 507.1875 370.464844 C 508.367188 370.171875 509.535156 369.832031 510.6875 369.449219 C 511.839844 369.0625 512.976562 368.628906 514.09375 368.152344 C 515.210938 367.675781 516.308594 367.15625 517.382812 366.589844 C 518.460938 366.023438 519.511719 365.417969 520.539062 364.765625 C 521.566406 364.117188 522.566406 363.425781 523.539062 362.699219 C 524.507812 361.96875 525.449219 361.199219 526.359375 360.394531 C 527.269531 359.589844 528.144531 358.746094 528.988281 357.871094 C 529.832031 356.996094 530.636719 356.085938 531.40625 355.148438 C 532.175781 354.207031 532.90625 353.234375 533.597656 352.238281 C 534.289062 351.238281 534.941406 350.210938 535.550781 349.160156 C 536.160156 348.109375 536.726562 347.035156 537.246094 345.9375 C 537.769531 344.839844 538.25 343.722656 538.683594 342.589844 C 539.117188 341.453125 539.503906 340.300781 539.84375 339.136719 C 540.183594 337.96875 540.476562 336.789062 540.722656 335.601562 C 540.96875 334.410156 541.167969 333.210938 541.316406 332.003906 C 541.464844 330.800781 541.566406 329.589844 541.621094 328.375 C 541.671875 327.160156 541.675781 325.945312 541.632812 324.734375 C 541.585938 323.519531 541.492188 322.308594 541.351562 321.101562 C 541.207031 319.894531 541.015625 318.695312 540.777344 317.503906 C 540.539062 316.3125 540.253906 315.132812 539.917969 313.960938 C 539.585938 312.792969 539.207031 311.640625 538.78125 310.503906 C 538.355469 309.363281 537.882812 308.246094 537.367188 307.144531 C 536.851562 306.042969 536.289062 304.96875 535.6875 303.910156 C 535.085938 302.855469 534.441406 301.828125 533.753906 300.824219 C 533.070312 299.820312 532.34375 298.84375 531.582031 297.898438 C 530.816406 296.953125 530.015625 296.042969 529.179688 295.160156 C 528.34375 294.277344 527.472656 293.433594 526.566406 292.621094 C 525.660156 291.8125 524.726562 291.035156 523.757812 290.300781 C 522.789062 289.566406 521.796875 288.871094 520.773438 288.214844 Z M 478.683594 336.121094 C 478.683594 336.894531 478.605469 337.660156 478.457031 338.421875 C 478.304688 339.179688 478.082031 339.917969 477.785156 340.632812 C 477.488281 341.347656 477.125 342.03125 476.695312 342.671875 C 476.265625 343.316406 475.773438 343.914062 475.226562 344.460938 C 474.679688 345.007812 474.082031 345.496094 473.4375 345.929688 C 472.792969 346.359375 472.113281 346.722656 471.398438 347.019531 C 470.683594 347.316406 469.945312 347.539062 469.1875 347.6875 C 468.425781 347.839844 467.660156 347.914062 466.882812 347.914062 L 326.542969 347.914062 C 325.769531 347.914062 325.003906 347.839844 324.246094 347.6875 C 323.484375 347.535156 322.75 347.308594 322.035156 347.011719 C 321.320312 346.714844 320.640625 346.351562 320 345.921875 C 319.355469 345.492188 318.761719 345.003906 318.214844 344.453125 C 317.667969 343.90625 317.179688 343.3125 316.75 342.667969 C 316.320312 342.023438 315.957031 341.34375 315.660156 340.628906 C 315.363281 339.914062 315.140625 339.179688 314.988281 338.417969 C 314.839844 337.660156 314.765625 336.894531 314.765625 336.121094 L 314.765625 322.214844 L 308.503906 322.214844 C 308.105469 322.214844 307.714844 322.175781 307.324219 322.097656 C 306.933594 322.019531 306.558594 321.90625 306.191406 321.753906 C 305.824219 321.601562 305.476562 321.414062 305.144531 321.195312 C 304.816406 320.972656 304.511719 320.722656 304.230469 320.445312 C 303.949219 320.164062 303.699219 319.859375 303.476562 319.527344 C 303.257812 319.199219 303.070312 318.851562 302.921875 318.484375 C 302.769531 318.117188 302.652344 317.738281 302.574219 317.351562 C 302.5 316.960938 302.460938 316.566406 302.460938 316.171875 L 302.460938 289.585938 C 302.460938 289.1875 302.5 288.792969 302.574219 288.40625 C 302.652344 288.015625 302.769531 287.636719 302.921875 287.273438 C 303.070312 286.90625 303.257812 286.558594 303.476562 286.226562 C 303.699219 285.898438 303.949219 285.59375 304.230469 285.3125 C 304.511719 285.03125 304.816406 284.78125 305.144531 284.558594 C 305.476562 284.339844 305.824219 284.152344 306.191406 284 C 306.558594 283.851562 306.933594 283.734375 307.324219 283.65625 C 307.714844 283.582031 308.105469 283.542969 308.503906 283.542969 L 314.765625 283.542969 L 314.765625 269.636719 C 314.765625 268.859375 314.839844 268.09375 314.992188 267.332031 C 315.140625 266.574219 315.367188 265.835938 315.660156 265.121094 C 315.957031 264.40625 316.320312 263.726562 316.753906 263.082031 C 317.183594 262.4375 317.671875 261.839844 318.21875 261.292969 C 318.765625 260.746094 319.363281 260.257812 320.007812 259.828125 C 320.652344 259.398438 321.332031 259.035156 322.046875 258.738281 C 322.761719 258.441406 323.5 258.214844 324.261719 258.066406 C 325.019531 257.914062 325.789062 257.839844 326.5625 257.839844 L 466.902344 257.839844 C 467.675781 257.839844 468.445312 257.914062 469.203125 258.066406 C 469.964844 258.214844 470.703125 258.441406 471.417969 258.738281 C 472.132812 259.035156 472.8125 259.398438 473.457031 259.828125 C 474.101562 260.257812 474.695312 260.746094 475.246094 261.292969 C 475.792969 261.839844 476.28125 262.4375 476.710938 263.082031 C 477.140625 263.726562 477.507812 264.40625 477.800781 265.121094 C 478.097656 265.835938 478.324219 266.574219 478.472656 267.332031 C 478.625 268.09375 478.699219 268.859375 478.699219 269.636719 Z M 478.683594 336.121094 " fill-opacity="1" fill-rule="nonzero"/><path fill="#333132" d="M 461.128906 270.175781 L 411.101562 270.175781 L 449.292969 335.6875 L 461.128906 335.6875 C 461.476562 335.6875 461.816406 335.652344 462.15625 335.585938 C 462.496094 335.519531 462.824219 335.417969 463.144531 335.285156 C 463.464844 335.152344 463.769531 334.992188 464.054688 334.800781 C 464.34375 334.605469 464.609375 334.390625 464.855469 334.144531 C 465.097656 333.898438 465.316406 333.632812 465.507812 333.347656 C 465.699219 333.058594 465.863281 332.753906 465.996094 332.4375 C 466.128906 332.117188 466.226562 331.785156 466.296875 331.449219 C 466.363281 331.109375 466.398438 330.765625 466.398438 330.421875 L 466.398438 275.390625 C 466.394531 275.046875 466.355469 274.707031 466.285156 274.371094 C 466.214844 274.03125 466.113281 273.707031 465.980469 273.390625 C 465.847656 273.074219 465.683594 272.773438 465.492188 272.488281 C 465.296875 272.203125 465.078125 271.941406 464.835938 271.699219 C 464.589844 271.457031 464.324219 271.242188 464.039062 271.050781 C 463.753906 270.863281 463.449219 270.703125 463.132812 270.570312 C 462.816406 270.441406 462.488281 270.34375 462.148438 270.277344 C 461.8125 270.210938 461.472656 270.175781 461.128906 270.175781 Z M 461.128906 270.175781 " fill-opacity="1" fill-rule="nonzero"/><path fill="#333132" d="M 394 335.632812 L 438 335.632812 L 399.828125 270.121094 L 355.824219 270.121094 Z M 394 335.632812 " fill-opacity="1" fill-rule="nonzero"/><path fill="#333132" d="M 344.53125 270.175781 L 332.300781 270.175781 C 331.953125 270.175781 331.609375 270.210938 331.273438 270.277344 C 330.933594 270.34375 330.601562 270.445312 330.285156 270.578125 C 329.964844 270.710938 329.660156 270.871094 329.371094 271.0625 C 329.085938 271.257812 328.820312 271.472656 328.574219 271.71875 C 328.328125 271.964844 328.113281 272.230469 327.917969 272.515625 C 327.726562 272.804688 327.566406 273.109375 327.433594 273.425781 C 327.300781 273.746094 327.199219 274.078125 327.132812 274.414062 C 327.066406 274.753906 327.03125 275.097656 327.03125 275.441406 L 327.03125 330.367188 C 327.03125 330.710938 327.066406 331.054688 327.132812 331.394531 C 327.199219 331.734375 327.300781 332.0625 327.433594 332.382812 C 327.566406 332.699219 327.726562 333.003906 327.917969 333.292969 C 328.113281 333.578125 328.328125 333.84375 328.574219 334.089844 C 328.820312 334.335938 329.085938 334.554688 329.371094 334.746094 C 329.660156 334.9375 329.964844 335.097656 330.285156 335.230469 C 330.601562 335.363281 330.933594 335.464844 331.273438 335.53125 C 331.609375 335.597656 331.953125 335.632812 332.300781 335.632812 L 382.707031 335.632812 Z M 344.53125 270.175781 " fill-opacity="1" fill-rule="nonzero"/></svg>