<svg xmlns="http://www.w3.org/2000/svg" xmlns:xlink="http://www.w3.org/1999/xlink" width="1024" zoomAndPan="magnify" viewBox="0 0 768 767.999994" height="1024" preserveAspectRatio="xMidYMid meet" version="1.0"><defs><g/><clipPath id="c8c0c9e730"><path d="M 118.460938 118.460938 L 649.460938 118.460938 L 649.460938 649.460938 L 118.460938 649.460938 Z M 118.460938 118.460938 " clip-rule="nonzero"/></clipPath><clipPath id="25aa6dbaea"><path d="M 383.996094 118.460938 C 237.34375 118.460938 118.460938 237.34375 118.460938 383.996094 C 118.460938 530.648438 237.34375 649.53125 383.996094 649.53125 C 530.648438 649.53125 649.53125 530.648438 649.53125 383.996094 C 649.53125 237.34375 530.648438 118.460938 383.996094 118.460938 Z M 383.996094 118.460938 " clip-rule="nonzero"/></clipPath><clipPath id="297602d9b3"><path d="M 205.828125 205.828125 L 562.078125 205.828125 L 562.078125 562.078125 L 205.828125 562.078125 Z M 205.828125 205.828125 " clip-rule="nonzero"/></clipPath><clipPath id="18c9c50242"><path d="M 384 205.828125 C 285.597656 205.828125 205.828125 285.597656 205.828125 384 C 205.828125 482.402344 285.597656 562.171875 384 562.171875 C 482.402344 562.171875 562.171875 482.402344 562.171875 384 C 562.171875 285.597656 482.402344 205.828125 384 205.828125 Z M 384 205.828125 " clip-rule="nonzero"/></clipPath></defs><g clip-path="url(#c8c0c9e730)"><g clip-path="url(#25aa6dbaea)"><path stroke-linecap="butt" transform="matrix(0.75, 0, 0, 0.75, 118.46038, 118.460397)" fill="none" stroke-linejoin="miter" d="M 354.047635 0.000720215 C 158.511167 0.000720215 0.000742882 158.511145 0.000742882 354.047613 C 0.000742882 549.584081 158.511167 708.094505 354.047635 708.094505 C 549.584103 708.094505 708.094528 549.584081 708.094528 354.047613 C 708.094528 158.511145 549.584103 0.000720215 354.047635 0.000720215 Z M 354.047635 0.000720215 " stroke="#000000" stroke-width="8" stroke-opacity="1" stroke-miterlimit="4"/></g></g><g clip-path="url(#297602d9b3)"><g clip-path="url(#18c9c50242)"><path stroke-linecap="butt" transform="matrix(0.75, 0, 0, 0.75, 205.827562, 205.827579)" fill="none" stroke-linejoin="miter" d="M 237.563248 0.000728512 C 106.360125 0.000728512 0.000751179 106.360102 0.000751179 237.563225 C 0.000751179 368.766348 106.360125 475.125722 237.563248 475.125722 C 368.766371 475.125722 475.125744 368.766348 475.125744 237.563225 C 475.125744 106.360102 368.766371 0.000728512 237.563248 0.000728512 Z M 237.563248 0.000728512 " stroke="#000000" stroke-width="12" stroke-opacity="1" stroke-miterlimit="4"/></g></g><g fill="#000000" fill-opacity="1"><g transform="translate(219.391598, 258.213158)"><g><path d="M 8.65625 -19.578125 L 1.484375 -11.40625 L 4.546875 -5.1875 L 0.34375 -0.40625 L -15.515625 -33.9375 L -15.265625 -34.203125 L 20.0625 -22.875 L 15.140625 -17.25 Z M 3.15625 -21.546875 L -4.921875 -24.421875 L -1.09375 -16.6875 Z M 3.15625 -21.546875 "/></g></g></g><g fill="#000000" fill-opacity="1"><g transform="translate(243.311533, 231.573037)"><g><path d="M 16 -10.90625 C 17.207031 -11.769531 18.390625 -12.222656 19.546875 -12.265625 C 20.710938 -12.316406 21.675781 -11.867188 22.4375 -10.921875 C 23.445312 -9.671875 23.691406 -8.289062 23.171875 -6.78125 C 22.648438 -5.269531 21.632812 -3.910156 20.125 -2.703125 C 18.414062 -1.328125 16.648438 -0.765625 14.828125 -1.015625 L 14.765625 -4.109375 C 15.234375 -4.023438 15.722656 -4.039062 16.234375 -4.15625 C 16.742188 -4.28125 17.203125 -4.507812 17.609375 -4.84375 C 18.046875 -5.195312 18.378906 -5.644531 18.609375 -6.1875 C 18.835938 -6.738281 18.796875 -7.210938 18.484375 -7.609375 C 17.867188 -8.367188 16.953125 -8.253906 15.734375 -7.265625 C 15.265625 -6.890625 14.664062 -6.207031 13.9375 -5.21875 L 11.453125 -6.96875 L 12.1875 -9.671875 C 9.75 -8.328125 7.253906 -7.625 4.703125 -7.5625 C 2.160156 -7.5 -0.226562 -8.023438 -2.46875 -9.140625 C -4.71875 -10.253906 -6.679688 -11.859375 -8.359375 -13.953125 C -10.421875 -16.515625 -11.738281 -19.21875 -12.3125 -22.0625 C -12.882812 -24.914062 -12.6875 -27.65625 -11.71875 -30.28125 C -10.75 -32.90625 -9.035156 -35.203125 -6.578125 -37.171875 C -5.035156 -38.410156 -3.4375 -39.351562 -1.78125 -40 C -0.132812 -40.644531 1.429688 -41.050781 2.921875 -41.21875 L 4.765625 -34.890625 C 1.816406 -34.816406 -0.609375 -34.007812 -2.515625 -32.46875 C -3.816406 -31.425781 -4.742188 -30.085938 -5.296875 -28.453125 C -5.859375 -26.828125 -5.972656 -25.125 -5.640625 -23.34375 C -5.316406 -21.5625 -4.550781 -19.921875 -3.34375 -18.421875 C -2.019531 -16.773438 -0.550781 -15.585938 1.0625 -14.859375 C 2.675781 -14.128906 4.335938 -13.878906 6.046875 -14.109375 C 7.765625 -14.347656 9.394531 -15.085938 10.9375 -16.328125 C 12.1875 -17.335938 13.144531 -18.441406 13.8125 -19.640625 C 14.488281 -20.835938 14.890625 -21.953125 15.015625 -22.984375 L 20.734375 -20.15625 C 20.554688 -19.289062 20.070312 -18.128906 19.28125 -16.671875 C 18.488281 -15.210938 17.421875 -13.828125 16.078125 -12.515625 Z M 16 -10.90625 "/></g></g></g><g fill="#000000" fill-opacity="1"><g transform="translate(272.071759, 209.612597)"><g><path d="M -7.6875 -33.546875 L 9.15625 -5.484375 L 3.625 -2.171875 L -13.21875 -30.234375 Z M -7.6875 -33.546875 "/></g></g></g><g fill="#000000" fill-opacity="1"><g transform="translate(289.240142, 199.072901)"><g><path d="M 2.125 -22.03125 L 2.53125 -23.5625 L 7.625 -38.828125 L 15.3125 -42.109375 L 8.625 -23.3125 L 28.203125 -12.015625 L 20.671875 -8.8125 L 5.890625 -17.6875 L 5.0625 -15.59375 L 9.90625 -4.21875 L 3.875 -1.65625 L -8.96875 -31.765625 L -2.9375 -34.328125 L 1.640625 -23.609375 Z M 2.125 -22.03125 "/></g></g></g><g fill="#000000" fill-opacity="1"><g transform="translate(323.169071, 185.61971)"><g/></g></g><g fill="#000000" fill-opacity="1"><g transform="translate(342.594913, 180.590479)"><g><path d="M 5.046875 -34.046875 L 10.515625 -1.78125 L 4.15625 -0.703125 L -1.3125 -32.96875 Z M -2.296875 -38.015625 C -2.441406 -38.890625 -2.222656 -39.679688 -1.640625 -40.390625 C -1.054688 -41.109375 -0.328125 -41.539062 0.546875 -41.6875 C 1.398438 -41.832031 2.210938 -41.660156 2.984375 -41.171875 C 3.765625 -40.691406 4.226562 -40.015625 4.375 -39.140625 C 4.519531 -38.253906 4.304688 -37.460938 3.734375 -36.765625 C 3.160156 -36.066406 2.445312 -35.644531 1.59375 -35.5 C 0.71875 -35.351562 -0.109375 -35.515625 -0.890625 -35.984375 C -1.679688 -36.453125 -2.148438 -37.128906 -2.296875 -38.015625 Z M -2.296875 -38.015625 "/></g></g></g><g fill="#000000" fill-opacity="1"><g transform="translate(362.494298, 177.114652)"><g><path d="M 9.453125 -33.109375 L 10.4375 -6.625 L 25.8125 -7.203125 L 26.046875 -0.96875 L 4.21875 -0.15625 L 3 -32.875 Z M 9.453125 -33.109375 "/></g></g></g><g fill="#000000" fill-opacity="1"><g transform="translate(395.928729, 176.237206)"><g><path d="M 30.515625 -29.078125 L 29.71875 -22.90625 L 13.953125 -24.9375 L 13.0625 -18.015625 L 27.015625 -16.21875 L 26.234375 -10.03125 L 12.28125 -11.828125 L 11.375 -4.828125 L 27.765625 -2.71875 L 26.96875 3.46875 L 4.1875 0.53125 L 8.359375 -31.9375 Z M 30.515625 -29.078125 "/></g></g></g><g fill="#000000" fill-opacity="1"><g transform="translate(430.173456, 181.184685)"><g><path d="M 32.34375 -24.578125 L 30.59375 -18.609375 L 22.96875 -20.859375 L 15.453125 4.5625 L 9.265625 2.734375 L 16.78125 -22.6875 L 9.4375 -24.859375 L 11.1875 -30.828125 Z M 32.34375 -24.578125 "/></g></g></g><g fill="#000000" fill-opacity="1"><g transform="translate(460.065316, 190.724357)"><g><path d="M 22.90625 -25.703125 L 9.78125 4.28125 L 3.859375 1.6875 L 16.984375 -28.296875 Z M 18.921875 -33.046875 C 19.273438 -33.859375 19.894531 -34.398438 20.78125 -34.671875 C 21.664062 -34.953125 22.515625 -34.914062 23.328125 -34.5625 C 24.117188 -34.21875 24.703125 -33.628906 25.078125 -32.796875 C 25.460938 -31.960938 25.476562 -31.140625 25.125 -30.328125 C 24.769531 -29.503906 24.160156 -28.957031 23.296875 -28.6875 C 22.429688 -28.425781 21.601562 -28.46875 20.8125 -28.8125 C 20 -29.164062 19.390625 -29.753906 18.984375 -30.578125 C 18.585938 -31.398438 18.566406 -32.222656 18.921875 -33.046875 Z M 18.921875 -33.046875 "/></g></g></g><g fill="#000000" fill-opacity="1"><g transform="translate(478.624331, 198.835289)"><g><path d="M 23.421875 -7.9375 C 24.460938 -6.664062 25.269531 -5.4375 25.84375 -4.25 C 26.414062 -3.0625 26.6875 -1.734375 26.65625 -0.265625 C 26.625 1.191406 26.109375 2.765625 25.109375 4.453125 C 24.035156 6.253906 22.503906 7.519531 20.515625 8.25 C 18.523438 8.976562 16.332031 8.972656 13.9375 8.234375 L 11.375 9.046875 C 12.601562 9.890625 13.441406 10.847656 13.890625 11.921875 C 14.335938 13.003906 14.25 14.066406 13.625 15.109375 C 12.8125 16.484375 11.609375 17.1875 10.015625 17.21875 C 8.421875 17.25 6.796875 16.773438 5.140625 15.796875 C 3.253906 14.671875 2.101562 13.207031 1.6875 11.40625 L 4.578125 10.296875 C 4.660156 10.753906 4.847656 11.195312 5.140625 11.625 C 5.429688 12.0625 5.804688 12.414062 6.265625 12.6875 C 6.742188 12.976562 7.28125 13.132812 7.875 13.15625 C 8.46875 13.175781 8.890625 12.972656 9.140625 12.546875 C 9.640625 11.703125 9.210938 10.878906 7.859375 10.078125 C 7.347656 9.765625 6.507812 9.445312 5.34375 9.125 L 6.09375 6.171875 L 9.296875 5.859375 C 6.367188 3.773438 4.210938 1.160156 2.828125 -1.984375 L 7.84375 -4.84375 C 8.382812 -3.550781 9.144531 -2.304688 10.125 -1.109375 C 11.113281 0.0859375 12.101562 0.984375 13.09375 1.578125 C 14.257812 2.273438 15.421875 2.632812 16.578125 2.65625 C 17.742188 2.675781 18.660156 2.128906 19.328125 1.015625 C 20.191406 -0.441406 19.578125 -2.519531 17.484375 -5.21875 C 16.273438 -6.8125 15.304688 -8.21875 14.578125 -9.4375 C 13.859375 -10.65625 13.4375 -12.046875 13.3125 -13.609375 C 13.1875 -15.171875 13.617188 -16.78125 14.609375 -18.4375 C 16.046875 -20.84375 18.003906 -22.3125 20.484375 -22.84375 C 22.960938 -23.382812 25.5625 -22.925781 28.28125 -21.46875 C 30.375 -20.21875 31.976562 -18.9375 33.09375 -17.625 C 34.21875 -16.320312 35.179688 -14.84375 35.984375 -13.1875 L 31.359375 -10.21875 C 29.722656 -13.03125 28 -14.972656 26.1875 -16.046875 C 24.957031 -16.773438 23.859375 -17.09375 22.890625 -17 C 21.929688 -16.914062 21.164062 -16.390625 20.59375 -15.421875 C 20.0625 -14.535156 20.085938 -13.460938 20.671875 -12.203125 C 21.253906 -10.941406 22.171875 -9.519531 23.421875 -7.9375 Z M 23.421875 -7.9375 "/></g></g></g><g fill="#000000" fill-opacity="1"><g transform="translate(505.112215, 215.411876)"><g><path d="M 28.546875 -19.25 L 8.40625 6.5625 L 3.328125 2.59375 L 23.46875 -23.21875 Z M 26.515625 -27.328125 C 27.066406 -28.023438 27.800781 -28.398438 28.71875 -28.453125 C 29.644531 -28.503906 30.457031 -28.257812 31.15625 -27.71875 C 31.84375 -27.1875 32.265625 -26.46875 32.421875 -25.5625 C 32.585938 -24.65625 32.394531 -23.851562 31.84375 -23.15625 C 31.300781 -22.457031 30.578125 -22.082031 29.671875 -22.03125 C 28.765625 -21.988281 27.96875 -22.234375 27.28125 -22.765625 C 26.582031 -23.304688 26.144531 -24.023438 25.96875 -24.921875 C 25.789062 -25.828125 25.972656 -26.628906 26.515625 -27.328125 Z M 26.515625 -27.328125 "/></g></g></g><g fill="#000000" fill-opacity="1"><g transform="translate(521.26748, 227.130771)"><g><path d="M 50.765625 4.75 L 25.734375 27.875 L 21.375 23.140625 L 32.84375 12.546875 L 14.453125 14.984375 L 14.390625 14.9375 L 17.84375 -2.265625 L 7.09375 7.671875 L 2.859375 3.09375 L 27.890625 -20.03125 L 27.921875 -19.984375 L 21.90625 8.171875 L 50.71875 4.6875 Z M 50.765625 4.75 "/></g></g></g><g fill="#000000" fill-opacity="1"><g transform="translate(227.979403, 550.124192)"><g><path d="M 1.890625 -0.765625 L 3.640625 -2.65625 L 4.359375 -2 L 2.875 -0.390625 C 2.9375 0.222656 3.109375 0.847656 3.390625 1.484375 C 3.671875 2.128906 4.132812 2.753906 4.78125 3.359375 C 5.175781 3.722656 5.617188 4.015625 6.109375 4.234375 C 6.597656 4.460938 7.09375 4.59375 7.59375 4.625 C 8.09375 4.65625 8.582031 4.582031 9.0625 4.40625 C 9.539062 4.238281 9.976562 3.941406 10.375 3.515625 C 10.851562 2.992188 11.15625 2.484375 11.28125 1.984375 C 11.40625 1.484375 11.425781 0.992188 11.34375 0.515625 C 11.257812 0.0351562 11.09375 -0.4375 10.84375 -0.90625 C 10.601562 -1.375 10.34375 -1.84375 10.0625 -2.3125 C 9.78125 -2.789062 9.507812 -3.265625 9.25 -3.734375 C 9 -4.210938 8.820312 -4.695312 8.71875 -5.1875 C 8.613281 -5.6875 8.617188 -6.179688 8.734375 -6.671875 C 8.847656 -7.171875 9.128906 -7.691406 9.578125 -8.234375 C 9.910156 -8.648438 10.316406 -9 10.796875 -9.28125 C 11.285156 -9.570312 11.804688 -9.753906 12.359375 -9.828125 C 12.921875 -9.898438 13.5 -9.84375 14.09375 -9.65625 C 14.695312 -9.46875 15.296875 -9.101562 15.890625 -8.5625 C 16.085938 -8.375 16.296875 -8.160156 16.515625 -7.921875 C 16.734375 -7.679688 16.941406 -7.414062 17.140625 -7.125 C 17.335938 -6.832031 17.503906 -6.507812 17.640625 -6.15625 C 17.773438 -5.8125 17.867188 -5.441406 17.921875 -5.046875 L 16.140625 -3.125 L 15.4375 -3.78125 L 16.890625 -5.34375 C 16.785156 -5.6875 16.597656 -6.082031 16.328125 -6.53125 C 16.066406 -6.976562 15.695312 -7.425781 15.21875 -7.875 C 14.789062 -8.257812 14.363281 -8.519531 13.9375 -8.65625 C 13.507812 -8.800781 13.082031 -8.859375 12.65625 -8.828125 C 12.226562 -8.796875 11.820312 -8.671875 11.4375 -8.453125 C 11.0625 -8.242188 10.726562 -7.984375 10.4375 -7.671875 C 10.039062 -7.234375 9.800781 -6.796875 9.71875 -6.359375 C 9.644531 -5.929688 9.675781 -5.492188 9.8125 -5.046875 C 9.945312 -4.597656 10.144531 -4.140625 10.40625 -3.671875 C 10.664062 -3.210938 10.929688 -2.738281 11.203125 -2.25 C 11.484375 -1.769531 11.738281 -1.273438 11.96875 -0.765625 C 12.195312 -0.265625 12.335938 0.25 12.390625 0.78125 C 12.453125 1.3125 12.394531 1.859375 12.21875 2.421875 C 12.050781 2.984375 11.695312 3.566406 11.15625 4.171875 C 10.675781 4.691406 10.140625 5.070312 9.546875 5.3125 C 8.953125 5.5625 8.34375 5.679688 7.71875 5.671875 C 7.101562 5.660156 6.488281 5.519531 5.875 5.25 C 5.269531 4.976562 4.710938 4.609375 4.203125 4.140625 C 3.742188 3.710938 3.359375 3.269531 3.046875 2.8125 C 2.734375 2.351562 2.488281 1.90625 2.3125 1.46875 C 2.144531 1.039062 2.03125 0.628906 1.96875 0.234375 C 1.914062 -0.148438 1.890625 -0.484375 1.890625 -0.765625 Z M 1.890625 -0.765625 "/></g></g></g><g fill="#000000" fill-opacity="1"><g transform="translate(242.372129, 563.027729)"><g><path d="M 1.265625 -0.25 L 2.65625 0.8125 L 11.8125 -11.125 L 10.421875 -12.1875 L 11.015625 -12.953125 L 20.390625 -5.75 L 18.125 -2.796875 L 17.359375 -3.390625 L 19.03125 -5.578125 L 12.59375 -10.515625 L 8.359375 -4.984375 L 14.8125 -0.03125 L 14.21875 0.734375 L 7.765625 -4.21875 L 3.4375 1.421875 L 10.140625 6.5625 L 11.828125 4.359375 L 12.59375 4.953125 L 10.3125 7.921875 L 0.671875 0.515625 Z M 1.265625 -0.25 "/></g></g></g><g fill="#000000" fill-opacity="1"><g transform="translate(259.735426, 575.885375)"><g><path d="M 1.234375 -0.375 L 2.71875 0.546875 L 10.703125 -12.203125 L 9.21875 -13.125 L 9.734375 -13.9375 L 19.75 -7.671875 L 17.765625 -4.515625 L 16.953125 -5.03125 L 18.421875 -7.375 L 11.546875 -11.671875 L 7.84375 -5.765625 L 14.734375 -1.453125 L 14.21875 -0.625 L 7.328125 -4.9375 L 3.5625 1.078125 L 5.375 2.21875 L 4.859375 3.046875 L 0.71875 0.453125 Z M 1.234375 -0.375 "/></g></g></g><g fill="#000000" fill-opacity="1"><g transform="translate(277.952419, 586.850236)"><g><path d="M 1.1875 -0.484375 L 2.75 0.296875 L 9.484375 -13.171875 L 7.921875 -13.953125 L 8.359375 -14.8125 L 18.9375 -9.515625 L 17.265625 -6.171875 L 16.40625 -6.609375 L 17.640625 -9.09375 L 10.390625 -12.71875 L 7.265625 -6.484375 L 14.53125 -2.84375 L 14.09375 -1.96875 L 6.828125 -5.609375 L 3.65625 0.75 L 5.5625 1.703125 L 5.125 2.5625 L 0.75 0.375 Z M 1.1875 -0.484375 "/></g></g></g><g fill="#000000" fill-opacity="1"><g transform="translate(297.151682, 596.17091)"><g><path d="M 1.140625 -0.609375 L 2.890625 0.03125 C 4.984375 -2.1875 7.070312 -4.394531 9.15625 -6.59375 C 11.238281 -8.789062 13.328125 -11.003906 15.421875 -13.234375 C 15.546875 -10.179688 15.675781 -7.140625 15.8125 -4.109375 C 15.957031 -1.085938 16.101562 1.941406 16.25 4.984375 L 18.03125 5.640625 L 17.6875 6.546875 L 13.28125 4.921875 L 13.625 4.015625 L 15.28125 4.625 C 15.226562 3.476562 15.175781 2.34375 15.125 1.21875 C 15.070312 0.09375 15.019531 -1.050781 14.96875 -2.21875 L 8.5625 -4.59375 C 7.757812 -3.738281 6.972656 -2.898438 6.203125 -2.078125 C 5.429688 -1.253906 4.65625 -0.425781 3.875 0.40625 L 5.53125 1.015625 L 5.1875 1.921875 L 0.796875 0.296875 Z M 14.59375 -10.40625 L 14.640625 -11.109375 C 14.578125 -11.078125 14.492188 -10.984375 14.390625 -10.828125 C 14.328125 -10.742188 14.253906 -10.65625 14.171875 -10.5625 C 13.867188 -10.226562 13.523438 -9.851562 13.140625 -9.4375 C 12.753906 -9.019531 12.34375 -8.582031 11.90625 -8.125 C 11.476562 -7.664062 11.039062 -7.195312 10.59375 -6.71875 C 10.15625 -6.25 9.722656 -5.789062 9.296875 -5.34375 L 14.90625 -3.265625 Z M 14.59375 -10.40625 "/></g></g></g><g fill="#000000" fill-opacity="1"><g transform="translate(323.152327, 605.171631)"><g><path d="M 1.046875 -0.734375 L 2.75 -0.3125 L 6.40625 -14.90625 L 4.703125 -15.328125 L 4.9375 -16.265625 L 16.421875 -13.390625 L 15.515625 -9.78125 L 14.5625 -10.015625 L 15.234375 -12.6875 L 7.375 -14.65625 L 5.6875 -7.90625 L 13.5625 -5.9375 L 13.328125 -4.984375 L 5.453125 -6.953125 L 3.71875 -0.0625 L 5.796875 0.453125 L 5.5625 1.390625 L 0.8125 0.203125 Z M 1.046875 -0.734375 "/></g></g></g><g fill="#000000" fill-opacity="1"><g transform="translate(343.804705, 609.900325)"><g/></g></g><g fill="#000000" fill-opacity="1"><g transform="translate(358.623564, 612.236348)"><g><path d="M 2.140625 -16.875 L 7.015625 -16.5 L 6.9375 -15.53125 L 4.9375 -15.6875 L 4.140625 -5.265625 C 4.078125 -4.484375 4.140625 -3.789062 4.328125 -3.1875 C 4.523438 -2.582031 4.8125 -2.0625 5.1875 -1.625 C 5.570312 -1.1875 6.046875 -0.84375 6.609375 -0.59375 C 7.171875 -0.34375 7.789062 -0.191406 8.46875 -0.140625 C 9.15625 -0.0859375 9.789062 -0.140625 10.375 -0.296875 C 10.96875 -0.460938 11.488281 -0.734375 11.9375 -1.109375 C 12.394531 -1.484375 12.757812 -1.953125 13.03125 -2.515625 C 13.3125 -3.085938 13.484375 -3.765625 13.546875 -4.546875 L 14.34375 -14.96875 L 12.34375 -15.125 L 12.421875 -16.09375 L 17.296875 -15.71875 L 17.21875 -14.75 L 15.34375 -14.890625 L 14.546875 -4.390625 C 14.472656 -3.460938 14.265625 -2.65625 13.921875 -1.96875 C 13.585938 -1.289062 13.144531 -0.734375 12.59375 -0.296875 C 12.039062 0.140625 11.40625 0.453125 10.6875 0.640625 C 9.96875 0.828125 9.203125 0.890625 8.390625 0.828125 C 7.578125 0.765625 6.832031 0.585938 6.15625 0.296875 C 5.488281 0.00390625 4.914062 -0.394531 4.4375 -0.90625 C 3.96875 -1.425781 3.613281 -2.050781 3.375 -2.78125 C 3.132812 -3.507812 3.050781 -4.335938 3.125 -5.265625 L 3.921875 -15.765625 L 2.0625 -15.90625 Z M 2.140625 -16.875 "/></g></g></g><g fill="#000000" fill-opacity="1"><g transform="translate(383.308881, 613.715174)"><g><path d="M 6.640625 -1.21875 L 8.4375 -1.28125 L 8.234375 -6.75 C 7.203125 -8.3125 6.179688 -9.867188 5.171875 -11.421875 C 4.171875 -12.972656 3.160156 -14.53125 2.140625 -16.09375 L 0.25 -16.03125 L 0.21875 -17 L 5.109375 -17.1875 L 5.140625 -16.21875 L 3.359375 -16.140625 C 5.078125 -13.535156 6.78125 -10.929688 8.46875 -8.328125 L 8.78125 -7.65625 L 8.8125 -7.65625 L 9.046875 -8.34375 L 13.515625 -16.515625 L 11.765625 -16.453125 L 11.734375 -17.421875 L 16.609375 -17.609375 L 16.640625 -16.640625 L 14.75 -16.5625 C 13.851562 -14.914062 12.960938 -13.28125 12.078125 -11.65625 C 11.203125 -10.039062 10.316406 -8.421875 9.421875 -6.796875 L 9.625 -1.328125 L 11.5 -1.390625 L 11.53125 -0.421875 L 6.671875 -0.25 Z M 6.640625 -1.21875 "/></g></g></g><g fill="#000000" fill-opacity="1"><g transform="translate(409.179698, 612.247768)"><g><path d="M 12.734375 -9.171875 L 13.640625 -2.96875 C 13.046875 -2.507812 12.398438 -2.117188 11.703125 -1.796875 C 11.015625 -1.472656 10.265625 -1.25 9.453125 -1.125 C 8.265625 -0.945312 7.117188 -1.003906 6.015625 -1.296875 C 4.910156 -1.597656 3.910156 -2.082031 3.015625 -2.75 C 2.128906 -3.414062 1.382812 -4.238281 0.78125 -5.21875 C 0.175781 -6.195312 -0.210938 -7.273438 -0.390625 -8.453125 C -0.566406 -9.640625 -0.503906 -10.785156 -0.203125 -11.890625 C 0.0976562 -13.003906 0.578125 -14.003906 1.234375 -14.890625 C 1.898438 -15.785156 2.71875 -16.535156 3.6875 -17.140625 C 4.664062 -17.742188 5.75 -18.132812 6.9375 -18.3125 C 7.75 -18.4375 8.53125 -18.445312 9.28125 -18.34375 C 10.039062 -18.25 10.785156 -18.054688 11.515625 -17.765625 L 11.0625 -16.875 C 10.457031 -17.125 9.816406 -17.289062 9.140625 -17.375 C 8.460938 -17.46875 7.773438 -17.460938 7.078125 -17.359375 C 6.035156 -17.210938 5.082031 -16.867188 4.21875 -16.328125 C 3.363281 -15.785156 2.640625 -15.113281 2.046875 -14.3125 C 1.460938 -13.507812 1.039062 -12.613281 0.78125 -11.625 C 0.53125 -10.644531 0.484375 -9.625 0.640625 -8.5625 C 0.796875 -7.519531 1.132812 -6.566406 1.65625 -5.703125 C 2.1875 -4.847656 2.84375 -4.128906 3.625 -3.546875 C 4.414062 -2.960938 5.289062 -2.535156 6.25 -2.265625 C 7.21875 -2.003906 8.222656 -1.953125 9.265625 -2.109375 C 10.472656 -2.285156 11.566406 -2.71875 12.546875 -3.40625 L 11.859375 -8.078125 L 8.421875 -7.5625 L 8.28125 -8.515625 Z M 12.734375 -9.171875 "/></g></g></g><g fill="#000000" fill-opacity="1"><g transform="translate(431.467859, 608.627113)"><g><path d="M -3.40625 -16.65625 L 1.34375 -17.875 L 1.59375 -16.9375 L -0.34375 -16.4375 L 2.25 -6.3125 C 2.4375 -5.550781 2.710938 -4.914062 3.078125 -4.40625 C 3.453125 -3.90625 3.890625 -3.503906 4.390625 -3.203125 C 4.898438 -2.910156 5.457031 -2.734375 6.0625 -2.671875 C 6.675781 -2.617188 7.316406 -2.675781 7.984375 -2.84375 C 8.648438 -3.007812 9.234375 -3.265625 9.734375 -3.609375 C 10.242188 -3.960938 10.648438 -4.390625 10.953125 -4.890625 C 11.253906 -5.390625 11.445312 -5.953125 11.53125 -6.578125 C 11.613281 -7.203125 11.5625 -7.894531 11.375 -8.65625 L 8.78125 -18.78125 L 6.84375 -18.28125 L 6.59375 -19.21875 L 11.328125 -20.4375 L 11.578125 -19.5 L 9.765625 -19.03125 L 12.375 -8.828125 C 12.601562 -7.929688 12.660156 -7.101562 12.546875 -6.34375 C 12.441406 -5.582031 12.195312 -4.90625 11.8125 -4.3125 C 11.4375 -3.726562 10.941406 -3.226562 10.328125 -2.8125 C 9.710938 -2.40625 9.007812 -2.101562 8.21875 -1.90625 C 7.425781 -1.695312 6.664062 -1.625 5.9375 -1.6875 C 5.207031 -1.75 4.535156 -1.945312 3.921875 -2.28125 C 3.304688 -2.625 2.769531 -3.101562 2.3125 -3.71875 C 1.851562 -4.332031 1.507812 -5.085938 1.28125 -5.984375 L -1.328125 -16.1875 L -3.15625 -15.71875 Z M -3.40625 -16.65625 "/></g></g></g><g fill="#000000" fill-opacity="1"><g transform="translate(455.244842, 602.034902)"><g><path d="M 0.453125 -1.203125 L 2.03125 -1.78125 L -3.1875 -15.890625 L -4.765625 -15.3125 L -5.09375 -16.21875 L -0.703125 -17.84375 L -0.375 -16.9375 L -2.265625 -16.234375 L 2.953125 -2.125 L 10.875 -5.0625 L 9.921875 -7.65625 L 10.84375 -7.984375 L 12.140625 -4.484375 L 0.796875 -0.296875 Z M 0.453125 -1.203125 "/></g></g></g><g fill="#000000" fill-opacity="1"><g transform="translate(475.420459, 594.287299)"><g><path d="M 0.3125 -1.234375 L 2 -2.078125 C 1.800781 -5.128906 1.609375 -8.164062 1.421875 -11.1875 C 1.242188 -14.207031 1.054688 -17.242188 0.859375 -20.296875 C 3.171875 -18.304688 5.476562 -16.332031 7.78125 -14.375 C 10.09375 -12.414062 12.410156 -10.441406 14.734375 -8.453125 L 16.421875 -9.296875 L 16.859375 -8.4375 L 12.671875 -6.34375 L 12.234375 -7.203125 L 13.8125 -8 C 12.945312 -8.738281 12.085938 -9.476562 11.234375 -10.21875 C 10.378906 -10.957031 9.5 -11.703125 8.59375 -12.453125 L 2.484375 -9.390625 C 2.566406 -8.234375 2.644531 -7.085938 2.71875 -5.953125 C 2.789062 -4.828125 2.863281 -3.691406 2.9375 -2.546875 L 4.515625 -3.328125 L 4.953125 -2.46875 L 0.75 -0.375 Z M 2.359375 -17.765625 L 1.875 -18.265625 C 1.863281 -18.222656 1.878906 -18.101562 1.921875 -17.90625 C 1.929688 -17.789062 1.941406 -17.675781 1.953125 -17.5625 C 1.992188 -17.113281 2.035156 -16.609375 2.078125 -16.046875 C 2.117188 -15.484375 2.160156 -14.882812 2.203125 -14.25 C 2.242188 -13.625 2.285156 -12.984375 2.328125 -12.328125 C 2.378906 -11.679688 2.421875 -11.050781 2.453125 -10.4375 L 7.796875 -13.125 Z M 2.359375 -17.765625 "/></g></g></g><g fill="#000000" fill-opacity="1"><g transform="translate(499.96265, 581.556297)"><g><path d="M 7.015625 -25.28125 L 9.125 -26.71875 L 9.671875 -25.90625 L 8.046875 -24.796875 L 16.484375 -12.34375 L 18.171875 -13.484375 L 18.71875 -12.6875 L 14.671875 -9.953125 L 14.125 -10.75 L 15.640625 -11.78125 L 8.359375 -22.53125 C 8.347656 -22.550781 8.316406 -22.597656 8.265625 -22.671875 C 8.222656 -22.753906 8.175781 -22.835938 8.125 -22.921875 C 8.070312 -23.015625 8.019531 -23.101562 7.96875 -23.1875 C 7.914062 -23.269531 7.878906 -23.320312 7.859375 -23.34375 C 7.847656 -23.257812 7.84375 -23.148438 7.84375 -23.015625 C 7.851562 -22.890625 7.847656 -22.75 7.828125 -22.59375 C 7.816406 -21.988281 7.78125 -21.1875 7.71875 -20.1875 C 7.65625 -19.195312 7.59375 -18.128906 7.53125 -16.984375 C 7.46875 -15.847656 7.394531 -14.6875 7.3125 -13.5 C 7.238281 -12.320312 7.179688 -11.257812 7.140625 -10.3125 C 5.390625 -10.894531 3.90625 -11.390625 2.6875 -11.796875 C 1.476562 -12.203125 0.425781 -12.550781 -0.46875 -12.84375 C -1.363281 -13.144531 -2.144531 -13.40625 -2.8125 -13.625 C -3.476562 -13.84375 -4.125 -14.054688 -4.75 -14.265625 L -5.25 -14.46875 C -5.15625 -14.320312 -5.054688 -14.1875 -4.953125 -14.0625 C -4.859375 -13.945312 -4.757812 -13.828125 -4.65625 -13.703125 L 2.625 -2.953125 L 4.203125 -4.015625 L 4.75 -3.21875 L 0.703125 -0.46875 L 0.15625 -1.265625 L 1.78125 -2.375 L -6.65625 -14.828125 L -8.28125 -13.71875 L -8.828125 -14.53125 L -6.71875 -15.96875 C -6.4375 -15.875 -6.015625 -15.734375 -5.453125 -15.546875 C -4.898438 -15.359375 -4.265625 -15.144531 -3.546875 -14.90625 C -2.835938 -14.664062 -2.0625 -14.40625 -1.21875 -14.125 C -0.382812 -13.84375 0.460938 -13.5625 1.328125 -13.28125 C 2.191406 -13 3.039062 -12.722656 3.875 -12.453125 C 4.71875 -12.179688 5.5 -11.925781 6.21875 -11.6875 C 6.351562 -13.945312 6.476562 -16.207031 6.59375 -18.46875 C 6.71875 -20.738281 6.859375 -23.007812 7.015625 -25.28125 Z M 7.015625 -25.28125 "/></g></g></g><g fill="#000000" fill-opacity="1"><g transform="translate(525.576009, 563.400552)"><g><path d="M -0.015625 -1.28125 L 1.390625 -2.53125 C 0.410156 -5.425781 -0.5625 -8.304688 -1.53125 -11.171875 C -2.5 -14.046875 -3.472656 -16.929688 -4.453125 -19.828125 C -1.710938 -18.503906 1.023438 -17.195312 3.765625 -15.90625 C 6.515625 -14.625 9.269531 -13.328125 12.03125 -12.015625 L 13.4375 -13.265625 L 14.078125 -12.546875 L 10.578125 -9.421875 L 9.9375 -10.140625 L 11.25 -11.328125 C 10.21875 -11.816406 9.191406 -12.300781 8.171875 -12.78125 C 7.148438 -13.269531 6.113281 -13.765625 5.0625 -14.265625 L -0.03125 -9.71875 C 0.332031 -8.613281 0.695312 -7.523438 1.0625 -6.453125 C 1.4375 -5.390625 1.804688 -4.3125 2.171875 -3.21875 L 3.484375 -4.40625 L 4.125 -3.6875 L 0.625 -0.5625 Z M -2.34375 -17.75 L -2.953125 -18.140625 C -2.953125 -18.078125 -2.90625 -17.953125 -2.8125 -17.765625 C -2.769531 -17.679688 -2.726562 -17.578125 -2.6875 -17.453125 C -2.539062 -17.046875 -2.367188 -16.570312 -2.171875 -16.03125 C -1.984375 -15.488281 -1.789062 -14.921875 -1.59375 -14.328125 C -1.394531 -13.734375 -1.1875 -13.128906 -0.96875 -12.515625 C -0.75 -11.910156 -0.546875 -11.3125 -0.359375 -10.71875 L 4.109375 -14.703125 Z M -2.34375 -17.75 "/></g></g></g><path stroke-linecap="butt" transform="matrix(0.75, 0, 0, 0.75, 329.045699, 321.885239)" fill="none" stroke-linejoin="miter" d="M 0.00156837 2.001973 L 142.209909 2.001973 " stroke="#000000" stroke-width="4" stroke-opacity="1" stroke-miterlimit="4"/><path stroke-linecap="butt" transform="matrix(0.000000001309, 0.75, -0.75, 0.000000001309, 332.040133, 344.397219)" fill="none" stroke-linejoin="miter" d="M 0.00162472 2.001427 L 134.157881 2.001428 " stroke="#000000" stroke-width="4" stroke-opacity="1" stroke-miterlimit="4"/><path stroke-linecap="butt" transform="matrix(0.749953, 0.00836322, -0.00836322, 0.749953, 330.562429, 442.008358)" fill="none" stroke-linejoin="miter" d="M 0.00155637 1.99938 L 132.311857 1.997951 " stroke="#000000" stroke-width="4" stroke-opacity="1" stroke-miterlimit="4"/><path stroke-linecap="butt" transform="matrix(0.0182162, 0.749779, -0.749779, 0.0182162, 437.591693, 382.911563)" fill="none" stroke-linejoin="miter" d="M 0.00168339 1.997888 L 74.721586 2.000206 " stroke="#000000" stroke-width="4" stroke-opacity="1" stroke-miterlimit="4"/><path stroke-linecap="butt" transform="matrix(-0.75, 0, 0, -0.75, 434.633693, 385.946545)" fill="none" stroke-linejoin="miter" d="M 0.00117466 2.001643 L 74.725137 2.001643 " stroke="#000000" stroke-width="4" stroke-opacity="1" stroke-miterlimit="4"/><path stroke-linecap="butt" transform="matrix(0.0294231, 0.749423, -0.749423, 0.0294231, 436.391765, 323.38143)" fill="none" stroke-linejoin="miter" d="M 0.00158937 1.997913 L 42.403945 1.999933 " stroke="#000000" stroke-width="4" stroke-opacity="1" stroke-miterlimit="4"/></svg>