<svg xmlns="http://www.w3.org/2000/svg" xmlns:xlink="http://www.w3.org/1999/xlink" width="500" zoomAndPan="magnify" viewBox="0 0 375 374.999991" height="500" preserveAspectRatio="xMidYMid meet" version="1.0"><defs><g/><clipPath id="f3e1f940ac"><path d="M 78.277344 172.078125 L 298.222656 172.078125 L 298.222656 197.695312 L 78.277344 197.695312 Z M 78.277344 172.078125 " clip-rule="nonzero"/></clipPath></defs><rect x="-37.5" width="450" fill="#ffffff" y="-37.499999" height="449.999989" fill-opacity="1"/><rect x="-37.5" width="450" fill="#ffffff" y="-37.499999" height="449.999989" fill-opacity="1"/><path stroke-linecap="butt" transform="matrix(0.00181951, -0.749998, 0.749998, 0.00181951, 187.12366, 259.034016)" fill="none" stroke-linejoin="miter" d="M -0.000303268 0.501789 L 206.099269 0.501788 " stroke="#000000" stroke-width="1" stroke-opacity="1" stroke-miterlimit="4"/><g fill="#000000" fill-opacity="1"><g transform="translate(81.439261, 228.61954)"><g><path d="M 5.527344 -46.054688 C 5.527344 -18.421875 23.578125 1.84375 46.515625 1.84375 C 59.6875 1.84375 70.644531 -4.789062 77.648438 -16.394531 L 77.648438 -29.660156 C 77.648438 -44.394531 64.476562 -46.054688 51.855469 -46.054688 C 40.25 -46.054688 29.015625 -44.578125 29.015625 -50.75 C 29.015625 -55.082031 34.265625 -57.015625 39.976562 -57.015625 C 49.09375 -57.015625 61.527344 -48.171875 72.582031 -48.171875 C 78.292969 -48.171875 83.355469 -51.394531 81.882812 -57.199219 C 81.882812 -57.199219 81.605469 -54.433594 75.160156 -54.433594 C 63.277344 -54.433594 55.726562 -62.816406 42 -62.816406 C 36.472656 -62.816406 28 -59.039062 28 -51.210938 C 28 -45.777344 33.25 -44.949219 39.976562 -44.949219 C 52.316406 -44.949219 69.726562 -47.621094 69.726562 -29.660156 L 69.726562 -16.671875 C 69.726562 -13.355469 62.726562 0.738281 46.515625 0.738281 C 28.738281 0.738281 13.816406 -19.160156 13.816406 -46.054688 C 13.816406 -72.949219 27.449219 -92.84375 46.515625 -92.84375 C 66.226562 -92.84375 71.84375 -77.371094 71.84375 -77.371094 L 72.765625 -77.371094 L 72.765625 -89.710938 C 65.671875 -92.109375 57.84375 -93.949219 46.515625 -93.949219 C 23.578125 -93.949219 5.527344 -73.6875 5.527344 -46.054688 Z M 5.527344 -46.054688 "/></g></g></g><g fill="#000000" fill-opacity="1"><g transform="translate(193.249277, 228.61954)"><g><path d="M 2.761719 -92.109375 L 2.761719 -91.1875 C 10.683594 -91.1875 11.238281 -84.648438 11.238281 -66.5 L 11.238281 -25.605469 C 11.238281 -7.460938 10.683594 -0.921875 2.761719 -0.921875 L 2.761719 0 L 27.632812 0 L 27.632812 -0.921875 C 19.710938 -0.921875 12.15625 -7.554688 12.15625 -34.355469 L 12.15625 -46.054688 L 12.25 -85.566406 C 26.25 -55.539062 34.539062 -37.671875 49 -6.722656 L 49.832031 -6.722656 C 61.160156 -37.121094 70.460938 -62.449219 80.410156 -89.066406 L 80.410156 -25.605469 C 80.410156 -7.460938 79.855469 -0.921875 71.9375 -0.921875 L 71.9375 0 L 96.804688 0 L 96.804688 -0.921875 C 88.882812 -0.921875 88.332031 -7.460938 88.332031 -25.605469 L 88.332031 -66.5 C 88.332031 -84.648438 88.882812 -91.1875 96.804688 -91.1875 L 96.804688 -92.109375 L 80.59375 -92.109375 L 52.960938 -17.867188 L 17.59375 -92.109375 Z M 2.761719 -92.109375 "/></g></g></g><g clip-path="url(#f3e1f940ac)"><path fill="#ffffff" d="M 78.277344 172.078125 L 298.21875 172.078125 L 298.21875 197.695312 L 78.277344 197.695312 Z M 78.277344 172.078125 " fill-opacity="1" fill-rule="nonzero"/></g><g fill="#000000" fill-opacity="1"><g transform="translate(85.85192, 189.572433)"><g><path d="M 8.828125 -5.078125 L 9.859375 -5.078125 L 9.859375 -1.203125 C 9.378906 -0.785156 8.8125 -0.460938 8.15625 -0.234375 C 7.507812 -0.015625 6.832031 0.09375 6.125 0.09375 C 5.101562 0.09375 4.1875 -0.128906 3.375 -0.578125 C 2.5625 -1.023438 1.921875 -1.644531 1.453125 -2.4375 C 0.984375 -3.226562 0.75 -4.109375 0.75 -5.078125 C 0.75 -6.054688 0.984375 -6.941406 1.453125 -7.734375 C 1.921875 -8.523438 2.5625 -9.144531 3.375 -9.59375 C 4.1875 -10.039062 5.101562 -10.265625 6.125 -10.265625 C 6.90625 -10.265625 7.617188 -10.140625 8.265625 -9.890625 C 8.910156 -9.640625 9.457031 -9.273438 9.90625 -8.796875 L 9.234375 -8.109375 C 8.429688 -8.898438 7.410156 -9.296875 6.171875 -9.296875 C 5.347656 -9.296875 4.601562 -9.113281 3.9375 -8.75 C 3.28125 -8.382812 2.757812 -7.878906 2.375 -7.234375 C 2 -6.597656 1.8125 -5.878906 1.8125 -5.078125 C 1.8125 -4.285156 2 -3.566406 2.375 -2.921875 C 2.757812 -2.285156 3.28125 -1.785156 3.9375 -1.421875 C 4.59375 -1.054688 5.332031 -0.875 6.15625 -0.875 C 7.207031 -0.875 8.097656 -1.132812 8.828125 -1.65625 Z M 8.828125 -5.078125 "/></g></g></g><g fill="#000000" fill-opacity="1"><g transform="translate(101.710186, 189.572433)"><g><path d="M 5.75 0.09375 C 4.4375 0.09375 3.410156 -0.28125 2.671875 -1.03125 C 1.929688 -1.789062 1.5625 -2.894531 1.5625 -4.34375 L 1.5625 -10.171875 L 2.640625 -10.171875 L 2.640625 -4.390625 C 2.640625 -3.203125 2.90625 -2.316406 3.4375 -1.734375 C 3.976562 -1.160156 4.75 -0.875 5.75 -0.875 C 6.769531 -0.875 7.546875 -1.160156 8.078125 -1.734375 C 8.609375 -2.316406 8.875 -3.203125 8.875 -4.390625 L 8.875 -10.171875 L 9.921875 -10.171875 L 9.921875 -4.34375 C 9.921875 -2.894531 9.554688 -1.789062 8.828125 -1.03125 C 8.097656 -0.28125 7.070312 0.09375 5.75 0.09375 Z M 4.453125 -11.328125 C 4.273438 -11.328125 4.125 -11.382812 4 -11.5 C 3.882812 -11.625 3.828125 -11.773438 3.828125 -11.953125 C 3.828125 -12.128906 3.882812 -12.273438 4 -12.390625 C 4.125 -12.515625 4.273438 -12.578125 4.453125 -12.578125 C 4.617188 -12.578125 4.765625 -12.515625 4.890625 -12.390625 C 5.015625 -12.273438 5.078125 -12.128906 5.078125 -11.953125 C 5.078125 -11.785156 5.015625 -11.640625 4.890625 -11.515625 C 4.773438 -11.390625 4.628906 -11.328125 4.453125 -11.328125 Z M 7.046875 -11.328125 C 6.867188 -11.328125 6.71875 -11.390625 6.59375 -11.515625 C 6.476562 -11.640625 6.421875 -11.785156 6.421875 -11.953125 C 6.421875 -12.128906 6.484375 -12.273438 6.609375 -12.390625 C 6.734375 -12.515625 6.878906 -12.578125 7.046875 -12.578125 C 7.222656 -12.578125 7.367188 -12.515625 7.484375 -12.390625 C 7.609375 -12.273438 7.671875 -12.128906 7.671875 -11.953125 C 7.671875 -11.773438 7.609375 -11.625 7.484375 -11.5 C 7.367188 -11.382812 7.222656 -11.328125 7.046875 -11.328125 Z M 7.046875 -11.328125 "/></g></g></g><g fill="#000000" fill-opacity="1"><g transform="translate(117.844323, 189.572433)"><g><path d="M 10.15625 -10.171875 L 10.15625 0 L 9.265625 0 L 2.734375 -8.25 L 2.734375 0 L 1.65625 0 L 1.65625 -10.171875 L 2.546875 -10.171875 L 9.09375 -1.921875 L 9.09375 -10.171875 Z M 10.15625 -10.171875 "/></g></g></g><g fill="#000000" fill-opacity="1"><g transform="translate(134.283365, 189.572433)"><g><path d="M 1.65625 -10.171875 L 5.796875 -10.171875 C 6.867188 -10.171875 7.816406 -9.953125 8.640625 -9.515625 C 9.460938 -9.085938 10.101562 -8.488281 10.5625 -7.71875 C 11.019531 -6.945312 11.25 -6.066406 11.25 -5.078125 C 11.25 -4.097656 11.019531 -3.222656 10.5625 -2.453125 C 10.101562 -1.679688 9.460938 -1.078125 8.640625 -0.640625 C 7.816406 -0.210938 6.867188 0 5.796875 0 L 1.65625 0 Z M 5.734375 -0.9375 C 6.628906 -0.9375 7.410156 -1.109375 8.078125 -1.453125 C 8.742188 -1.804688 9.257812 -2.296875 9.625 -2.921875 C 10 -3.546875 10.1875 -4.265625 10.1875 -5.078125 C 10.1875 -5.898438 10 -6.625 9.625 -7.25 C 9.257812 -7.875 8.742188 -8.359375 8.078125 -8.703125 C 7.410156 -9.054688 6.628906 -9.234375 5.734375 -9.234375 L 2.734375 -9.234375 L 2.734375 -0.9375 Z M 5.734375 -0.9375 "/></g></g></g><g fill="#000000" fill-opacity="1"><g transform="translate(150.911166, 189.572433)"><g><path d="M 5.75 0.09375 C 4.4375 0.09375 3.410156 -0.28125 2.671875 -1.03125 C 1.929688 -1.789062 1.5625 -2.894531 1.5625 -4.34375 L 1.5625 -10.171875 L 2.640625 -10.171875 L 2.640625 -4.390625 C 2.640625 -3.203125 2.90625 -2.316406 3.4375 -1.734375 C 3.976562 -1.160156 4.75 -0.875 5.75 -0.875 C 6.769531 -0.875 7.546875 -1.160156 8.078125 -1.734375 C 8.609375 -2.316406 8.875 -3.203125 8.875 -4.390625 L 8.875 -10.171875 L 9.921875 -10.171875 L 9.921875 -4.34375 C 9.921875 -2.894531 9.554688 -1.789062 8.828125 -1.03125 C 8.097656 -0.28125 7.070312 0.09375 5.75 0.09375 Z M 4.453125 -11.328125 C 4.273438 -11.328125 4.125 -11.382812 4 -11.5 C 3.882812 -11.625 3.828125 -11.773438 3.828125 -11.953125 C 3.828125 -12.128906 3.882812 -12.273438 4 -12.390625 C 4.125 -12.515625 4.273438 -12.578125 4.453125 -12.578125 C 4.617188 -12.578125 4.765625 -12.515625 4.890625 -12.390625 C 5.015625 -12.273438 5.078125 -12.128906 5.078125 -11.953125 C 5.078125 -11.785156 5.015625 -11.640625 4.890625 -11.515625 C 4.773438 -11.390625 4.628906 -11.328125 4.453125 -11.328125 Z M 7.046875 -11.328125 C 6.867188 -11.328125 6.71875 -11.390625 6.59375 -11.515625 C 6.476562 -11.640625 6.421875 -11.785156 6.421875 -11.953125 C 6.421875 -12.128906 6.484375 -12.273438 6.609375 -12.390625 C 6.734375 -12.515625 6.878906 -12.578125 7.046875 -12.578125 C 7.222656 -12.578125 7.367188 -12.515625 7.484375 -12.390625 C 7.609375 -12.273438 7.671875 -12.128906 7.671875 -11.953125 C 7.671875 -11.773438 7.609375 -11.625 7.484375 -11.5 C 7.367188 -11.382812 7.222656 -11.328125 7.046875 -11.328125 Z M 7.046875 -11.328125 "/></g></g></g><g fill="#000000" fill-opacity="1"><g transform="translate(167.045303, 189.572433)"><g><path d="M 9 -0.9375 L 9 0 L 0.65625 0 L 0.65625 -0.734375 L 7.390625 -9.234375 L 0.75 -9.234375 L 0.75 -10.171875 L 8.828125 -10.171875 L 8.828125 -9.4375 L 2.09375 -0.9375 Z M 9 -0.9375 "/></g></g></g><g fill="#000000" fill-opacity="1"><g transform="translate(181.137074, 189.572433)"><g/></g></g><g fill="#000000" fill-opacity="1"><g transform="translate(189.575861, 189.572433)"><g/></g></g><g fill="#000000" fill-opacity="1"><g transform="translate(198.014648, 189.572433)"><g/></g></g><g fill="#000000" fill-opacity="1"><g transform="translate(206.461287, 189.572433)"><g><path d="M 12.21875 -10.171875 L 12.21875 0 L 11.1875 0 L 11.1875 -8.140625 L 7.1875 -1.296875 L 6.6875 -1.296875 L 2.6875 -8.09375 L 2.6875 0 L 1.65625 0 L 1.65625 -10.171875 L 2.546875 -10.171875 L 6.953125 -2.625 L 11.328125 -10.171875 Z M 12.21875 -10.171875 "/></g></g></g><g fill="#000000" fill-opacity="1"><g transform="translate(224.962096, 189.572433)"><g><path d="M 8.84375 -0.9375 L 8.84375 0 L 1.65625 0 L 1.65625 -10.171875 L 8.625 -10.171875 L 8.625 -9.234375 L 2.734375 -9.234375 L 2.734375 -5.625 L 7.984375 -5.625 L 7.984375 -4.703125 L 2.734375 -4.703125 L 2.734375 -0.9375 Z M 8.84375 -0.9375 "/></g></g></g><g fill="#000000" fill-opacity="1"><g transform="translate(239.310326, 189.572433)"><g><path d="M 1.65625 -10.171875 L 5.796875 -10.171875 C 6.867188 -10.171875 7.816406 -9.953125 8.640625 -9.515625 C 9.460938 -9.085938 10.101562 -8.488281 10.5625 -7.71875 C 11.019531 -6.945312 11.25 -6.066406 11.25 -5.078125 C 11.25 -4.097656 11.019531 -3.222656 10.5625 -2.453125 C 10.101562 -1.679688 9.460938 -1.078125 8.640625 -0.640625 C 7.816406 -0.210938 6.867188 0 5.796875 0 L 1.65625 0 Z M 5.734375 -0.9375 C 6.628906 -0.9375 7.410156 -1.109375 8.078125 -1.453125 C 8.742188 -1.804688 9.257812 -2.296875 9.625 -2.921875 C 10 -3.546875 10.1875 -4.265625 10.1875 -5.078125 C 10.1875 -5.898438 10 -6.625 9.625 -7.25 C 9.257812 -7.875 8.742188 -8.359375 8.078125 -8.703125 C 7.410156 -9.054688 6.628906 -9.234375 5.734375 -9.234375 L 2.734375 -9.234375 L 2.734375 -0.9375 Z M 5.734375 -0.9375 "/></g></g></g><g fill="#000000" fill-opacity="1"><g transform="translate(255.938127, 189.572433)"><g><path d="M 5.140625 -3.515625 L 5.140625 0 L 4.078125 0 L 4.078125 -3.515625 L 0.015625 -10.171875 L 1.15625 -10.171875 L 4.65625 -4.46875 L 8.140625 -10.171875 L 9.21875 -10.171875 Z M 5.140625 -3.515625 "/></g></g></g><g fill="#000000" fill-opacity="1"><g transform="translate(269.792692, 189.572433)"><g><path d="M 8.03125 -2.71875 L 2.375 -2.71875 L 1.140625 0 L 0.03125 0 L 4.671875 -10.171875 L 5.734375 -10.171875 L 10.390625 0 L 9.25 0 Z M 7.640625 -3.59375 L 5.203125 -9.046875 L 2.765625 -3.59375 Z M 7.640625 -3.59375 "/></g></g></g></svg>