<svg xmlns="http://www.w3.org/2000/svg" xmlns:xlink="http://www.w3.org/1999/xlink" width="1024" zoomAndPan="magnify" viewBox="0 0 768 767.999994" height="1024" preserveAspectRatio="xMidYMid meet" version="1.0"><defs><clipPath id="b6e5d53241"><path d="M 99.265625 229.085938 L 117.988281 229.085938 L 117.988281 563.648438 L 99.265625 563.648438 Z M 99.265625 229.085938 " clip-rule="nonzero"/></clipPath><clipPath id="d1409dd659"><path d="M 117.898438 232.726562 C 117 433.800781 113.925781 442.949219 112.351562 455.476562 C 110.851562 466.726562 109.648438 478.273438 108.976562 487.5 C 108.449219 494.625 108.300781 498.523438 108.148438 506.398438 C 107.925781 519.601562 109.949219 552.375 108.226562 559.425781 C 107.699219 561.375 107.25 562.199219 106.425781 562.875 C 105.675781 563.398438 104.699219 563.625 103.875 563.550781 C 103.050781 563.476562 102.074219 563.175781 101.398438 562.574219 C 100.648438 561.824219 99.898438 560.101562 99.976562 558.976562 C 100.125 557.851562 101.25 556.351562 102.148438 555.824219 C 102.898438 555.300781 103.949219 555.226562 104.773438 555.375 C 105.601562 555.523438 106.574219 555.898438 107.101562 556.648438 C 107.773438 557.476562 108.226562 559.273438 108.074219 560.324219 C 108 561.226562 107.398438 562.050781 106.726562 562.574219 C 106.125 563.101562 105.148438 563.476562 104.324219 563.550781 C 103.5 563.550781 102.449219 563.398438 101.773438 562.800781 C 100.949219 562.125 100.425781 561.375 99.976562 559.425781 C 98.023438 550.875 101.175781 503.925781 102.226562 486.976562 C 102.824219 477.75 103.199219 473.925781 104.175781 465.601562 C 105.601562 453.976562 109.199219 434.550781 110.476562 423.75 C 111.300781 417 111.601562 415.648438 111.898438 407.175781 C 112.949219 379.800781 108.449219 245.101562 110.625 232.800781 C 110.851562 231.300781 110.925781 230.925781 111.449219 230.324219 C 112.125 229.648438 113.699219 229.050781 114.675781 229.125 C 115.5 229.125 116.398438 229.648438 117 230.25 C 117.523438 230.851562 117.898438 232.726562 117.898438 232.726562 " clip-rule="nonzero"/></clipPath><clipPath id="3d750a99c6"><path d="M 112.167969 221.707031 L 636.300781 221.707031 L 636.300781 247.054688 L 112.167969 247.054688 Z M 112.167969 221.707031 " clip-rule="nonzero"/></clipPath><clipPath id="82c8c2e84c"><path d="M 115.726562 221.851562 C 288.375 221.625 296.101562 221.851562 307.800781 222.523438 C 319.425781 223.199219 327.300781 224.023438 342.300781 225.523438 C 370.5 228.226562 431.324219 236.550781 464.101562 238.726562 C 486.148438 240.226562 504.898438 240.074219 519.523438 240.148438 C 529.199219 240.226562 534.601562 240.300781 543.601562 239.773438 C 555.523438 238.949219 572.25 237.148438 584.625 235.199219 C 594.976562 233.625 606.449219 231.148438 612.976562 229.5 C 616.5 228.675781 618.148438 228.148438 621 227.101562 C 624.226562 225.824219 628.800781 222.601562 631.273438 222.375 C 632.550781 222.226562 633.523438 222.523438 634.351562 223.050781 C 635.101562 223.648438 635.851562 224.699219 636.148438 225.601562 C 636.375 226.574219 636.226562 227.851562 635.773438 228.75 C 635.324219 229.574219 634.425781 230.476562 633.449219 230.851562 C 632.476562 231.226562 630.898438 231.226562 629.925781 230.699219 C 628.875 230.101562 627.75 228.449219 627.523438 227.398438 C 627.300781 226.425781 627.449219 225.375 627.976562 224.625 C 628.648438 223.648438 630.300781 222.523438 631.425781 222.300781 C 632.398438 222.148438 633.449219 222.523438 634.199219 222.976562 C 634.949219 223.425781 635.625 224.324219 636 225.148438 C 636.300781 225.976562 636.449219 227.101562 636.074219 228 C 635.699219 229.050781 634.351562 230.550781 633.226562 230.925781 C 632.023438 231.300781 630.074219 230.851562 629.101562 230.175781 C 628.351562 229.648438 627.75 228.75 627.601562 227.851562 C 627.375 226.726562 627.75 224.699219 628.574219 223.800781 C 629.324219 222.898438 631.199219 222.300781 632.324219 222.375 C 633.375 222.375 634.5 223.125 635.101562 223.800781 C 635.625 224.25 635.925781 225 636.148438 225.601562 C 636.300781 226.273438 636.375 227.023438 636.148438 227.699219 C 635.851562 228.601562 635.25 229.574219 634.425781 230.324219 C 633.300781 231.300781 631.949219 231.976562 629.925781 232.800781 C 626.476562 234.300781 620.625 236.101562 615 237.523438 C 608.023438 239.175781 600.375 240.449219 591 241.726562 C 577.949219 243.523438 559.949219 245.625 543.898438 246.449219 C 527.101562 247.351562 507.148438 246.976562 492.449219 246.675781 C 481.425781 246.523438 476.398438 246.449219 463.5 245.476562 C 436.800781 243.449219 369.824219 235.050781 341.699219 232.273438 C 326.851562 230.851562 319.050781 230.023438 307.574219 229.351562 C 295.949219 228.675781 287.699219 228.449219 272.398438 228.226562 C 243.898438 227.773438 178.273438 228.074219 150.148438 228.449219 C 135.300781 228.601562 120.976562 229.949219 116.175781 229.273438 C 114.824219 229.050781 114.300781 228.976562 113.699219 228.449219 C 113.023438 228 112.5 227.023438 112.351562 226.199219 C 112.199219 225.449219 112.273438 224.324219 112.800781 223.648438 C 113.324219 222.824219 115.726562 221.851562 115.726562 221.851562 " clip-rule="nonzero"/></clipPath><clipPath id="7964b5bc03"><path d="M 104 223 L 634.640625 223 L 634.640625 586 L 104 586 Z M 104 223 " clip-rule="nonzero"/></clipPath><clipPath id="2817407bab"><path d="M 634.5 226.726562 C 633.976562 310.875 633.75 316.875 633.074219 325.125 C 632.398438 333.375 631.726562 338.925781 630.226562 349.949219 C 627.226562 372.074219 618 420.226562 614.550781 449.175781 C 611.851562 471.523438 610.273438 493.351562 609.523438 508.800781 C 609.148438 518.550781 608.324219 524.625 609.375 532.800781 C 610.5 541.425781 614.023438 550.875 616.5 559.273438 C 618.75 566.851562 622.875 577.425781 623.398438 580.800781 C 623.550781 581.773438 623.550781 582.074219 623.398438 582.75 C 623.101562 583.5 622.5 584.625 621.675781 585.074219 C 620.773438 585.675781 618.976562 585.976562 617.925781 585.523438 C 616.875 585.148438 616.800781 583.648438 615.449219 582.675781 C 612.523438 580.5 605.398438 577.351562 599.699219 575.324219 C 593.476562 573.148438 587.023438 571.875 579.226562 570.300781 C 569.023438 568.125 556.5 565.875 543.449219 564.074219 C 527.851562 561.898438 509.324219 559.949219 491.625 558.449219 C 472.949219 556.875 453.300781 555.898438 434.175781 555.074219 C 415.199219 554.324219 396.226562 553.726562 377.175781 553.574219 C 358.050781 553.351562 342.226562 553.273438 319.726562 553.875 C 287.476562 554.699219 232.5 558.449219 202.351562 559.574219 C 183.449219 560.25 163.5 560.851562 156.148438 560.773438 C 153.824219 560.773438 153.449219 560.773438 151.574219 560.550781 C 148.425781 560.101562 144.074219 558.226562 138.976562 557.699219 C 131.398438 556.800781 115.949219 560.175781 110.25 557.773438 C 107.175781 556.5 104.699219 553.648438 104.398438 551.773438 C 104.175781 550.425781 105.375 548.773438 106.273438 547.949219 C 106.949219 547.351562 108 546.976562 108.976562 547.125 C 110.175781 547.199219 111.976562 548.175781 112.648438 549.148438 C 113.25 549.898438 113.476562 551.023438 113.398438 551.925781 C 113.324219 552.824219 113.023438 553.875 112.351562 554.550781 C 111.449219 555.375 109.574219 556.125 108.375 556.050781 C 107.398438 556.050781 106.425781 555.449219 105.75 554.851562 C 105.148438 554.175781 104.625 553.199219 104.476562 552.300781 C 104.324219 551.398438 104.476562 550.273438 105 549.449219 C 105.601562 548.476562 107.25 547.199219 108.523438 547.125 C 109.726562 546.976562 111.601562 547.875 112.425781 548.699219 C 113.101562 549.449219 113.625 551.25 113.398438 551.398438 C 113.175781 551.625 110.023438 549.449219 110.25 548.773438 C 110.773438 547.273438 130.425781 548.851562 136.425781 549.300781 C 139.574219 549.523438 140.925781 549.675781 143.625 550.199219 C 147.226562 550.949219 152.773438 553.125 156.148438 553.648438 C 158.324219 553.949219 159 553.800781 161.699219 553.800781 C 168.976562 553.800781 185.023438 553.425781 201.976562 552.75 C 230.925781 551.699219 287.324219 547.800781 319.648438 546.898438 C 342.300781 546.300781 358.199219 546.375 377.398438 546.523438 C 396.523438 546.75 415.5 547.273438 434.625 548.023438 C 453.824219 548.851562 473.625 549.75 492.375 551.25 C 510.300781 552.675781 528.898438 554.625 544.726562 556.800781 C 557.925781 558.601562 570.523438 560.699219 581.023438 562.875 C 589.199219 564.523438 596.625 566.101562 602.699219 567.976562 C 607.199219 569.324219 611.324219 570.824219 614.25 572.398438 C 616.199219 573.449219 617.398438 574.425781 618.898438 575.699219 C 620.476562 577.125 622.949219 579.226562 623.398438 580.800781 C 623.699219 581.773438 623.398438 582.898438 623.023438 583.648438 C 622.726562 584.25 622.351562 584.773438 621.675781 585.074219 C 620.851562 585.601562 618.976562 585.898438 617.925781 585.523438 C 617.023438 585.226562 616.574219 584.851562 615.75 583.574219 C 612.824219 579 606.449219 555.074219 604.199219 545.699219 C 602.925781 540.300781 602.25 538.199219 601.949219 532.648438 C 601.273438 523.050781 602.625 506.625 603.601562 493.050781 C 604.574219 478.574219 605.550781 466.050781 607.800781 448.273438 C 611.175781 421.648438 620.398438 371.101562 623.398438 349.199219 C 624.824219 338.324219 625.5 332.925781 626.175781 324.75 C 626.773438 316.648438 627.074219 310.726562 627.300781 300.375 C 627.675781 282.449219 625.800781 234.226562 627.148438 226.726562 C 627.449219 225.300781 627.523438 224.925781 628.125 224.25 C 628.648438 223.648438 629.550781 223.125 630.375 223.050781 C 631.351562 222.976562 632.925781 223.574219 633.601562 224.25 C 634.199219 224.851562 634.5 226.726562 634.5 226.726562 " clip-rule="nonzero"/></clipPath><clipPath id="2cff21cf8e"><path d="M 117.203125 266.828125 L 625 266.828125 L 625 288.203125 L 117.203125 288.203125 Z M 117.203125 266.828125 " clip-rule="nonzero"/></clipPath><clipPath id="2d704a0839"><path d="M 120.898438 269.476562 C 233.476562 269.324219 256.949219 267.675781 276.523438 267.148438 C 291.824219 266.851562 306 266.851562 317.324219 266.851562 C 325.351562 266.851562 329.625 266.773438 337.949219 267.074219 C 351.074219 267.449219 370.050781 269.324219 388.425781 269.699219 C 410.476562 270.074219 446.25 267.976562 461.324219 268.648438 C 468.148438 268.949219 470.023438 269.398438 476.101562 270.226562 C 485.699219 271.5 497.851562 275.101562 513.300781 276.449219 C 538.273438 278.625 595.949219 275.925781 611.851562 277.273438 C 616.949219 277.726562 619.949219 278.175781 621.898438 279 C 622.875 279.375 623.25 279.675781 623.773438 280.273438 C 624.375 281.023438 624.898438 282.449219 624.976562 283.351562 C 624.976562 284.175781 624.898438 284.851562 624.375 285.523438 C 623.773438 286.5 621.898438 287.773438 620.851562 288 C 620.023438 288.226562 619.273438 288.226562 618.601562 287.773438 C 617.476562 286.875 615.601562 283.050781 615.976562 281.476562 C 616.273438 280.273438 618.148438 279 619.425781 278.773438 C 620.625 278.550781 622.648438 279.148438 623.550781 280.050781 C 624.523438 280.949219 624.976562 283.050781 624.824219 284.25 C 624.75 285.226562 624.074219 286.199219 623.398438 286.875 C 622.648438 287.476562 621.601562 288 620.625 288.074219 C 619.726562 288.074219 618.523438 287.925781 617.699219 287.324219 C 616.800781 286.574219 615.601562 284.773438 615.601562 283.5 C 615.523438 282.226562 616.648438 280.351562 617.550781 279.523438 C 618.300781 278.925781 619.425781 278.550781 620.398438 278.699219 C 621.601562 278.851562 623.476562 279.898438 624.226562 280.875 C 624.824219 281.625 625.125 283.726562 624.898438 283.726562 C 624.675781 283.875 621.75 279.148438 621.898438 279 C 622.050781 278.851562 623.925781 280.273438 624.375 281.175781 C 624.898438 282.074219 625.050781 283.5 624.824219 284.476562 C 624.601562 285.523438 623.773438 286.648438 622.949219 287.25 C 622.050781 287.773438 621.226562 287.925781 619.726562 288 C 616.425781 288.226562 610.875 286.351562 604.050781 285.898438 C 591.449219 285 566.398438 285.898438 550.050781 285.601562 C 536.398438 285.375 524.851562 285.675781 512.398438 284.398438 C 499.875 283.050781 485.773438 279.074219 475.125 277.726562 C 467.175781 276.675781 463.125 276.226562 454.199219 275.925781 C 438.375 275.25 408.75 276.898438 388.273438 276.449219 C 370.351562 276.074219 350.925781 274.199219 337.800781 273.824219 C 329.476562 273.523438 325.351562 273.601562 317.398438 273.601562 C 306.148438 273.601562 291.976562 273.601562 276.75 273.976562 C 257.175781 274.425781 233.550781 276.074219 209.625 276.601562 C 182.101562 277.125 129.226562 278.324219 120.898438 276.824219 C 119.476562 276.523438 119.023438 276.523438 118.425781 275.925781 C 117.75 275.175781 117.148438 273.675781 117.226562 272.699219 C 117.300781 271.875 117.824219 270.898438 118.425781 270.375 C 119.023438 269.851562 120.898438 269.476562 120.898438 269.476562 " clip-rule="nonzero"/></clipPath><clipPath id="a076a7f86b"><path d="M 580.039062 244.792969 L 598.171875 244.792969 L 598.171875 268.625 L 580.039062 268.625 Z M 580.039062 244.792969 " clip-rule="nonzero"/></clipPath><clipPath id="fc15375f7b"><path d="M 580.050781 259.050781 C 581.550781 252.226562 582.375 250.648438 583.5 249.226562 C 584.851562 247.726562 586.875 245.773438 588.675781 245.175781 C 590.175781 244.648438 591.898438 244.726562 593.324219 245.324219 C 594.898438 246 596.851562 247.726562 597.449219 249.300781 C 598.050781 250.875 596.625 254.550781 596.851562 254.925781 C 596.925781 254.925781 596.925781 254.851562 597 254.925781 C 597.300781 255.300781 598.574219 260.851562 597.898438 262.273438 C 597.523438 263.25 595.949219 263.324219 595.5 263.925781 C 595.199219 264.300781 595.351562 264.675781 594.976562 265.125 C 594.226562 265.949219 591.898438 267.300781 590.25 267.898438 C 588.523438 268.425781 586.351562 268.949219 584.773438 268.273438 C 582.898438 267.523438 580.5 264.148438 580.125 262.5 C 579.976562 261.601562 580.875 260.699219 580.726562 260.023438 C 580.648438 259.648438 580.050781 259.050781 580.050781 259.050781 " clip-rule="nonzero"/></clipPath><clipPath id="3cb95eb465"><path d="M 163.425781 232.003906 L 174.5 232.003906 L 174.5 261.042969 L 163.425781 261.042969 Z M 163.425781 232.003906 " clip-rule="nonzero"/></clipPath><clipPath id="027bd22844"><path d="M 173.476562 247.050781 C 172.273438 259.949219 170.699219 260.851562 169.425781 261 C 168.148438 261.148438 166.199219 260.324219 165.300781 259.425781 C 164.550781 258.675781 164.398438 257.851562 164.101562 256.273438 C 163.425781 252.601562 163.050781 240.824219 164.023438 236.851562 C 164.476562 234.976562 165 233.625 166.125 232.875 C 167.25 232.125 169.425781 231.898438 170.625 232.351562 C 171.898438 232.875 173.25 234.523438 173.550781 235.800781 C 173.851562 237.148438 173.25 239.25 172.351562 240.226562 C 171.449219 241.199219 169.351562 241.875 168.074219 241.648438 C 166.726562 241.425781 165 240.074219 164.476562 238.875 C 163.875 237.675781 164.023438 235.5 164.699219 234.375 C 165.375 233.25 167.324219 232.199219 168.601562 232.050781 C 169.574219 231.898438 170.773438 232.199219 171.523438 232.875 C 172.574219 233.625 173.25 234.898438 173.699219 236.851562 C 174.675781 240.976562 174.898438 253.648438 173.476562 257.398438 C 172.800781 259.199219 171.675781 260.175781 170.550781 260.699219 C 169.5 261.148438 168.074219 261 167.175781 260.699219 C 166.425781 260.476562 165.75 260.023438 165.300781 259.425781 C 164.699219 258.675781 164.324219 257.699219 164.101562 256.273438 C 163.726562 253.726562 163.726562 247.125 164.773438 244.949219 C 165.375 243.75 166.273438 243.148438 167.25 242.773438 C 168.148438 242.398438 169.5 242.398438 170.476562 242.773438 C 171.449219 243.148438 172.425781 244.125 172.949219 244.949219 C 173.324219 245.625 173.476562 247.050781 173.476562 247.050781 " clip-rule="nonzero"/></clipPath><clipPath id="f72d31aa34"><path d="M 206.792969 236.453125 L 256 236.453125 L 256 264 L 206.792969 264 Z M 206.792969 236.453125 " clip-rule="nonzero"/></clipPath><clipPath id="ddd45b227e"><path d="M 211.949219 242.550781 C 216.75 242.699219 217.875 245.773438 217.351562 246.449219 C 216.824219 247.125 212.851562 246.675781 212.699219 246.074219 C 212.550781 245.550781 216.148438 242.476562 216.824219 242.773438 C 217.5 243.148438 216.523438 246.375 216.898438 248.101562 C 217.425781 249.976562 218.699219 253.425781 219.75 253.574219 C 220.648438 253.648438 221.175781 250.5 222.75 249.675781 C 225.074219 248.324219 230.101562 249.601562 233.550781 248.398438 C 237.148438 247.199219 240.675781 242.851562 243.824219 242.398438 C 246.226562 242.023438 248.625 243.226562 250.574219 244.050781 C 252.375 244.875 254.398438 245.925781 255.226562 247.125 C 255.824219 248.023438 256.050781 249.226562 255.824219 250.273438 C 255.601562 251.550781 254.25 253.425781 253.199219 254.101562 C 252.300781 254.699219 251.023438 254.851562 250.050781 254.550781 C 248.773438 254.25 246.898438 252.976562 246.300781 251.699219 C 245.773438 250.425781 246.074219 248.175781 246.601562 247.050781 C 247.125 246.074219 248.101562 245.25 249.074219 244.949219 C 250.351562 244.574219 252.601562 244.875 253.726562 245.550781 C 254.699219 246.074219 255.375 247.125 255.675781 248.101562 C 255.976562 249.074219 255.976562 250.351562 255.601562 251.324219 C 255.300781 252.226562 254.476562 253.273438 253.648438 253.800781 C 252.824219 254.398438 251.625 254.773438 250.574219 254.625 C 249.226562 254.476562 248.023438 252.148438 246.375 252.148438 C 243.75 252.148438 239.925781 256.875 236.699219 258 C 233.925781 258.976562 230.25 257.925781 228.300781 259.125 C 226.800781 260.023438 226.800781 262.425781 225.375 263.175781 C 223.648438 264.074219 220.648438 264.074219 218.476562 263.550781 C 216.375 263.101562 214.050781 261.523438 212.550781 260.175781 C 211.199219 259.125 210.375 258.148438 209.550781 256.648438 C 208.425781 254.476562 207.375 250.648438 207.074219 248.101562 C 206.773438 246.148438 206.773438 244.425781 207.074219 242.699219 C 207.375 241.050781 207.523438 239.175781 208.648438 238.125 C 209.925781 236.925781 212.851562 236.550781 214.949219 236.476562 C 216.824219 236.398438 218.925781 236.699219 220.648438 237.449219 C 222.226562 238.125 224.101562 239.175781 224.851562 240.675781 C 225.675781 242.324219 225.601562 245.550781 224.851562 247.273438 C 224.25 248.625 222.75 249.675781 221.398438 250.351562 C 220.050781 251.023438 218.324219 251.023438 216.75 251.25 C 215.175781 251.476562 213.226562 252 211.800781 251.625 C 210.449219 251.25 208.875 250.273438 208.351562 249.148438 C 207.75 248.023438 207.75 246 208.351562 244.875 C 208.949219 243.75 211.949219 242.550781 211.949219 242.550781 " clip-rule="nonzero"/></clipPath><clipPath id="83aee10853"><path d="M 278.71875 241.386719 L 339.449219 241.386719 L 339.449219 259.070312 L 278.71875 259.070312 Z M 278.71875 241.386719 " clip-rule="nonzero"/></clipPath><clipPath id="a076ace438"><path d="M 280.648438 250.726562 C 291.523438 245.175781 293.175781 244.273438 295.050781 244.425781 C 297 244.648438 298.800781 247.273438 300.898438 247.5 C 303.148438 247.648438 305.699219 245.398438 308.175781 245.101562 C 310.5 244.800781 313.425781 244.5 315.226562 245.550781 C 316.875 246.449219 318.375 249.148438 318.824219 250.726562 C 319.125 251.773438 318.976562 252.601562 318.75 253.574219 C 318.523438 254.625 318.074219 255.976562 317.25 256.726562 C 316.425781 257.476562 315.148438 258 314.023438 258.074219 C 312.898438 258.074219 311.550781 257.625 310.726562 256.949219 C 309.898438 256.199219 309.226562 254.699219 309 253.875 C 308.851562 253.425781 308.773438 253.199219 308.925781 252.675781 C 309.300781 251.625 311.023438 249.449219 312.449219 248.175781 C 313.800781 247.050781 315.300781 246.226562 317.023438 245.476562 C 319.050781 244.648438 321.898438 243.148438 323.773438 243.75 C 325.726562 244.351562 328.726562 248.699219 328.5 249 C 328.273438 249.300781 322.875 246.75 322.875 245.699219 C 322.875 244.726562 326.175781 243.449219 328.199219 242.851562 C 330.675781 242.101562 334.875 241.125 336.75 242.023438 C 338.175781 242.699219 339.226562 244.574219 339.375 245.925781 C 339.449219 247.351562 338.625 249.449219 337.574219 250.273438 C 336.523438 251.175781 334.273438 251.625 332.925781 251.25 C 331.648438 250.875 330 249.300781 329.550781 248.023438 C 329.175781 246.675781 329.550781 244.425781 330.375 243.375 C 331.199219 242.25 333.375 241.425781 334.648438 241.425781 C 335.773438 241.425781 336.898438 241.949219 337.648438 242.625 C 338.398438 243.300781 339.148438 244.351562 339.226562 245.398438 C 339.449219 246.675781 338.773438 248.925781 337.949219 249.898438 C 337.273438 250.800781 336.074219 251.25 335.101562 251.398438 C 334.125 251.550781 332.773438 250.574219 331.949219 250.875 C 331.199219 251.175781 331.125 252.375 330.226562 253.050781 C 328.875 254.101562 325.648438 256.050781 323.925781 255.675781 C 322.199219 255.300781 319.5 251.101562 319.648438 250.875 C 319.800781 250.726562 323.625 252.898438 323.550781 253.351562 C 323.398438 253.800781 319.648438 252.898438 318.75 253.574219 C 318.148438 254.023438 318.523438 255.074219 318 255.75 C 317.398438 256.574219 316.125 257.550781 315.226562 257.851562 C 314.398438 258.148438 313.574219 258.074219 312.824219 257.925781 C 312.074219 257.773438 311.324219 257.398438 310.726562 256.949219 C 310.125 256.425781 309.601562 255.75 309.300781 255 C 309 254.324219 308.625 252.898438 308.925781 252.675781 C 309.300781 252.449219 311.851562 253.949219 311.699219 254.476562 C 311.476562 255.449219 302.625 256.5 299.476562 256.351562 C 297.523438 256.273438 295.949219 256.273438 294.675781 255.300781 C 293.324219 254.324219 291.75 250.273438 291.898438 250.199219 C 291.976562 250.199219 295.125 252.976562 294.75 254.175781 C 294.226562 256.125 285.523438 259.199219 282.898438 259.050781 C 281.625 259.050781 280.648438 258.300781 279.976562 257.625 C 279.449219 257.101562 279.074219 256.351562 278.925781 255.675781 C 278.773438 255 278.699219 254.25 278.851562 253.5 C 279.148438 252.601562 280.648438 250.726562 280.648438 250.726562 " clip-rule="nonzero"/></clipPath><clipPath id="c63c3b2f60"><path d="M 382.027344 246.804688 L 469.144531 246.804688 L 469.144531 267.648438 L 382.027344 267.648438 Z M 382.027344 246.804688 " clip-rule="nonzero"/></clipPath><clipPath id="59bd0089d1"><path d="M 385.875 249.675781 C 401.925781 249.523438 403.199219 252.148438 403.875 254.023438 C 404.476562 255.601562 403.574219 258.675781 404.25 258.898438 C 404.925781 259.199219 406.273438 255.898438 407.851562 255.300781 C 409.726562 254.625 412.949219 255.449219 415.050781 255.898438 C 416.851562 256.351562 417.898438 257.851562 419.773438 257.851562 C 422.773438 257.925781 426.523438 255.300781 431.25 253.875 C 438.449219 251.773438 452.851562 247.351562 459.300781 246.898438 C 462.601562 246.675781 465.523438 246.976562 466.875 247.574219 C 467.550781 247.875 467.773438 248.101562 468.074219 248.625 C 468.601562 249.523438 469.273438 251.773438 468.898438 253.050781 C 468.523438 254.324219 467.023438 255.824219 465.75 256.199219 C 464.476562 256.574219 462.375 256.199219 461.324219 255.375 C 460.351562 254.550781 459.449219 252.601562 459.601562 251.25 C 459.675781 249.976562 460.800781 248.175781 462 247.5 C 463.125 246.824219 465.300781 246.75 466.425781 247.351562 C 467.625 247.949219 468.824219 249.75 469.050781 251.023438 C 469.273438 252 468.976562 253.125 468.523438 254.023438 C 468.074219 254.851562 467.25 255.675781 466.273438 256.050781 C 465.074219 256.425781 463.875 255.523438 461.773438 255.675781 C 456.523438 256.199219 441.976562 260.699219 434.625 262.949219 C 429.523438 264.523438 425.25 267 421.875 267.449219 C 419.773438 267.75 418.273438 267.523438 416.550781 267.074219 C 414.75 266.625 413.324219 265.273438 411.375 264.824219 C 409.125 264.300781 406.125 264.976562 403.726562 264.675781 C 401.550781 264.300781 399.074219 264.074219 397.5 262.800781 C 395.925781 261.601562 395.925781 258 394.351562 257.324219 C 392.625 256.5 389.324219 258.675781 387.449219 258.675781 C 386.175781 258.675781 385.050781 258.523438 384.226562 258.074219 C 383.625 257.699219 383.101562 257.175781 382.726562 256.5 C 382.273438 255.675781 381.976562 254.324219 382.125 253.351562 C 382.351562 252.375 383.175781 251.175781 383.851562 250.574219 C 384.449219 250.050781 385.875 249.675781 385.875 249.675781 " clip-rule="nonzero"/></clipPath><clipPath id="1a3066d0c2"><path d="M 491.855469 256.363281 L 528.613281 256.363281 L 528.613281 270.734375 L 491.855469 270.734375 Z M 491.855469 256.363281 " clip-rule="nonzero"/></clipPath><clipPath id="6fda60be3c"><path d="M 496.648438 256.425781 C 517.648438 257.625 523.800781 259.648438 526.273438 261.75 C 527.625 262.949219 528.375 264.449219 528.523438 265.648438 C 528.601562 266.773438 528 268.125 527.398438 268.949219 C 526.949219 269.625 526.351562 270.074219 525.523438 270.300781 C 524.625 270.675781 523.125 270.75 522.148438 270.449219 C 521.25 270.226562 520.425781 269.699219 519.898438 268.949219 C 519.226562 267.898438 518.625 265.800781 519 264.523438 C 519.375 263.175781 521.023438 261.75 522.226562 261.226562 C 523.125 260.851562 524.398438 261 525.300781 261.300781 C 526.199219 261.601562 527.175781 262.351562 527.699219 263.175781 C 528.300781 264 528.601562 265.199219 528.523438 266.175781 C 528.449219 267.148438 528.074219 268.351562 527.324219 269.101562 C 526.425781 269.925781 524.398438 270.824219 523.050781 270.675781 C 521.773438 270.523438 519.976562 269.25 519.375 268.050781 C 518.773438 266.851562 518.773438 264.675781 519.449219 263.550781 C 520.050781 262.351562 522 261.226562 523.199219 261 C 524.25 260.851562 525.449219 261.300781 526.273438 261.75 C 526.949219 262.125 527.550781 262.726562 527.851562 263.476562 C 528.300781 264.375 528.675781 265.800781 528.449219 266.851562 C 528.226562 267.898438 527.398438 269.101562 526.574219 269.773438 C 525.75 270.375 524.699219 270.824219 523.273438 270.675781 C 520.648438 270.523438 516.601562 267 512.398438 265.949219 C 507.226562 264.75 497.101562 266.476562 494.175781 264.976562 C 492.898438 264.375 492.449219 263.398438 492.074219 262.425781 C 491.773438 261.449219 491.925781 260.101562 492.226562 259.199219 C 492.523438 258.449219 492.976562 257.851562 493.574219 257.398438 C 494.324219 256.875 496.648438 256.425781 496.648438 256.425781 " clip-rule="nonzero"/></clipPath><clipPath id="052017aab6"><path d="M 128.640625 240.308594 L 152.71875 240.308594 L 152.71875 265.78125 L 128.640625 265.78125 Z M 128.640625 240.308594 " clip-rule="nonzero"/></clipPath><clipPath id="121a39cd19"><path d="M 128.851562 254.851562 C 129.75 246.898438 130.5 245.101562 131.773438 243.824219 C 133.050781 242.398438 135.300781 241.273438 137.175781 240.75 C 139.050781 240.300781 141.75 240.148438 143.023438 240.824219 C 143.925781 241.273438 144.226562 243.074219 144.601562 243.226562 C 144.75 243.300781 144.824219 243.226562 144.976562 243.148438 C 145.199219 243.148438 145.425781 243.074219 145.574219 243.074219 C 145.648438 243.074219 145.726562 243.074219 145.800781 243.074219 C 145.949219 243.074219 146.023438 243.074219 146.101562 243.074219 C 146.25 243.074219 146.476562 243.148438 146.625 243.148438 C 146.851562 243.226562 147.074219 243.148438 147.226562 243.226562 C 147.300781 243.226562 147.375 243.300781 147.449219 243.300781 C 147.523438 243.375 147.675781 243.375 147.75 243.375 C 147.898438 243.449219 148.050781 243.601562 148.199219 243.675781 C 148.425781 243.75 148.574219 243.824219 148.726562 243.898438 C 148.800781 243.976562 148.875 244.050781 148.949219 244.125 C 149.023438 244.125 149.101562 244.199219 149.175781 244.273438 C 149.324219 244.351562 149.398438 244.5 149.550781 244.648438 C 149.699219 244.800781 149.925781 244.949219 150 245.023438 C 150 245.101562 149.925781 245.101562 149.925781 245.101562 C 150 245.25 150.226562 245.398438 150.300781 245.476562 C 150.375 245.625 150.375 245.851562 150.449219 245.925781 C 150.601562 246.074219 150.75 246 150.976562 246.148438 C 151.5 246.75 152.625 249.601562 152.625 251.398438 C 152.550781 253.351562 151.425781 255.675781 150.449219 257.25 C 149.550781 258.675781 148.5 259.648438 147.148438 260.773438 C 145.5 262.199219 143.25 264.148438 141.148438 264.898438 C 139.050781 265.648438 136.574219 266.101562 134.625 265.425781 C 132.523438 264.75 130.125 262.5 129.148438 260.550781 C 128.398438 258.898438 128.851562 254.851562 128.851562 254.851562 " clip-rule="nonzero"/></clipPath><clipPath id="a2d0dd4af4"><path d="M 137.613281 294.464844 L 149.371094 294.464844 L 149.371094 402.476562 L 137.613281 402.476562 Z M 137.613281 294.464844 " clip-rule="nonzero"/></clipPath><clipPath id="93cbce1a71"><path d="M 146.25 298.574219 C 146.773438 373.726562 150.300781 394.050781 149.101562 399.226562 C 148.800781 400.574219 148.351562 401.023438 147.675781 401.550781 C 147.074219 402.074219 145.949219 402.449219 145.125 402.449219 C 144.300781 402.375 143.25 401.925781 142.574219 401.324219 C 141.976562 400.726562 141.523438 399.75 141.449219 398.851562 C 141.375 398.023438 141.675781 396.898438 142.273438 396.226562 C 142.949219 395.476562 144.449219 394.648438 145.5 394.726562 C 146.550781 394.800781 148.050781 395.699219 148.574219 396.601562 C 149.175781 397.5 149.25 399.226562 148.800781 400.199219 C 148.351562 401.175781 146.925781 402.226562 145.875 402.375 C 144.824219 402.523438 143.175781 402 142.5 401.175781 C 141.75 400.425781 141.300781 398.773438 141.523438 397.726562 C 141.75 396.675781 143.023438 395.398438 143.925781 395.023438 C 144.601562 394.648438 145.574219 394.648438 146.324219 394.875 C 147.074219 395.101562 147.898438 395.550781 148.351562 396.300781 C 148.875 397.125 148.800781 399.824219 148.949219 399.824219 C 149.023438 399.824219 149.175781 398.324219 149.101562 398.324219 C 149.101562 398.25 148.949219 400.273438 148.351562 400.875 C 147.675781 401.699219 146.101562 402.375 145.125 402.449219 C 144.226562 402.449219 143.25 401.925781 142.574219 401.324219 C 141.976562 400.726562 141.824219 400.273438 141.449219 398.851562 C 140.101562 393.601562 139.273438 371.625 138.75 359.175781 C 138.226562 348 138.148438 337.949219 138.074219 327.523438 C 138 317.398438 136.949219 301.875 138.300781 297.601562 C 138.675781 296.25 139.199219 295.726562 139.875 295.199219 C 140.625 294.675781 141.824219 294.449219 142.726562 294.523438 C 143.625 294.601562 144.675781 295.199219 145.273438 295.875 C 145.875 296.550781 146.25 298.574219 146.25 298.574219 " clip-rule="nonzero"/></clipPath><clipPath id="8e424fc4f7"><path d="M 127.679688 296.1875 L 213.886719 296.1875 L 213.886719 521.90625 L 127.679688 521.90625 Z M 127.679688 296.1875 " clip-rule="nonzero"/></clipPath><clipPath id="c16acd7625"><path d="M 145.050781 296.324219 C 200.175781 297.824219 200.25 299.925781 201.75 300.300781 C 203.324219 300.601562 205.425781 298.726562 207.148438 298.800781 C 209.023438 298.949219 211.5 299.925781 212.550781 301.125 C 213.523438 302.25 213.75 303.75 213.675781 305.699219 C 213.523438 309.148438 210.148438 314.625 208.726562 320.023438 C 207 326.851562 205.875 333.601562 204.601562 343.273438 C 202.425781 359.398438 200.625 392.023438 198.824219 407.925781 C 197.851562 417.148438 196.574219 420.375 195.976562 429.898438 C 194.851562 447.148438 197.851562 492 196.199219 503.023438 C 195.675781 506.398438 196.273438 507.449219 194.25 509.398438 C 188.398438 514.875 151.351562 522.226562 143.476562 521.851562 C 141 521.773438 139.726562 521.25 138.675781 520.199219 C 137.699219 519.226562 137.550781 518.023438 137.175781 515.851562 C 136.125 509.699219 137.773438 493.5 136.800781 480 C 135.523438 462 129.601562 433.800781 128.476562 417.75 C 127.726562 407.699219 127.726562 398.324219 128.175781 393.148438 C 128.398438 390.75 128.699219 389.625 129.148438 387.898438 C 129.601562 386.023438 129.898438 384.074219 130.875 382.425781 C 131.925781 380.476562 133.726562 377.851562 135.449219 377.101562 C 136.800781 376.425781 138.675781 376.425781 139.875 376.949219 C 141 377.550781 142.125 379.425781 142.425781 380.550781 C 142.648438 381.601562 142.425781 382.726562 141.824219 383.550781 C 141.148438 384.523438 139.351562 385.800781 138.074219 385.875 C 136.800781 386.023438 134.851562 385.050781 134.023438 384.148438 C 133.351562 383.398438 132.898438 382.273438 132.976562 381.300781 C 133.050781 380.101562 134.023438 378.148438 135 377.324219 C 135.75 376.726562 136.949219 376.425781 137.851562 376.5 C 138.824219 376.5 139.949219 376.949219 140.699219 377.550781 C 141.449219 378.148438 142.050781 379.125 142.273438 380.101562 C 142.5 381 142.425781 381.976562 142.050781 383.101562 C 141.523438 384.675781 139.425781 386.625 138.601562 388.425781 C 137.851562 390.148438 137.550781 391.199219 137.25 393.75 C 136.425781 399.75 136.199219 412.875 136.949219 424.648438 C 137.925781 440.324219 142.949219 463.351562 144.449219 479.398438 C 145.648438 491.925781 140.550781 508.726562 146.25 512.773438 C 152.023438 516.898438 172.199219 504.601562 179.324219 503.398438 C 182.625 502.875 184.875 504.976562 186.75 503.023438 C 192.449219 497.023438 185.699219 453 187.125 433.574219 C 188.175781 419.476562 190.726562 411.074219 192.226562 397.199219 C 194.25 378.898438 195.824219 347.175781 197.398438 333.148438 C 198.226562 326.175781 198.675781 322.125 199.648438 317.625 C 200.476562 314.023438 200.851562 309.523438 202.574219 308.175781 C 203.699219 307.351562 207.148438 308.175781 207.148438 308.101562 C 207.148438 307.949219 199.875 308.175781 197.175781 307.5 C 195 306.898438 194.625 305.476562 191.851562 304.800781 C 183.976562 303 149.851562 306.601562 144 304.800781 C 142.5 304.351562 142.050781 303.824219 141.523438 303.074219 C 140.925781 302.25 140.625 301.050781 140.773438 300.074219 C 140.851562 299.175781 141.449219 298.050781 142.199219 297.375 C 142.875 296.773438 145.050781 296.324219 145.050781 296.324219 " clip-rule="nonzero"/></clipPath><clipPath id="f29009e57c"><path d="M 233.050781 298.742188 L 242.476562 298.742188 L 242.476562 400.535156 L 233.050781 400.535156 Z M 233.050781 298.742188 " clip-rule="nonzero"/></clipPath><clipPath id="840137328b"><path d="M 242.398438 302.625 C 242.023438 398.476562 241.648438 399.148438 240.75 399.824219 C 239.851562 400.425781 238.050781 400.574219 237.074219 400.199219 C 236.023438 399.824219 234.898438 398.398438 234.675781 397.351562 C 234.375 396.300781 234.898438 394.574219 235.648438 393.75 C 236.398438 393 238.125 392.398438 239.175781 392.550781 C 240.226562 392.773438 241.648438 393.824219 242.101562 394.875 C 242.625 395.851562 242.476562 397.648438 241.949219 398.550781 C 241.351562 399.523438 239.773438 400.351562 238.726562 400.5 C 237.898438 400.574219 236.925781 400.351562 236.324219 399.824219 C 235.5 399.148438 235.050781 398.476562 234.523438 396.523438 C 232.125 386.699219 233.023438 311.476562 234.675781 302.625 C 234.898438 301.125 235.050781 300.75 235.648438 300.074219 C 236.175781 299.476562 237.226562 298.875 238.050781 298.800781 C 238.875 298.726562 240 298.949219 240.75 299.476562 C 241.5 300.074219 242.398438 302.625 242.398438 302.625 " clip-rule="nonzero"/></clipPath><clipPath id="1585f4fea1"><path d="M 233.464844 290.496094 L 479.675781 290.496094 L 479.675781 428.710938 L 233.464844 428.710938 Z M 233.464844 290.496094 " clip-rule="nonzero"/></clipPath><clipPath id="bff1c07fcd"><path d="M 243.898438 296.851562 C 420.75 296.476562 420.976562 296.625 424.125 296.175781 C 429.523438 295.425781 440.175781 292.199219 446.398438 291.375 C 450.675781 290.773438 453.226562 290.550781 457.351562 290.699219 C 462.675781 290.925781 472.125 291.523438 475.648438 293.175781 C 477.523438 294 478.574219 294.898438 479.25 296.398438 C 480 298.050781 479.476562 300.449219 479.25 303.074219 C 478.875 307.199219 477.074219 313.273438 476.25 318.523438 C 475.5 323.851562 474.976562 328.574219 474.601562 334.726562 C 474.074219 342.824219 473.925781 351.75 473.851562 362.925781 C 473.625 379.125 474.898438 415.875 474.226562 422.773438 C 474.074219 424.199219 474 424.648438 473.699219 425.398438 C 473.398438 426 473.023438 426.523438 472.351562 426.824219 C 471.523438 427.273438 469.648438 427.648438 468.601562 427.273438 C 467.699219 427.050781 466.875 426.074219 466.425781 425.398438 C 466.125 424.800781 466.425781 424.050781 465.976562 423.449219 C 465.074219 422.398438 462.449219 421.574219 460.050781 420.75 C 456.898438 419.625 453.074219 418.726562 448.574219 417.976562 C 442.574219 417 434.625 416.398438 426.976562 416.023438 C 418.351562 415.5 407.398438 415.425781 399.601562 415.5 C 393.675781 415.574219 391.5 415.574219 384 416.101562 C 364.5 417.449219 304.949219 424.273438 278.925781 426.148438 C 263.476562 427.273438 248.550781 429.75 242.023438 427.949219 C 239.398438 427.199219 238.199219 426.523438 237 424.5 C 234.75 421.050781 234.601562 411.226562 234.226562 406.199219 C 234 402.675781 233.625 399.074219 234.300781 397.050781 C 234.675781 396 235.273438 395.25 236.023438 394.800781 C 236.773438 394.273438 237.898438 393.898438 238.800781 393.976562 C 239.699219 393.976562 240.824219 394.425781 241.5 395.023438 C 242.25 395.625 242.851562 396.601562 243 397.5 C 243.226562 398.398438 243.226562 399.523438 242.699219 400.351562 C 242.175781 401.398438 240.523438 402.675781 239.398438 402.976562 C 238.425781 403.199219 237.300781 402.898438 236.550781 402.523438 C 235.726562 402.074219 234.898438 401.324219 234.523438 400.425781 C 234.074219 399.300781 234.074219 397.273438 234.75 396.148438 C 235.351562 395.101562 237.148438 394.125 238.351562 393.976562 C 239.324219 393.824219 240.375 394.125 241.125 394.726562 C 242.023438 395.476562 242.625 396.675781 243.148438 398.476562 C 244.199219 402.074219 245.175781 412.351562 244.351562 416.101562 C 243.898438 418.050781 241.425781 419.398438 241.949219 420.300781 C 243 422.023438 252.75 420.601562 258.449219 420.449219 C 264.824219 420.375 269.101562 420.148438 278.324219 419.398438 C 299.550781 417.824219 356.101562 410.625 383.699219 409.050781 C 401.398438 408.074219 415.125 408.148438 427.351562 408.449219 C 436.199219 408.675781 444.375 409.199219 450.074219 409.800781 C 453.675781 410.25 455.925781 410.398438 458.773438 411.300781 C 461.773438 412.199219 465.148438 413.324219 467.625 415.351562 C 470.25 417.375 473.851562 421.425781 474.148438 423.449219 C 474.300781 424.574219 473.699219 425.476562 473.101562 426.226562 C 472.5 426.898438 471.449219 427.425781 470.550781 427.5 C 469.648438 427.648438 468.449219 427.425781 467.773438 426.824219 C 466.875 426.148438 466.425781 425.476562 465.976562 423.449219 C 463.5 413.324219 465.824219 343.574219 466.726562 325.199219 C 467.023438 318.074219 467.023438 314.550781 468 310.351562 C 468.75 306.976562 472.425781 303.523438 471.375 301.800781 C 470.25 299.773438 463.875 300.375 459.976562 300.074219 C 455.925781 299.773438 452.023438 299.625 447.523438 300.074219 C 441.976562 300.601562 434.699219 303.074219 429.148438 303.824219 C 424.648438 304.351562 423.226562 304.351562 416.699219 304.5 C 392.324219 305.25 257.324219 307.574219 243.898438 304.273438 C 242.023438 303.824219 241.425781 303.449219 240.824219 302.699219 C 240.300781 302.023438 240.148438 300.976562 240.226562 300.148438 C 240.300781 299.324219 240.824219 298.351562 241.425781 297.824219 C 242.023438 297.226562 243.898438 296.851562 243.898438 296.851562 " clip-rule="nonzero"/></clipPath><clipPath id="8e66240dae"><path d="M 507 301.347656 L 600 301.347656 L 600 531.519531 L 507 531.519531 Z M 507 301.347656 " clip-rule="nonzero"/></clipPath><clipPath id="a733b7cef1"><path d="M 521.25 310.050781 C 520.273438 473.398438 518.023438 493.125 517.800781 506.699219 C 517.726562 514.273438 516.375 523.5 518.175781 524.550781 C 519.226562 525.074219 520.351562 522.523438 522.675781 521.851562 C 528.449219 520.273438 545.398438 522.601562 555.523438 521.851562 C 564.226562 521.175781 576.75 521.699219 579.824219 518.101562 C 581.699219 515.851562 579.523438 512.773438 579.75 508.726562 C 580.050781 501.074219 581.851562 489.375 582.898438 475.949219 C 584.398438 454.574219 585.75 414.375 587.101562 392.925781 C 588 379.273438 588.976562 371.175781 589.648438 359.398438 C 590.398438 346.425781 594.300781 322.949219 591.074219 318.148438 C 589.949219 316.5 588.675781 316.875 586.273438 316.425781 C 579.523438 315.226562 555.824219 317.324219 546.898438 316.273438 C 542.175781 315.75 540.148438 314.324219 536.175781 313.800781 C 531.074219 313.125 523.648438 313.949219 518.699219 313.199219 C 514.949219 312.601562 510.824219 311.773438 508.949219 310.5 C 507.976562 309.75 507.449219 308.851562 507.226562 307.875 C 506.925781 306.898438 506.925781 305.699219 507.375 304.726562 C 507.976562 303.601562 509.699219 302.101562 510.898438 301.726562 C 511.949219 301.425781 513.148438 301.648438 514.050781 302.101562 C 514.949219 302.476562 515.925781 303.300781 516.300781 304.273438 C 516.824219 305.398438 516.976562 307.648438 516.300781 308.851562 C 515.699219 310.050781 513.824219 311.324219 512.476562 311.476562 C 511.125 311.625 509.101562 310.648438 508.199219 309.75 C 507.449219 309 507.074219 307.800781 507.074219 306.824219 C 507 305.851562 507.226562 304.648438 507.898438 303.824219 C 508.726562 302.773438 510.449219 301.800781 511.949219 301.648438 C 513.75 301.425781 515.25 302.773438 517.875 303.226562 C 523.050781 304.125 535.949219 303.976562 541.125 305.101562 C 543.75 305.625 544.050781 306.601562 546.898438 307.125 C 554.175781 308.398438 578.851562 306.375 586.800781 307.199219 C 590.175781 307.574219 592.050781 307.875 593.925781 308.773438 C 595.5 309.523438 596.699219 310.425781 597.601562 311.773438 C 598.726562 313.425781 599.25 314.851562 599.699219 318.148438 C 600.976562 329.398438 595.726562 364.726562 594 393.148438 C 591.75 430.648438 593.773438 511.273438 588.148438 523.5 C 587.023438 525.976562 586.351562 526.125 584.324219 527.101562 C 579.898438 529.199219 569.699219 529.5 560.476562 530.175781 C 548.101562 531.148438 523.648438 531.675781 516.523438 531.148438 C 514.199219 530.925781 513.074219 531.074219 511.949219 530.324219 C 510.824219 529.5 510.148438 528.601562 509.625 526.273438 C 507.449219 516.976562 513.300781 479.550781 514.125 450.375 C 515.324219 410.773438 511.875 321 513.898438 310.050781 C 514.125 308.625 514.199219 308.25 514.800781 307.648438 C 515.476562 306.976562 517.050781 306.375 518.023438 306.449219 C 518.851562 306.449219 519.75 307.050781 520.351562 307.648438 C 520.875 308.25 521.25 310.050781 521.25 310.050781 " clip-rule="nonzero"/></clipPath><clipPath id="5cdcb7b604"><path d="M 239.285156 472.082031 L 291.605469 472.082031 L 291.605469 481.886719 L 239.285156 481.886719 Z M 239.285156 472.082031 " clip-rule="nonzero"/></clipPath><clipPath id="fcdeb05c36"><path d="M 243.75 472.125 C 289.273438 473.101562 290.175781 473.625 290.851562 474.449219 C 291.375 475.125 291.675781 476.175781 291.523438 477 C 291.375 478.125 290.398438 479.773438 289.5 480.375 C 288.824219 480.898438 287.773438 481.050781 286.949219 480.976562 C 286.125 480.824219 285.148438 480.375 284.476562 479.851562 C 283.875 479.25 283.425781 478.273438 283.273438 477.449219 C 283.125 476.625 283.199219 475.574219 283.726562 474.824219 C 284.25 473.925781 285.75 472.800781 286.949219 472.648438 C 288.074219 472.5 289.800781 473.324219 290.550781 474.074219 C 291.226562 474.75 291.523438 475.726562 291.523438 476.550781 C 291.601562 477.449219 291.300781 478.425781 290.851562 479.175781 C 290.324219 479.851562 290.023438 480.300781 288.675781 480.75 C 283.425781 482.550781 249.449219 481.949219 243.523438 480.75 C 241.949219 480.449219 241.351562 480.300781 240.675781 479.625 C 240 478.949219 239.398438 477.824219 239.324219 476.851562 C 239.25 475.875 239.550781 474.675781 240.148438 473.925781 C 240.898438 473.023438 243.75 472.125 243.75 472.125 " clip-rule="nonzero"/></clipPath><clipPath id="fb37c154c9"><path d="M 333.25 468.25 L 467.328125 468.25 L 467.328125 483.390625 L 333.25 483.390625 Z M 333.25 468.25 " clip-rule="nonzero"/></clipPath><clipPath id="95d5fe808c"><path d="M 337.273438 474.226562 C 425.398438 473.699219 429.824219 471.824219 436.875 471.148438 C 444.226562 470.476562 455.773438 471.898438 459.449219 470.476562 C 460.875 469.949219 461.101562 468.523438 462.074219 468.375 C 463.050781 468.148438 464.476562 468.675781 465.375 469.273438 C 466.199219 469.949219 466.949219 471.148438 467.175781 472.199219 C 467.398438 473.175781 467.175781 474.601562 466.648438 475.574219 C 466.125 476.476562 465.148438 477.523438 464.023438 477.75 C 462.523438 477.898438 458.925781 476.175781 458.101562 475.199219 C 457.726562 474.75 457.726562 474.300781 457.726562 473.699219 C 457.648438 472.875 457.726562 471.523438 458.324219 470.699219 C 459.074219 469.648438 460.949219 468.523438 462.226562 468.300781 C 463.199219 468.226562 464.398438 468.523438 465.148438 469.125 C 466.125 469.949219 467.324219 471.824219 467.324219 473.101562 C 467.324219 474.449219 466.273438 476.398438 465.226562 477.148438 C 464.101562 477.898438 461.925781 478.125 460.726562 477.601562 C 459.449219 477.148438 458.101562 475.5 457.800781 474.226562 C 457.5 472.875 458.023438 470.851562 459 469.875 C 459.898438 468.898438 462 468.300781 463.273438 468.375 C 464.25 468.449219 466.050781 469.726562 465.976562 469.800781 C 465.898438 470.023438 460.949219 468.675781 460.949219 468.601562 C 460.949219 468.523438 464.324219 468.601562 465.375 469.273438 C 466.273438 469.875 466.949219 471.148438 467.175781 472.199219 C 467.398438 473.175781 467.25 474.449219 466.648438 475.574219 C 465.824219 477.074219 464.25 479.023438 461.851562 480 C 457.5 481.574219 448.273438 479.398438 441.074219 479.699219 C 433.125 480 426.898438 481.5 416.25 482.023438 C 397.351562 482.925781 346.050781 484.351562 337.273438 482.175781 C 335.324219 481.648438 334.648438 481.273438 333.976562 480.449219 C 333.449219 479.699219 333.226562 478.574219 333.300781 477.75 C 333.449219 476.851562 333.976562 475.800781 334.648438 475.199219 C 335.25 474.675781 337.273438 474.226562 337.273438 474.226562 " clip-rule="nonzero"/></clipPath><clipPath id="a16464d938"><path d="M 240.527344 509.328125 L 338.605469 509.328125 L 338.605469 520.511719 L 240.527344 520.511719 Z M 240.527344 509.328125 " clip-rule="nonzero"/></clipPath><clipPath id="f35dc37e17"><path d="M 244.875 510.976562 C 303.074219 510.675781 307.949219 509.476562 314.324219 509.398438 C 320.773438 509.324219 330.148438 509.699219 333.824219 510.449219 C 335.398438 510.824219 336.226562 510.976562 336.976562 511.726562 C 337.800781 512.398438 338.476562 513.601562 338.550781 514.726562 C 338.625 516 337.800781 517.949219 336.898438 518.851562 C 336.148438 519.675781 334.800781 520.125 333.75 520.050781 C 332.476562 519.976562 330.601562 518.925781 329.851562 517.949219 C 329.175781 517.125 328.949219 515.925781 329.023438 515.023438 C 329.023438 514.050781 329.398438 512.851562 330.148438 512.175781 C 330.976562 511.273438 333 510.375 334.273438 510.523438 C 335.625 510.601562 337.351562 511.949219 338.023438 513 C 338.550781 513.898438 338.625 515.101562 338.476562 516 C 338.324219 516.976562 337.875 518.101562 337.050781 518.699219 C 336.074219 519.523438 333.976562 520.125 332.773438 519.898438 C 331.726562 519.824219 330.75 519.074219 330.148438 518.324219 C 329.476562 517.648438 329.023438 516.449219 329.023438 515.476562 C 328.949219 514.574219 329.25 513.375 329.851562 512.550781 C 330.375 511.800781 331.351562 511.050781 332.25 510.75 C 333.074219 510.449219 334.125 510.449219 334.949219 510.601562 C 335.699219 510.824219 336.449219 511.199219 336.976562 511.726562 C 337.574219 512.175781 338.023438 512.851562 338.25 513.601562 C 338.550781 514.5 338.625 516 338.25 516.976562 C 337.875 517.949219 336.824219 519 336 519.523438 C 335.25 519.898438 334.875 519.976562 333.75 520.050781 C 330.523438 520.273438 321.148438 518.550781 314.773438 518.476562 C 308.25 518.398438 303.226562 519.375 295.199219 519.601562 C 282.300781 519.976562 251.851562 521.324219 244.875 519.601562 C 242.925781 519.148438 242.023438 518.625 241.351562 517.800781 C 240.75 516.976562 240.523438 515.773438 240.601562 514.800781 C 240.75 513.824219 241.351562 512.699219 242.023438 512.101562 C 242.773438 511.425781 244.875 510.976562 244.875 510.976562 " clip-rule="nonzero"/></clipPath><clipPath id="bc0fb44059"><path d="M 389.113281 510.246094 L 466.199219 510.246094 L 466.199219 522.203125 L 389.113281 522.203125 Z M 389.113281 510.246094 " clip-rule="nonzero"/></clipPath><clipPath id="6d580fe48f"><path d="M 393.675781 512.398438 C 434.773438 512.175781 452.101562 511.800781 457.574219 511.125 C 459.375 510.898438 460.050781 510.375 461.101562 510.375 C 462 510.375 462.75 510.601562 463.425781 510.898438 C 464.101562 511.273438 464.773438 511.800781 465.226562 512.550781 C 465.75 513.375 466.199219 514.875 466.125 516 C 465.976562 517.050781 465.300781 518.398438 464.476562 519.148438 C 463.574219 519.898438 462.226562 520.425781 461.101562 520.425781 C 459.898438 520.351562 458.101562 519.523438 457.273438 518.625 C 456.523438 517.800781 456.148438 516.601562 456.074219 515.625 C 456.074219 514.574219 456.300781 513.375 456.976562 512.550781 C 457.800781 511.5 459.824219 510.449219 461.175781 510.375 C 462.226562 510.300781 463.425781 510.675781 464.175781 511.425781 C 465.148438 512.25 466.125 514.425781 466.125 515.699219 C 466.125 516.75 465.601562 517.875 464.925781 518.625 C 464.25 519.449219 463.199219 520.125 462.148438 520.273438 C 460.875 520.425781 458.625 519.824219 457.648438 519 C 456.824219 518.324219 456.300781 517.125 456.148438 516.148438 C 456 515.175781 456.074219 513.898438 456.675781 513 C 457.425781 511.875 459.375 510.601562 460.648438 510.375 C 461.625 510.148438 462.675781 510.523438 463.425781 510.898438 C 464.175781 511.273438 464.773438 511.875 465.226562 512.550781 C 465.675781 513.148438 465.976562 513.976562 466.125 514.800781 C 466.199219 515.550781 466.125 516.375 465.824219 517.125 C 465.375 518.101562 464.550781 519.148438 463.425781 519.824219 C 462 520.648438 460.648438 520.726562 457.574219 521.023438 C 447.75 522.074219 401.175781 522.75 393.675781 521.398438 C 391.949219 521.101562 391.425781 521.023438 390.675781 520.273438 C 389.851562 519.449219 389.101562 517.5 389.175781 516.375 C 389.25 515.324219 389.925781 514.199219 390.675781 513.523438 C 391.425781 512.851562 393.675781 512.398438 393.675781 512.398438 " clip-rule="nonzero"/></clipPath></defs><g clip-path="url(#b6e5d53241)"><g clip-path="url(#d1409dd659)"><path fill="#2b2d42" d="M 96.976562 226.125 L 121.425781 226.125 L 121.425781 566.609375 L 96.976562 566.609375 Z M 96.976562 226.125 " fill-opacity="1" fill-rule="nonzero"/></g></g><g clip-path="url(#3d750a99c6)"><g clip-path="url(#82c8c2e84c)"><path fill="#2b2d42" d="M 109.351562 218.398438 L 639.238281 218.398438 L 639.238281 249.75 L 109.351562 249.75 Z M 109.351562 218.398438 " fill-opacity="1" fill-rule="nonzero"/></g></g><g clip-path="url(#7964b5bc03)"><g clip-path="url(#2817407bab)"><path fill="#2b2d42" d="M 101.398438 220.050781 L 637.636719 220.050781 L 637.636719 588.523438 L 101.398438 588.523438 Z M 101.398438 220.050781 " fill-opacity="1" fill-rule="nonzero"/></g></g><g clip-path="url(#2cff21cf8e)"><g clip-path="url(#2d704a0839)"><path fill="#2b2d42" d="M 114.226562 263.851562 L 627.992188 263.851562 L 627.992188 291.074219 L 114.226562 291.074219 Z M 114.226562 263.851562 " fill-opacity="1" fill-rule="nonzero"/></g></g><g clip-path="url(#a076a7f86b)"><g clip-path="url(#fc15375f7b)"><path fill="#2b2d42" d="M 577.050781 242.175781 L 600.976562 242.175781 L 600.976562 271.332031 L 577.050781 271.332031 Z M 577.050781 242.175781 " fill-opacity="1" fill-rule="nonzero"/></g></g><g clip-path="url(#3cb95eb465)"><g clip-path="url(#027bd22844)"><path fill="#2b2d42" d="M 161.023438 229.050781 L 176.773438 229.050781 L 176.773438 264.058594 L 161.023438 264.058594 Z M 161.023438 229.050781 " fill-opacity="1" fill-rule="nonzero"/></g></g><g clip-path="url(#f72d31aa34)"><g clip-path="url(#ddd45b227e)"><path fill="#2b2d42" d="M 204.074219 233.476562 L 258.851562 233.476562 L 258.851562 266.625 L 204.074219 266.625 Z M 204.074219 233.476562 " fill-opacity="1" fill-rule="nonzero"/></g></g><g clip-path="url(#83aee10853)"><g clip-path="url(#a076ace438)"><path fill="#2b2d42" d="M 275.851562 238.425781 L 342.414062 238.425781 L 342.414062 262.125 L 275.851562 262.125 Z M 275.851562 238.425781 " fill-opacity="1" fill-rule="nonzero"/></g></g><g clip-path="url(#c63c3b2f60)"><g clip-path="url(#59bd0089d1)"><path fill="#2b2d42" d="M 379.125 243.898438 L 472.050781 243.898438 L 472.050781 270.449219 L 379.125 270.449219 Z M 379.125 243.898438 " fill-opacity="1" fill-rule="nonzero"/></g></g><g clip-path="url(#1a3066d0c2)"><g clip-path="url(#6fda60be3c)"><path fill="#2b2d42" d="M 489.074219 253.425781 L 531.550781 253.425781 L 531.550781 273.75 L 489.074219 273.75 Z M 489.074219 253.425781 " fill-opacity="1" fill-rule="nonzero"/></g></g><g clip-path="url(#052017aab6)"><g clip-path="url(#121a39cd19)"><path fill="#2b2d42" d="M 125.851562 237.75 L 155.625 237.75 L 155.625 268.457031 L 125.851562 268.457031 Z M 125.851562 237.75 " fill-opacity="1" fill-rule="nonzero"/></g></g><g clip-path="url(#a2d0dd4af4)"><g clip-path="url(#93cbce1a71)"><path fill="#2b2d42" d="M 135.074219 291.523438 L 152.175781 291.523438 L 152.175781 405.480469 L 135.074219 405.480469 Z M 135.074219 291.523438 " fill-opacity="1" fill-rule="nonzero"/></g></g><g clip-path="url(#8e424fc4f7)"><g clip-path="url(#c16acd7625)"><path fill="#2b2d42" d="M 125.175781 293.324219 L 216.75 293.324219 L 216.75 524.765625 L 125.175781 524.765625 Z M 125.175781 293.324219 " fill-opacity="1" fill-rule="nonzero"/></g></g><g clip-path="url(#f29009e57c)"><g clip-path="url(#840137328b)"><path fill="#2b2d42" d="M 231.523438 295.800781 L 245.476562 295.800781 L 245.476562 403.476562 L 231.523438 403.476562 Z M 231.523438 295.800781 " fill-opacity="1" fill-rule="nonzero"/></g></g><g clip-path="url(#1585f4fea1)"><g clip-path="url(#bff1c07fcd)"><path fill="#2b2d42" d="M 231.226562 287.699219 L 482.472656 287.699219 L 482.472656 430.949219 L 231.226562 430.949219 Z M 231.226562 287.699219 " fill-opacity="1" fill-rule="nonzero"/></g></g><g clip-path="url(#8e66240dae)"><g clip-path="url(#a733b7cef1)"><path fill="#2b2d42" d="M 504.074219 298.648438 L 602.773438 298.648438 L 602.773438 534.21875 L 504.074219 534.21875 Z M 504.074219 298.648438 " fill-opacity="1" fill-rule="nonzero"/></g></g><g clip-path="url(#5cdcb7b604)"><g clip-path="url(#fcdeb05c36)"><path fill="#2b2d42" d="M 236.324219 469.125 L 294.621094 469.125 L 294.621094 483.976562 L 236.324219 483.976562 Z M 236.324219 469.125 " fill-opacity="1" fill-rule="nonzero"/></g></g><g clip-path="url(#fb37c154c9)"><g clip-path="url(#95d5fe808c)"><path fill="#2b2d42" d="M 330.300781 465.300781 L 470.355469 465.300781 L 470.355469 485.175781 L 330.300781 485.175781 Z M 330.300781 465.300781 " fill-opacity="1" fill-rule="nonzero"/></g></g><g clip-path="url(#a16464d938)"><g clip-path="url(#f35dc37e17)"><path fill="#2b2d42" d="M 237.601562 506.398438 L 341.53125 506.398438 L 341.53125 523.050781 L 237.601562 523.050781 Z M 237.601562 506.398438 " fill-opacity="1" fill-rule="nonzero"/></g></g><g clip-path="url(#bc0fb44059)"><g clip-path="url(#6d580fe48f)"><path fill="#2b2d42" d="M 386.175781 507.375 L 469.136719 507.375 L 469.136719 524.476562 L 386.175781 524.476562 Z M 386.175781 507.375 " fill-opacity="1" fill-rule="nonzero"/></g></g></svg>