<svg xmlns="http://www.w3.org/2000/svg" xmlns:xlink="http://www.w3.org/1999/xlink" width="1024" zoomAndPan="magnify" viewBox="0 0 768 767.999994" height="1024" preserveAspectRatio="xMidYMid meet" version="1.0"><defs><g/><clipPath id="b46662ce30"><path d="M 140.742188 140.421875 L 627.902344 140.421875 L 627.902344 627.578125 L 140.742188 627.578125 Z M 140.742188 140.421875 " clip-rule="nonzero"/></clipPath><clipPath id="653f975bbe"><path d="M 384.324219 140.421875 C 249.796875 140.421875 140.742188 249.476562 140.742188 384 C 140.742188 518.523438 249.796875 627.578125 384.324219 627.578125 C 518.847656 627.578125 627.902344 518.523438 627.902344 384 C 627.902344 249.476562 518.847656 140.421875 384.324219 140.421875 Z M 384.324219 140.421875 " clip-rule="nonzero"/></clipPath><clipPath id="9f83603edd"><path d="M 140.742188 140.421875 L 627.890625 140.421875 L 627.890625 627.570312 L 140.742188 627.570312 Z M 140.742188 140.421875 " clip-rule="nonzero"/></clipPath><clipPath id="58b3a329ad"><path d="M 384.316406 140.421875 C 249.796875 140.421875 140.742188 249.472656 140.742188 383.996094 C 140.742188 518.519531 249.796875 627.570312 384.316406 627.570312 C 518.839844 627.570312 627.890625 518.519531 627.890625 383.996094 C 627.890625 249.472656 518.839844 140.421875 384.316406 140.421875 Z M 384.316406 140.421875 " clip-rule="nonzero"/></clipPath><clipPath id="bd89af1247"><path d="M 109.832031 109.507812 L 658.808594 109.507812 L 658.808594 658.484375 L 109.832031 658.484375 Z M 109.832031 109.507812 " clip-rule="nonzero"/></clipPath><clipPath id="1013864a0d"><path d="M 384.320312 109.507812 C 232.722656 109.507812 109.832031 232.402344 109.832031 383.996094 C 109.832031 535.59375 232.722656 658.484375 384.320312 658.484375 C 535.914062 658.484375 658.808594 535.59375 658.808594 383.996094 C 658.808594 232.402344 535.914062 109.507812 384.320312 109.507812 Z M 384.320312 109.507812 " clip-rule="nonzero"/></clipPath><clipPath id="a5c5a1ada1"><path d="M 77.121094 345.28125 L 690.878906 345.28125 L 690.878906 474.355469 L 77.121094 474.355469 Z M 77.121094 345.28125 " clip-rule="nonzero"/></clipPath><clipPath id="05ae78c46b"><path d="M 304.671875 310 L 374 310 L 374 458 L 304.671875 458 Z M 304.671875 310 " clip-rule="nonzero"/></clipPath></defs><g clip-path="url(#b46662ce30)"><g clip-path="url(#653f975bbe)"><path fill="#f8f7f4" d="M 140.742188 140.421875 L 627.902344 140.421875 L 627.902344 627.578125 L 140.742188 627.578125 Z M 140.742188 140.421875 " fill-opacity="1" fill-rule="nonzero"/></g></g><g clip-path="url(#9f83603edd)"><g clip-path="url(#58b3a329ad)"><path stroke-linecap="butt" transform="matrix(0.75, 0, 0, 0.75, 140.744, 140.421282)" fill="none" stroke-linejoin="miter" d="M 324.763224 0.000790864 C 145.40384 0.000790864 -0.00241671 145.40184 -0.00241671 324.766432 C -0.00241671 504.131024 145.40384 649.532073 324.763224 649.532073 C 504.127817 649.532073 649.528865 504.131024 649.528865 324.766432 C 649.528865 145.40184 504.127817 0.000790864 324.763224 0.000790864 Z M 324.763224 0.000790864 " stroke="#000000" stroke-width="8" stroke-opacity="1" stroke-miterlimit="4"/></g></g><g clip-path="url(#bd89af1247)"><g clip-path="url(#1013864a0d)"><path stroke-linecap="butt" transform="matrix(0.75, 0, 0, 0.75, 109.831661, 109.508943)" fill="none" stroke-linejoin="miter" d="M 365.984887 -0.00150678 C 163.854669 -0.00150678 0.000493979 163.857876 0.000493979 365.982886 C 0.000493979 568.113105 163.854669 731.967279 365.984887 731.967279 C 568.109897 731.967279 731.96928 568.113105 731.96928 365.982886 C 731.96928 163.857876 568.109897 -0.00150678 365.984887 -0.00150678 Z M 365.984887 -0.00150678 " stroke="#000000" stroke-width="16" stroke-opacity="1" stroke-miterlimit="4"/></g></g><g clip-path="url(#a5c5a1ada1)"><path fill="#f8f7f4" d="M 77.121094 345.28125 L 690.730469 345.28125 L 690.730469 474.355469 L 77.121094 474.355469 Z M 77.121094 345.28125 " fill-opacity="1" fill-rule="nonzero"/></g><g fill="#000000" fill-opacity="1"><g transform="translate(121.086772, 417.923551)"><g><path d="M 6.578125 -4.59375 L 6.578125 -3.5 L 0.671875 -3.5 L 0.671875 -4.59375 Z M 6.578125 -4.59375 "/></g></g></g><g fill="#000000" fill-opacity="1"><g transform="translate(128.614586, 417.923551)"><g><path d="M 6.578125 -4.59375 L 6.578125 -3.5 L 0.671875 -3.5 L 0.671875 -4.59375 Z M 6.578125 -4.59375 "/></g></g></g><g fill="#000000" fill-opacity="1"><g transform="translate(136.1424, 417.923551)"><g><path d="M 6.578125 -4.59375 L 6.578125 -3.5 L 0.671875 -3.5 L 0.671875 -4.59375 Z M 6.578125 -4.59375 "/></g></g></g><g fill="#000000" fill-opacity="1"><g transform="translate(624.589353, 417.923551)"><g><path d="M 6.578125 -4.59375 L 6.578125 -3.5 L 0.671875 -3.5 L 0.671875 -4.59375 Z M 6.578125 -4.59375 "/></g></g></g><g fill="#000000" fill-opacity="1"><g transform="translate(632.117167, 417.923551)"><g><path d="M 6.578125 -4.59375 L 6.578125 -3.5 L 0.671875 -3.5 L 0.671875 -4.59375 Z M 6.578125 -4.59375 "/></g></g></g><g fill="#000000" fill-opacity="1"><g transform="translate(639.64498, 417.923551)"><g><path d="M 6.578125 -4.59375 L 6.578125 -3.5 L 0.671875 -3.5 L 0.671875 -4.59375 Z M 6.578125 -4.59375 "/></g></g></g><g fill="#000000" fill-opacity="1"><g transform="translate(231.836243, 308.612423)"><g><path d="M 4.5625 -7.40625 L 2.140625 -3.46875 L -23.390625 -19.21875 L -20.96875 -23.15625 L -8.390625 -15.390625 L -13.609375 -35.078125 L -12.046875 -37.609375 L -7.609375 -18.21875 L 14.484375 -23.484375 L 11.9375 -18.234375 L -8 -15.15625 Z M 4.5625 -7.40625 "/></g></g></g><g fill="#000000" fill-opacity="1"><g transform="translate(249.038626, 281.43539)"><g><path d="M -4.75 -15.96875 L 5.765625 -6.265625 L 2.765625 -3 L -19.296875 -23.328125 L -12.671875 -30.515625 C -10.597656 -32.765625 -8.398438 -34.144531 -6.078125 -34.65625 C -3.765625 -35.164062 -1.789062 -34.664062 -0.15625 -33.15625 C 1.476562 -31.65625 2.238281 -29.894531 2.125 -27.875 C 2.019531 -25.863281 1.242188 -23.71875 -0.203125 -21.4375 L 18.828125 -20.421875 L 15.734375 -16.109375 L -2.375 -18.53125 Z M -5.75 -16.890625 L -3.78125 -19.015625 C -0.09375 -23.015625 0.171875 -26.46875 -2.984375 -29.375 C -3.523438 -29.875 -4.25 -30.296875 -5.15625 -30.640625 C -7.03125 -31.410156 -8.953125 -31.171875 -10.921875 -29.921875 C -12.304688 -28.410156 -13.492188 -26.75 -14.484375 -24.9375 Z M -5.75 -16.890625 "/></g></g></g><g fill="#000000" fill-opacity="1"><g transform="translate(272.682841, 257.170963)"><g><path d="M 10.609375 -8.34375 L 1.421875 -1.125 L -0.03125 -2.984375 L 2.4375 -6.015625 L -13.578125 -26.34375 L -17.140625 -24.703125 L -18.59375 -26.546875 L -9.40625 -33.765625 L -7.953125 -31.921875 L -10.375 -28.859375 L 5.640625 -8.53125 L 9.15625 -10.203125 Z M -19.484375 -37.4375 C -19.003906 -37.800781 -18.453125 -37.96875 -17.828125 -37.9375 C -17.210938 -37.90625 -16.632812 -37.546875 -16.09375 -36.859375 C -15.550781 -36.171875 -15.335938 -35.519531 -15.453125 -34.90625 C -15.566406 -34.289062 -15.863281 -33.800781 -16.34375 -33.4375 C -16.863281 -33.019531 -17.425781 -32.832031 -18.03125 -32.875 C -18.644531 -32.914062 -19.222656 -33.28125 -19.765625 -33.96875 C -20.304688 -34.65625 -20.523438 -35.300781 -20.421875 -35.90625 C -20.316406 -36.507812 -20.003906 -37.019531 -19.484375 -37.4375 Z M -19.484375 -37.4375 "/></g></g></g><g fill="#000000" fill-opacity="1"><g transform="translate(288.869324, 244.495886)"><g><path d="M 12.421875 -7.125 L 8.609375 -4.9375 L -5.234375 -29.078125 C -6.242188 -28.773438 -7.191406 -28.367188 -8.078125 -27.859375 L -12.6875 -23.59375 L -14.53125 -26.25 L 5.703125 -37.859375 L 7.125 -34.953125 L 1.078125 -33.109375 C 0.191406 -32.597656 -0.640625 -31.984375 -1.421875 -31.265625 Z M 12.421875 -7.125 "/></g></g></g><g fill="#000000" fill-opacity="1"><g transform="translate(314.718567, 230.48874)"><g><path d="M 12.5625 -4.9375 L 1.6875 -0.65625 L 0.828125 -2.859375 L 4.0625 -5.0625 L -5.390625 -29.140625 L -9.265625 -28.578125 L -10.140625 -30.78125 L 0.734375 -35.0625 L 1.609375 -32.859375 L -1.59375 -30.625 L 7.859375 -6.546875 L 11.703125 -7.140625 Z M -7.84375 -41.453125 C -7.28125 -41.679688 -6.707031 -41.6875 -6.125 -41.46875 C -5.539062 -41.257812 -5.085938 -40.75 -4.765625 -39.9375 C -4.441406 -39.125 -4.425781 -38.441406 -4.71875 -37.890625 C -5.007812 -37.335938 -5.4375 -36.945312 -6 -36.71875 C -6.613281 -36.476562 -7.203125 -36.46875 -7.765625 -36.6875 C -8.335938 -36.90625 -8.785156 -37.421875 -9.109375 -38.234375 C -9.429688 -39.046875 -9.453125 -39.722656 -9.171875 -40.265625 C -8.898438 -40.816406 -8.457031 -41.210938 -7.84375 -41.453125 Z M -7.84375 -41.453125 "/></g></g></g><g fill="#000000" fill-opacity="1"><g transform="translate(333.722774, 222.939702)"><g><path d="M 8.5 -1.890625 L 3.984375 -0.890625 L -2.515625 -30.171875 L 2 -31.171875 L 5.203125 -16.75 L 15.65625 -34.203125 L 18.578125 -34.84375 L 7.75 -18.171875 L 26.9375 -5.984375 L 21.40625 -4.140625 L 5.296875 -16.3125 Z M 8.5 -1.890625 "/></g></g></g><g fill="#000000" fill-opacity="1"><g transform="translate(365.904463, 216.780589)"><g/></g></g><g fill="#000000" fill-opacity="1"><g transform="translate(382.866123, 215.729537)"><g><path d="M 13.484375 0.515625 L 1.8125 0.0625 L 1.90625 -2.296875 L 5.75 -3 L 6.71875 -28.859375 L 2.9375 -29.921875 L 3.03125 -32.28125 L 14.703125 -31.828125 L 14.609375 -29.46875 L 10.796875 -28.71875 L 9.828125 -2.859375 L 13.578125 -1.84375 Z M 9.40625 -41.125 C 10.007812 -41.101562 10.535156 -40.878906 10.984375 -40.453125 C 11.441406 -40.035156 11.65625 -39.390625 11.625 -38.515625 C 11.59375 -37.640625 11.332031 -37.003906 10.84375 -36.609375 C 10.363281 -36.210938 9.820312 -36.023438 9.21875 -36.046875 C 8.550781 -36.078125 8 -36.304688 7.5625 -36.734375 C 7.125 -37.160156 6.921875 -37.8125 6.953125 -38.6875 C 6.984375 -39.5625 7.234375 -40.191406 7.703125 -40.578125 C 8.171875 -40.972656 8.738281 -41.15625 9.40625 -41.125 Z M 9.40625 -41.125 "/></g></g></g><g fill="#000000" fill-opacity="1"><g transform="translate(403.270751, 216.371105)"><g><path d="M 4 -13.671875 C 4.539062 -16.390625 5.539062 -18.710938 7 -20.640625 C 8.46875 -22.566406 10.160156 -23.972656 12.078125 -24.859375 C 15.992188 -26.679688 20.070312 -27.171875 24.3125 -26.328125 C 26.757812 -25.835938 29.226562 -24.878906 31.71875 -23.453125 L 30.671875 -20.515625 C 29.410156 -21.378906 28.421875 -22.035156 27.703125 -22.484375 C 25.640625 -23.734375 23.484375 -24.582031 21.234375 -25.03125 C 17.972656 -24.9375 15.273438 -23.867188 13.140625 -21.828125 C 11.003906 -19.785156 9.582031 -16.988281 8.875 -13.4375 C 8.007812 -9.082031 8.476562 -5.5 10.28125 -2.6875 C 12.09375 0.113281 14.863281 1.882812 18.59375 2.625 C 22.332031 3.363281 25.28125 3.117188 27.4375 1.890625 L 26.953125 4.328125 C 24.191406 4.828125 21.019531 4.722656 17.4375 4.015625 L 16.921875 3.90625 L 15.5625 6.078125 C 16.53125 6.273438 17.425781 6.722656 18.25 7.421875 C 19.070312 8.128906 19.632812 9.007812 19.9375 10.0625 C 19.738281 11.0625 19.046875 11.816406 17.859375 12.328125 C 16.671875 12.847656 15.335938 12.960938 13.859375 12.671875 C 12.390625 12.378906 11.125 11.882812 10.0625 11.1875 L 10.953125 9.9375 C 11.742188 10.46875 12.5625 10.816406 13.40625 10.984375 C 14.25 11.148438 14.957031 11.109375 15.53125 10.859375 C 16.101562 10.617188 16.4375 10.265625 16.53125 9.796875 C 16.15625 8.453125 14.992188 7.585938 13.046875 7.203125 L 15.421875 3.515625 C 11.367188 2.347656 8.238281 0.269531 6.03125 -2.71875 C 3.820312 -5.71875 3.144531 -9.367188 4 -13.671875 Z M 4 -13.671875 "/></g></g></g><g fill="#000000" fill-opacity="1"><g transform="translate(435.677096, 223.153454)"><g><path d="M 26.265625 -3 L 30.3125 -1.3125 L 25.71875 9.671875 C 22.914062 9.617188 19.828125 8.890625 16.453125 7.484375 C 12.359375 5.765625 9.289062 3.203125 7.25 -0.203125 C 6.257812 -1.890625 5.703125 -3.800781 5.578125 -5.9375 C 5.460938 -8.070312 5.851562 -10.207031 6.75 -12.34375 C 7.644531 -14.488281 8.785156 -16.28125 10.171875 -17.71875 C 11.554688 -19.15625 13.019531 -20.21875 14.5625 -20.90625 C 16.113281 -21.601562 17.769531 -22.0625 19.53125 -22.28125 C 22.8125 -22.6875 26.035156 -22.222656 29.203125 -20.890625 C 30.429688 -20.378906 31.695312 -19.6875 33 -18.8125 C 34.3125 -17.9375 35.28125 -17.1875 35.90625 -16.5625 L 34.3125 -13.9375 C 31.21875 -17.101562 28.429688 -19.207031 25.953125 -20.25 C 22.828125 -20.695312 19.976562 -20.128906 17.40625 -18.546875 C 14.832031 -16.972656 12.863281 -14.554688 11.5 -11.296875 C 9.800781 -7.234375 9.5625 -3.644531 10.78125 -0.53125 C 12 2.582031 14.363281 4.875 17.875 6.34375 C 19.269531 6.925781 20.597656 7.316406 21.859375 7.515625 Z M 26.265625 -3 "/></g></g></g><g fill="#000000" fill-opacity="1"><g transform="translate(467.956003, 237.036533)"><g><path d="M 31.984375 -14.953125 C 35.203125 -12.710938 37.128906 -9.800781 37.765625 -6.21875 C 38.398438 -2.632812 37.40625 1.039062 34.78125 4.8125 C 33.09375 7.238281 31.191406 9.070312 29.078125 10.3125 C 26.960938 11.5625 24.878906 12.207031 22.828125 12.25 C 18.835938 12.34375 15.242188 11.273438 12.046875 9.046875 C 8.847656 6.816406 6.945312 3.898438 6.34375 0.296875 C 5.738281 -3.296875 6.75 -6.976562 9.375 -10.75 C 10.726562 -12.707031 12.226562 -14.28125 13.875 -15.46875 C 15.53125 -16.65625 17.15625 -17.429688 18.75 -17.796875 C 20.351562 -18.160156 21.976562 -18.265625 23.625 -18.109375 C 26.632812 -17.785156 29.421875 -16.734375 31.984375 -14.953125 Z M 10.015625 0.671875 C 9.898438 2.203125 10.175781 3.65625 10.84375 5.03125 C 11.519531 6.40625 12.566406 7.585938 13.984375 8.578125 C 15.410156 9.566406 16.929688 10.085938 18.546875 10.140625 C 20.171875 10.203125 21.695312 9.867188 23.125 9.140625 C 26 7.679688 28.367188 5.613281 30.234375 2.9375 C 32.535156 -0.363281 33.734375 -3.472656 33.828125 -6.390625 C 33.921875 -9.671875 32.28125 -12.484375 28.90625 -14.828125 C 25.914062 -15.660156 23.082031 -15.476562 20.40625 -14.28125 C 17.738281 -13.082031 15.5 -11.179688 13.6875 -8.578125 C 11.476562 -5.398438 10.253906 -2.316406 10.015625 0.671875 Z M 28.40625 -19.5 L 27.96875 -19.8125 C 27.75 -20.03125 27.609375 -20.210938 27.546875 -20.359375 C 27.484375 -20.515625 27.421875 -20.644531 27.359375 -20.75 C 27.148438 -21.414062 27.21875 -22.03125 27.5625 -22.59375 L 27.671875 -22.75 C 28.035156 -23.269531 28.523438 -23.582031 29.140625 -23.6875 C 29.753906 -23.800781 30.316406 -23.675781 30.828125 -23.3125 C 31.597656 -22.78125 31.910156 -22.035156 31.765625 -21.078125 C 31.710938 -20.742188 31.585938 -20.441406 31.390625 -20.171875 L 31.28125 -20.015625 C 31.269531 -19.984375 31.222656 -19.925781 31.140625 -19.84375 C 30.921875 -19.582031 30.707031 -19.4375 30.5 -19.40625 L 30.046875 -19.21875 L 29.65625 -19.15625 C 29.53125 -19.175781 29.421875 -19.179688 29.328125 -19.171875 C 28.890625 -19.265625 28.582031 -19.375 28.40625 -19.5 Z M 34.640625 -15.953125 C 34.523438 -16.566406 34.648438 -17.132812 35.015625 -17.65625 C 35.378906 -18.175781 35.863281 -18.488281 36.46875 -18.59375 C 37.082031 -18.707031 37.648438 -18.582031 38.171875 -18.21875 C 38.691406 -17.851562 39.003906 -17.363281 39.109375 -16.75 C 39.222656 -16.144531 39.097656 -15.582031 38.734375 -15.0625 C 38.367188 -14.539062 37.882812 -14.222656 37.28125 -14.109375 C 36.675781 -14.003906 36.113281 -14.132812 35.59375 -14.5 C 35.070312 -14.863281 34.753906 -15.347656 34.640625 -15.953125 Z M 34.640625 -15.953125 "/></g></g></g><g fill="#000000" fill-opacity="1"><g transform="translate(498.127373, 258.820782)"><g><path d="M 16.25 -3.640625 L 5.84375 6.1875 L 2.796875 2.96875 L 24.609375 -17.625 L 31.328125 -10.515625 C 33.421875 -8.296875 34.640625 -6.007812 34.984375 -3.65625 C 35.335938 -1.3125 34.707031 0.617188 33.09375 2.140625 C 31.476562 3.671875 29.671875 4.3125 27.671875 4.0625 C 25.671875 3.8125 23.582031 2.882812 21.40625 1.28125 L 19.0625 20.203125 L 14.984375 16.8125 L 18.640625 -1.109375 Z M 17.234375 -4.5625 L 19.234375 -2.4375 C 22.960938 1.507812 26.390625 2.007812 29.515625 -0.9375 C 30.046875 -1.4375 30.515625 -2.128906 30.921875 -3.015625 C 31.828125 -4.828125 31.722656 -6.765625 30.609375 -8.828125 C 29.203125 -10.316406 27.625 -11.613281 25.875 -12.71875 Z M 17.234375 -4.5625 "/></g></g></g><g fill="#000000" fill-opacity="1"><g transform="translate(520.760778, 283.383788)"><g><path d="M 39.40625 6.484375 L 23.796875 16.234375 C 21.421875 17.710938 19.472656 18.570312 17.953125 18.8125 C 17.265625 18.914062 16.425781 18.925781 15.4375 18.84375 C 14.445312 18.769531 13.539062 18.53125 12.71875 18.125 C 10.6875 17.050781 8.875 15.25 7.28125 12.71875 C 3.3125 6.351562 4.597656 1.125 11.140625 -2.96875 L 27.234375 -13.015625 L 29.6875 -9.09375 L 13.28125 1.15625 C 12.53125 1.625 11.929688 2.015625 11.484375 2.328125 C 11.046875 2.640625 10.476562 3.179688 9.78125 3.953125 C 9.09375 4.722656 8.625 5.476562 8.375 6.21875 C 8.132812 6.957031 8.09375 7.910156 8.25 9.078125 C 8.40625 10.253906 8.875 11.46875 9.65625 12.71875 C 12.65625 17.507812 16.71875 18.300781 21.84375 15.09375 L 38.359375 4.78125 Z M 37.875 -1.40625 C 38.019531 -2.007812 38.359375 -2.476562 38.890625 -2.8125 C 39.429688 -3.15625 40.003906 -3.253906 40.609375 -3.109375 C 41.210938 -2.972656 41.679688 -2.632812 42.015625 -2.09375 C 42.359375 -1.550781 42.457031 -0.976562 42.3125 -0.375 C 42.164062 0.21875 41.820312 0.679688 41.28125 1.015625 C 40.75 1.359375 40.179688 1.457031 39.578125 1.3125 C 38.984375 1.175781 38.515625 0.835938 38.171875 0.296875 C 37.835938 -0.242188 37.738281 -0.8125 37.875 -1.40625 Z M 33.859375 -10.203125 L 34.171875 -10.390625 C 34.703125 -10.734375 35.269531 -10.832031 35.875 -10.6875 C 36.488281 -10.539062 36.960938 -10.203125 37.296875 -9.671875 L 37.390625 -9.515625 L 37.609375 -8.890625 L 37.59375 -8.046875 L 37.5625 -7.859375 L 37.359375 -7.421875 C 37.347656 -7.335938 37.3125 -7.28125 37.25 -7.25 L 37.1875 -7.09375 L 36.703125 -6.640625 L 36.40625 -6.453125 C 36.375 -6.429688 36.304688 -6.40625 36.203125 -6.375 C 35.828125 -6.175781 35.347656 -6.144531 34.765625 -6.28125 C 34.191406 -6.457031 33.769531 -6.765625 33.5 -7.203125 C 33.226562 -7.640625 33.09375 -7.960938 33.09375 -8.171875 C 33.09375 -8.390625 33.085938 -8.566406 33.078125 -8.703125 C 33.160156 -9.328125 33.421875 -9.828125 33.859375 -10.203125 Z M 33.859375 -10.203125 "/></g></g></g><g fill="#000000" fill-opacity="1"><g transform="translate(195.165782, 465.12642)"><g><path d="M 15.484375 -7.953125 C 15.546875 -7.984375 15.59375 -7.96875 15.625 -7.90625 L 15.765625 -7.671875 L 17.765625 -4.234375 C 18.023438 -3.828125 18.289062 -3.378906 18.5625 -2.890625 L 19.3125 -1.53125 C 20.007812 -0.28125 20.484375 0.6875 20.734375 1.375 C 20.984375 2.0625 21.210938 2.742188 21.421875 3.421875 C 21.640625 4.109375 21.710938 4.914062 21.640625 5.84375 C 21.578125 6.78125 21.367188 7.679688 21.015625 8.546875 C 20.242188 10.367188 19.070312 11.710938 17.5 12.578125 C 15.925781 13.453125 14.285156 13.832031 12.578125 13.71875 C 10.109375 13.53125 7.976562 12.46875 6.1875 10.53125 C 5.613281 9.914062 5.117188 9.226562 4.703125 8.46875 L 0.3125 0.578125 C 0.28125 0.515625 0.289062 0.46875 0.34375 0.4375 L 0.65625 0.265625 C 0.71875 0.234375 0.765625 0.25 0.796875 0.3125 L 0.9375 0.546875 C 1.664062 1.859375 2.445312 2.28125 3.28125 1.8125 L 15.15625 -4.765625 C 15.5625 -4.984375 15.78125 -5.304688 15.8125 -5.734375 C 15.851562 -6.160156 15.765625 -6.570312 15.546875 -6.96875 L 15.15625 -7.65625 C 15.125 -7.71875 15.132812 -7.757812 15.1875 -7.78125 Z M 17.75 -3.09375 C 17.65625 -3.28125 17.515625 -3.316406 17.328125 -3.203125 L 4.078125 4.140625 C 3.535156 4.441406 3.53125 5.101562 4.0625 6.125 C 4.21875 6.414062 4.382812 6.726562 4.5625 7.0625 C 5.84375 9.363281 7.492188 10.8125 9.515625 11.40625 C 11.546875 12.007812 13.632812 11.710938 15.78125 10.515625 C 17.9375 9.328125 19.351562 7.75 20.03125 5.78125 C 20.707031 3.8125 20.492188 1.832031 19.390625 -0.15625 Z M 17.75 -3.09375 "/></g></g></g><g fill="#000000" fill-opacity="1"><g transform="translate(213.079073, 495.06655)"><g><path d="M 10.75 11.75 C 9.957031 11.457031 9.203125 11.050781 8.484375 10.53125 C 7.765625 10.019531 7.195312 9.507812 6.78125 9 C 5.9375 7.945312 5.296875 6.800781 4.859375 5.5625 C 4.285156 3.875 4.148438 2.253906 4.453125 0.703125 C 4.816406 -1.273438 5.914062 -2.992188 7.75 -4.453125 C 9.070312 -5.515625 10.550781 -6.140625 12.1875 -6.328125 C 13.820312 -6.523438 15.429688 -6.273438 17.015625 -5.578125 C 18.597656 -4.890625 19.941406 -3.851562 21.046875 -2.46875 C 22.148438 -1.09375 22.832031 0.378906 23.09375 1.953125 C 23.351562 3.535156 23.207031 5.082031 22.65625 6.59375 C 22.113281 8.113281 21.21875 9.367188 19.96875 10.359375 C 18.726562 11.359375 17.28125 11.984375 15.625 12.234375 C 13.976562 12.484375 12.351562 12.320312 10.75 11.75 Z M 9.703125 -2.671875 C 8.628906 -1.816406 7.753906 -0.734375 7.078125 0.578125 C 6.398438 1.890625 6.082031 3.253906 6.125 4.671875 C 6.164062 6.097656 6.648438 7.390625 7.578125 8.546875 C 8.898438 10.203125 10.566406 10.984375 12.578125 10.890625 C 14.367188 10.804688 16.148438 10.054688 17.921875 8.640625 C 19.703125 7.222656 20.828125 5.492188 21.296875 3.453125 C 21.523438 2.453125 21.539062 1.441406 21.34375 0.421875 C 21.15625 -0.597656 20.765625 -1.472656 20.171875 -2.203125 C 19.585938 -2.941406 19.03125 -3.476562 18.5 -3.8125 C 17.96875 -4.144531 17.40625 -4.390625 16.8125 -4.546875 C 16.226562 -4.710938 15.625 -4.785156 15 -4.765625 C 14.382812 -4.742188 13.773438 -4.648438 13.171875 -4.484375 C 11.929688 -4.128906 10.773438 -3.523438 9.703125 -2.671875 Z M 9.703125 -2.671875 "/></g></g></g><g fill="#000000" fill-opacity="1"><g transform="translate(236.653623, 522.525837)"><g><path d="M 19.53125 7.140625 C 19.601562 7.203125 19.59375 7.28125 19.5 7.375 C 19.414062 7.476562 19.320312 7.519531 19.21875 7.5 C 19.007812 7.414062 18.789062 7.316406 18.5625 7.203125 C 18.332031 7.097656 18.109375 7.019531 17.890625 6.96875 C 17.390625 6.851562 16.957031 7 16.59375 7.40625 L 13.90625 10.40625 C 13.789062 10.539062 13.300781 10.429688 12.4375 10.078125 C 11.582031 9.722656 10.90625 9.425781 10.40625 9.1875 C 8.082031 7.945312 6.425781 6.375 5.4375 4.46875 C 4.3125 2.269531 4.148438 0 4.953125 -2.34375 C 5.359375 -3.5 5.9375 -4.5 6.6875 -5.34375 C 7.445312 -6.1875 8.160156 -6.816406 8.828125 -7.234375 C 10.910156 -8.535156 13.171875 -8.9375 15.609375 -8.4375 C 17.210938 -8.113281 18.59375 -7.429688 19.75 -6.390625 C 20.914062 -5.347656 21.945312 -4.015625 22.84375 -2.390625 C 23.007812 -2.085938 23.109375 -1.921875 23.140625 -1.890625 L 23.234375 -1.796875 L 23.6875 -1.5625 L 23.921875 -1.359375 C 23.992188 -1.296875 24 -1.226562 23.9375 -1.15625 L 21.1875 1.921875 C 21.082031 2.035156 20.957031 2.03125 20.8125 1.90625 L 20.78125 1.875 C 20.6875 1.75 20.75 1.519531 20.96875 1.1875 C 21.007812 1.125 21.039062 1.070312 21.0625 1.03125 C 22.164062 -1.445312 21.722656 -3.570312 19.734375 -5.34375 C 18.148438 -6.757812 16.347656 -7.289062 14.328125 -6.9375 C 12.304688 -6.582031 10.554688 -5.578125 9.078125 -3.921875 C 7.597656 -2.273438 6.765625 -0.390625 6.578125 1.734375 C 6.398438 3.867188 7.144531 5.679688 8.8125 7.171875 C 9.664062 7.929688 10.484375 8.425781 11.265625 8.65625 C 11.585938 8.738281 11.875 8.753906 12.125 8.703125 L 14.390625 6.15625 C 14.898438 5.59375 15.113281 5.03125 15.03125 4.46875 C 14.945312 3.914062 14.460938 3.25 13.578125 2.46875 C 13.515625 2.414062 13.535156 2.328125 13.640625 2.203125 C 13.742188 2.085938 13.828125 2.054688 13.890625 2.109375 Z M 21.34375 -8.140625 C 20.675781 -8.742188 20.359375 -9.554688 20.390625 -10.578125 C 20.421875 -11.597656 20.78125 -12.488281 21.46875 -13.25 L 21.75 -13 C 21.289062 -12.488281 21.148438 -11.84375 21.328125 -11.0625 C 21.515625 -10.28125 21.847656 -9.671875 22.328125 -9.234375 C 22.816406 -8.804688 23.492188 -8.578125 24.359375 -8.546875 C 25.222656 -8.515625 25.820312 -8.6875 26.15625 -9.0625 L 26.46875 -8.78125 C 25.820312 -8.0625 24.972656 -7.625 23.921875 -7.46875 C 22.878906 -7.320312 22.019531 -7.546875 21.34375 -8.140625 Z M 21.34375 -8.140625 "/></g></g></g><g fill="#000000" fill-opacity="1"><g transform="translate(263.007959, 544.463101)"><g><path d="M 0.53125 0.34375 C 0.476562 0.3125 0.5 0.226562 0.59375 0.09375 L 0.671875 -0.03125 C 0.703125 -0.09375 0.742188 -0.109375 0.796875 -0.078125 C 0.847656 -0.046875 0.921875 -0.0078125 1.015625 0.03125 C 1.117188 0.0820312 1.222656 0.128906 1.328125 0.171875 C 1.441406 0.222656 1.546875 0.269531 1.640625 0.3125 C 1.734375 0.351562 1.796875 0.378906 1.828125 0.390625 C 2.640625 0.691406 3.253906 0.519531 3.671875 -0.125 L 10.765625 -11.125 C 11.148438 -11.71875 11.1875 -12.296875 10.875 -12.859375 C 10.675781 -13.191406 10.414062 -13.460938 10.09375 -13.671875 L 9.703125 -13.921875 C 9.648438 -13.960938 9.644531 -14.015625 9.6875 -14.078125 L 9.84375 -14.328125 C 9.875 -14.378906 9.925781 -14.378906 10 -14.328125 L 15.84375 -10.78125 L 16.890625 -10.109375 C 18.054688 -9.234375 18.796875 -8.125 19.109375 -6.78125 C 19.421875 -5.4375 19.191406 -4.171875 18.421875 -2.984375 C 17.660156 -1.804688 16.570312 -1.207031 15.15625 -1.1875 C 14.71875 -1.175781 14.273438 -1.207031 13.828125 -1.28125 L 13.65625 5.90625 C 13.625 7.15625 13.945312 8.265625 14.625 9.234375 C 14.695312 9.296875 14.707031 9.367188 14.65625 9.453125 C 14.539062 9.628906 14.367188 9.644531 14.140625 9.5 C 12.566406 8.488281 11.707031 7.09375 11.5625 5.3125 C 11.53125 4.914062 11.519531 4.488281 11.53125 4.03125 L 11.546875 -1.9375 L 9.171875 -3.65625 L 9.078125 -3.703125 C 8.972656 -3.773438 8.890625 -3.765625 8.828125 -3.671875 L 5.71875 1.140625 C 5.476562 1.515625 5.40625 1.863281 5.5 2.1875 C 5.59375 2.519531 5.878906 2.894531 6.359375 3.3125 C 6.484375 3.414062 6.632812 3.550781 6.8125 3.71875 C 6.988281 3.882812 7.113281 3.988281 7.1875 4.03125 C 7.257812 4.082031 7.28125 4.140625 7.25 4.203125 L 7.078125 4.453125 C 7.046875 4.503906 7 4.515625 6.9375 4.484375 Z M 14.625 -10.796875 C 14.539062 -10.847656 14.445312 -10.898438 14.34375 -10.953125 C 14.25 -11.003906 14.128906 -11.078125 13.984375 -11.171875 C 13.835938 -11.265625 13.726562 -11.257812 13.65625 -11.15625 L 9.59375 -4.84375 L 9.40625 -4.515625 C 9.332031 -4.367188 9.347656 -4.253906 9.453125 -4.171875 L 10.484375 -3.421875 C 12.429688 -2.160156 14.054688 -2.09375 15.359375 -3.21875 C 15.773438 -3.570312 16.164062 -4.03125 16.53125 -4.59375 C 17.226562 -5.6875 17.4375 -6.769531 17.15625 -7.84375 C 16.882812 -8.914062 16.21875 -9.796875 15.15625 -10.484375 C 15.0625 -10.546875 14.972656 -10.601562 14.890625 -10.65625 C 14.804688 -10.707031 14.71875 -10.753906 14.625 -10.796875 Z M 14.625 -10.796875 "/></g></g></g><g fill="#000000" fill-opacity="1"><g transform="translate(290.261155, 560.866027)"><g><path d="M 13.34375 -12.65625 C 12.082031 -13.21875 11.226562 -12.992188 10.78125 -11.984375 L 7.203125 -3.859375 C 6.546875 -2.359375 6.503906 -0.914062 7.078125 0.46875 C 7.648438 1.851562 8.707031 2.882812 10.25 3.5625 C 11.863281 4.269531 13.375 4.414062 14.78125 4 C 16.195312 3.59375 17.242188 2.625 17.921875 1.09375 L 21.09375 -6.109375 C 21.414062 -6.835938 21.578125 -7.367188 21.578125 -7.703125 C 21.566406 -8.585938 20.992188 -9.285156 19.859375 -9.796875 C 19.796875 -9.816406 19.78125 -9.859375 19.8125 -9.921875 L 19.9375 -10.1875 C 19.957031 -10.25 20 -10.269531 20.0625 -10.25 L 25.640625 -7.796875 C 25.703125 -7.765625 25.722656 -7.71875 25.703125 -7.65625 L 25.578125 -7.390625 C 25.546875 -7.328125 25.441406 -7.332031 25.265625 -7.40625 C 24.273438 -7.84375 23.5 -7.722656 22.9375 -7.046875 C 22.851562 -6.929688 22.785156 -6.816406 22.734375 -6.703125 L 19.46875 0.71875 C 18.007812 4.039062 15.796875 5.613281 12.828125 5.4375 C 11.835938 5.382812 10.921875 5.171875 10.078125 4.796875 C 7.046875 3.460938 5.15625 1.6875 4.40625 -0.53125 C 4.03125 -1.675781 4.109375 -2.851562 4.640625 -4.0625 L 8.640625 -13.125 C 8.921875 -13.769531 8.722656 -14.359375 8.046875 -14.890625 C 7.835938 -15.054688 7.65625 -15.171875 7.5 -15.234375 C 7.34375 -15.304688 7.28125 -15.375 7.3125 -15.4375 L 7.4375 -15.703125 C 7.457031 -15.765625 7.488281 -15.785156 7.53125 -15.765625 L 13.6875 -13.0625 C 13.738281 -13.03125 13.753906 -12.984375 13.734375 -12.921875 L 13.609375 -12.65625 C 13.578125 -12.59375 13.488281 -12.59375 13.34375 -12.65625 Z M 13.34375 -12.65625 "/></g></g></g><g fill="#000000" fill-opacity="1"><g transform="translate(322.626931, 573.620266)"><g/></g></g><g fill="#000000" fill-opacity="1"><g transform="translate(342.745732, 578.7827)"><g><path d="M 5.859375 -14.671875 C 6.035156 -15.640625 5.5625 -16.226562 4.4375 -16.4375 C 4.257812 -16.46875 4.175781 -16.519531 4.1875 -16.59375 L 4.25 -16.890625 C 4.257812 -16.953125 4.296875 -16.976562 4.359375 -16.96875 L 10.46875 -15.84375 C 10.53125 -15.832031 10.554688 -15.796875 10.546875 -15.734375 L 10.484375 -15.4375 C 10.472656 -15.363281 10.285156 -15.359375 9.921875 -15.421875 C 9.566406 -15.492188 9.21875 -15.441406 8.875 -15.265625 C 8.53125 -15.097656 8.296875 -14.660156 8.171875 -13.953125 L 5.796875 -0.953125 C 5.617188 0.0234375 6.097656 0.617188 7.234375 0.828125 C 7.398438 0.847656 7.472656 0.890625 7.453125 0.953125 L 7.40625 1.25 C 7.394531 1.3125 7.359375 1.335938 7.296875 1.328125 L 1.203125 0.21875 C 1.128906 0.207031 1.097656 0.171875 1.109375 0.109375 L 1.15625 -0.1875 C 1.175781 -0.25 1.363281 -0.25 1.71875 -0.1875 C 2.082031 -0.125 2.4375 -0.175781 2.78125 -0.34375 C 3.125 -0.519531 3.359375 -0.960938 3.484375 -1.671875 Z M 9.71875 -21.03125 C 9.59375 -20.3125 9.21875 -19.882812 8.59375 -19.75 C 8.40625 -19.707031 8.160156 -19.710938 7.859375 -19.765625 C 7.566406 -19.816406 7.304688 -20 7.078125 -20.3125 C 6.847656 -20.632812 6.769531 -21 6.84375 -21.40625 C 6.925781 -21.8125 7.128906 -22.125 7.453125 -22.34375 C 7.773438 -22.570312 8.132812 -22.648438 8.53125 -22.578125 C 8.925781 -22.503906 9.238281 -22.300781 9.46875 -21.96875 C 9.695312 -21.644531 9.78125 -21.332031 9.71875 -21.03125 Z M 9.71875 -21.03125 "/></g></g></g><g fill="#000000" fill-opacity="1"><g transform="translate(365.271108, 582.359293)"><g><path d="M 0.84375 0.03125 C 0.78125 0.03125 0.75 0 0.75 -0.0625 L 0.765625 -0.359375 C 0.765625 -0.429688 0.804688 -0.46875 0.890625 -0.46875 L 1.171875 -0.453125 C 1.617188 -0.429688 1.929688 -0.457031 2.109375 -0.53125 C 2.734375 -0.800781 3.070312 -1.609375 3.125 -2.953125 L 3.671875 -15.8125 C 3.691406 -16.363281 3.171875 -16.710938 2.109375 -16.859375 C 1.867188 -16.890625 1.703125 -16.90625 1.609375 -16.90625 C 1.515625 -16.914062 1.46875 -16.957031 1.46875 -17.03125 L 1.484375 -17.328125 C 1.484375 -17.390625 1.515625 -17.421875 1.578125 -17.421875 L 6.109375 -17.21875 L 17.3125 -3.75 C 17.351562 -3.707031 17.378906 -3.671875 17.390625 -3.640625 C 17.410156 -3.617188 17.4375 -3.609375 17.46875 -3.609375 C 17.507812 -3.609375 17.53125 -3.644531 17.53125 -3.71875 L 17.890625 -12.25 C 17.960938 -13.894531 17.875 -14.972656 17.625 -15.484375 C 17.375 -15.992188 16.832031 -16.269531 16 -16.3125 L 15.375 -16.328125 C 15.3125 -16.335938 15.28125 -16.378906 15.28125 -16.453125 L 15.296875 -16.75 C 15.296875 -16.8125 15.328125 -16.835938 15.390625 -16.828125 L 21.828125 -16.5625 C 21.898438 -16.5625 21.9375 -16.53125 21.9375 -16.46875 L 21.921875 -16.171875 C 21.921875 -16.097656 21.796875 -16.066406 21.546875 -16.078125 C 21.304688 -16.085938 20.898438 -15.960938 20.328125 -15.703125 C 19.765625 -15.441406 19.472656 -15.109375 19.453125 -14.703125 L 18.8125 0.4375 C 18.800781 0.613281 18.769531 0.738281 18.71875 0.8125 C 18.664062 0.894531 18.546875 0.929688 18.359375 0.921875 C 18.179688 0.921875 18.046875 0.878906 17.953125 0.796875 C 17.859375 0.710938 17.753906 0.601562 17.640625 0.46875 L 5.484375 -14.234375 C 5.398438 -14.316406 5.320312 -14.359375 5.25 -14.359375 C 5.207031 -14.367188 5.1875 -14.332031 5.1875 -14.25 L 4.671875 -1.890625 C 4.640625 -1.140625 5.21875 -0.617188 6.40625 -0.328125 C 6.71875 -0.242188 6.960938 -0.195312 7.140625 -0.1875 C 7.316406 -0.1875 7.40625 -0.148438 7.40625 -0.078125 L 7.390625 0.21875 C 7.390625 0.28125 7.351562 0.3125 7.28125 0.3125 Z M 0.84375 0.03125 "/></g></g></g><g fill="#000000" fill-opacity="1"><g transform="translate(401.199734, 582.667106)"><g><path d="M 15.625 -3.078125 C 14.96875 -2.554688 14.234375 -2.117188 13.421875 -1.765625 C 12.609375 -1.410156 11.875 -1.191406 11.21875 -1.109375 C 9.875 -0.941406 8.5625 -1 7.28125 -1.28125 C 5.53125 -1.65625 4.070312 -2.367188 2.90625 -3.421875 C 1.40625 -4.773438 0.503906 -6.613281 0.203125 -8.9375 C -0.00390625 -10.625 0.226562 -12.210938 0.90625 -13.703125 C 1.59375 -15.203125 2.644531 -16.445312 4.0625 -17.4375 C 5.476562 -18.425781 7.0625 -19.035156 8.8125 -19.265625 C 10.570312 -19.492188 12.191406 -19.3125 13.671875 -18.71875 C 15.148438 -18.125 16.394531 -17.195312 17.40625 -15.9375 C 18.414062 -14.6875 19.019531 -13.269531 19.21875 -11.6875 C 19.425781 -10.101562 19.207031 -8.539062 18.5625 -7 C 17.914062 -5.46875 16.9375 -4.160156 15.625 -3.078125 Z M 2.75 -9.671875 C 2.925781 -8.316406 3.398438 -7.003906 4.171875 -5.734375 C 4.941406 -4.472656 5.941406 -3.492188 7.171875 -2.796875 C 8.410156 -2.097656 9.765625 -1.847656 11.234375 -2.046875 C 13.328125 -2.316406 14.859375 -3.328125 15.828125 -5.078125 C 16.703125 -6.660156 16.992188 -8.578125 16.703125 -10.828125 C 16.410156 -13.085938 15.515625 -14.945312 14.015625 -16.40625 C 13.273438 -17.125 12.414062 -17.664062 11.4375 -18.03125 C 10.46875 -18.394531 9.515625 -18.515625 8.578125 -18.390625 C 7.648438 -18.273438 6.90625 -18.070312 6.34375 -17.78125 C 5.78125 -17.5 5.273438 -17.148438 4.828125 -16.734375 C 4.390625 -16.316406 4.019531 -15.835938 3.71875 -15.296875 C 3.414062 -14.765625 3.179688 -14.191406 3.015625 -13.578125 C 2.660156 -12.335938 2.570312 -11.035156 2.75 -9.671875 Z M 2.75 -9.671875 "/></g></g></g><g fill="#000000" fill-opacity="1"><g transform="translate(436.881692, 576.747692)"><g><path d="M 12.875 -21.703125 C 12.90625 -21.628906 12.890625 -21.582031 12.828125 -21.5625 L 12.390625 -21.4375 C 11.429688 -20.945312 10.929688 -19.898438 10.890625 -18.296875 C 10.890625 -17.890625 10.875 -17.488281 10.84375 -17.09375 L 9.96875 -3.09375 C 9.957031 -2.882812 9.90625 -2.742188 9.8125 -2.671875 C 9.71875 -2.597656 9.582031 -2.535156 9.40625 -2.484375 L 8.828125 -2.3125 C 8.640625 -2.257812 8.492188 -2.304688 8.390625 -2.453125 L -2.40625 -15.734375 C -2.84375 -16.285156 -3.582031 -16.484375 -4.625 -16.328125 C -4.675781 -16.304688 -4.71875 -16.289062 -4.75 -16.28125 C -4.789062 -16.269531 -4.828125 -16.300781 -4.859375 -16.375 L -4.9375 -16.65625 C -4.957031 -16.71875 -4.9375 -16.757812 -4.875 -16.78125 L 2.125 -18.890625 C 2.1875 -18.910156 2.226562 -18.890625 2.25 -18.828125 L 2.328125 -18.546875 C 2.359375 -18.472656 2.34375 -18.425781 2.28125 -18.40625 L 2.09375 -18.34375 C 1.894531 -18.25 1.671875 -18.148438 1.421875 -18.046875 C 0.460938 -17.617188 0.0859375 -17.066406 0.296875 -16.390625 C 0.359375 -16.179688 0.476562 -15.96875 0.65625 -15.75 L 8.421875 -6.15625 C 8.554688 -6.019531 8.644531 -6.050781 8.6875 -6.25 L 9.453125 -18.671875 C 9.460938 -18.835938 9.4375 -19.023438 9.375 -19.234375 C 9.3125 -19.453125 9.15625 -19.640625 8.90625 -19.796875 C 8.65625 -19.953125 8.429688 -20.015625 8.234375 -19.984375 C 8.046875 -19.953125 7.894531 -19.925781 7.78125 -19.90625 C 7.675781 -19.894531 7.515625 -19.875 7.296875 -19.84375 C 7.078125 -19.820312 6.925781 -19.796875 6.84375 -19.765625 C 6.769531 -19.742188 6.71875 -19.769531 6.6875 -19.84375 L 6.609375 -20.125 C 6.585938 -20.1875 6.613281 -20.226562 6.6875 -20.25 L 12.671875 -22.046875 C 12.734375 -22.066406 12.773438 -22.046875 12.796875 -21.984375 Z M 12.875 -21.703125 "/></g></g></g><g fill="#000000" fill-opacity="1"><g transform="translate(467.998302, 566.230384)"><g><path d="M 5.90625 -2.921875 C 5.9375 -2.867188 5.921875 -2.828125 5.859375 -2.796875 L 0.140625 -0.0625 C 0.0859375 -0.0390625 0.046875 -0.0546875 0.015625 -0.109375 L -0.109375 -0.390625 C -0.140625 -0.453125 -0.109375 -0.503906 -0.015625 -0.546875 C 0.984375 -1.066406 1.414062 -1.9375 1.28125 -3.15625 L -0.46875 -18.546875 C -0.46875 -18.566406 -0.472656 -18.585938 -0.484375 -18.609375 L -0.78125 -18.921875 C -0.800781 -18.960938 -0.796875 -18.988281 -0.765625 -19 L 1.46875 -20.0625 C 1.476562 -20.0625 1.5 -20.0625 1.53125 -20.0625 C 1.5625 -20.070312 1.59375 -20.0625 1.625 -20.03125 L 12.703125 -9.015625 C 12.910156 -8.867188 13.082031 -8.726562 13.21875 -8.59375 C 13.363281 -8.457031 13.507812 -8.34375 13.65625 -8.25 C 13.976562 -8.019531 14.378906 -7.925781 14.859375 -7.96875 C 15.285156 -7.96875 15.640625 -8.035156 15.921875 -8.171875 C 15.972656 -8.191406 16.015625 -8.171875 16.046875 -8.109375 L 16.171875 -7.828125 C 16.203125 -7.773438 16.191406 -7.738281 16.140625 -7.71875 L 9.296875 -4.453125 C 9.234375 -4.421875 9.1875 -4.429688 9.15625 -4.484375 L 9.03125 -4.765625 C 9 -4.828125 9.117188 -4.929688 9.390625 -5.078125 C 9.660156 -5.222656 9.882812 -5.335938 10.0625 -5.421875 C 11.039062 -6.035156 11.390625 -6.640625 11.109375 -7.234375 C 11.085938 -7.285156 11.054688 -7.332031 11.015625 -7.375 L 7.0625 -11.34375 C 7.039062 -11.351562 7.007812 -11.375 6.96875 -11.40625 C 6.75 -11.625 6.53125 -11.679688 6.3125 -11.578125 L 2.34375 -9.671875 C 2.113281 -9.566406 1.992188 -9.359375 1.984375 -9.046875 C 1.992188 -8.984375 2 -8.953125 2 -8.953125 L 2.65625 -3.234375 L 2.703125 -3.140625 C 2.796875 -2.953125 2.984375 -2.820312 3.265625 -2.75 C 3.878906 -2.625 4.570312 -2.742188 5.34375 -3.109375 L 5.640625 -3.25 C 5.703125 -3.28125 5.75 -3.265625 5.78125 -3.203125 Z M 5.34375 -12.625 C 5.46875 -12.6875 5.503906 -12.773438 5.453125 -12.890625 C 5.421875 -12.941406 5.378906 -13.003906 5.328125 -13.078125 L 1.46875 -16.859375 C 1.289062 -17.035156 1.179688 -17.113281 1.140625 -17.09375 C 1.109375 -17.070312 1.101562 -16.9375 1.125 -16.6875 L 1.75 -11.375 C 1.75 -11.269531 1.769531 -11.175781 1.8125 -11.09375 C 1.851562 -11.007812 1.929688 -10.992188 2.046875 -11.046875 Z M 5.34375 -12.625 "/></g></g></g><g fill="#000000" fill-opacity="1"><g transform="translate(496.501045, 551.308473)"><g><path d="M -0.859375 -20.21875 C -0.796875 -20.257812 -0.710938 -20.203125 -0.609375 -20.046875 L 1.125 -18.03125 C 1.238281 -17.90625 1.304688 -17.820312 1.328125 -17.78125 C 1.359375 -17.75 1.316406 -17.695312 1.203125 -17.625 C 1.097656 -17.5625 1.019531 -17.53125 0.96875 -17.53125 C 0.925781 -17.539062 0.867188 -17.570312 0.796875 -17.625 C 0.734375 -17.675781 0.65625 -17.726562 0.5625 -17.78125 C 0.476562 -17.84375 0.382812 -17.898438 0.28125 -17.953125 C -0.0703125 -18.171875 -0.507812 -18.332031 -1.03125 -18.4375 C -2.257812 -18.664062 -3.351562 -18.46875 -4.3125 -17.84375 C -4.882812 -17.457031 -5.300781 -16.90625 -5.5625 -16.1875 C -5.820312 -15.476562 -5.785156 -14.875 -5.453125 -14.375 C -5.117188 -13.875 -4.734375 -13.5 -4.296875 -13.25 C -3.859375 -13.007812 -3.378906 -12.832031 -2.859375 -12.71875 C -2.335938 -12.601562 -1.78125 -12.53125 -1.1875 -12.5 C -0.601562 -12.476562 -0.00390625 -12.457031 0.609375 -12.4375 C 2.210938 -12.40625 3.421875 -12.269531 4.234375 -12.03125 C 5.523438 -11.664062 6.546875 -10.976562 7.296875 -9.96875 C 8.066406 -8.8125 8.234375 -7.582031 7.796875 -6.28125 C 7.367188 -4.988281 6.5625 -3.945312 5.375 -3.15625 C 4.601562 -2.644531 3.941406 -2.316406 3.390625 -2.171875 C 2.835938 -2.035156 2.453125 -1.941406 2.234375 -1.890625 C 2.015625 -1.847656 1.863281 -1.800781 1.78125 -1.75 C 1.695312 -1.695312 1.65625 -1.660156 1.65625 -1.640625 L 1.203125 -1.203125 C 1.117188 -1.148438 1.015625 -1.1875 0.890625 -1.3125 C -0.441406 -2.882812 -1.140625 -3.722656 -1.203125 -3.828125 C -1.273438 -3.929688 -1.3125 -4.003906 -1.3125 -4.046875 C -1.320312 -4.097656 -1.289062 -4.148438 -1.21875 -4.203125 C -1.03125 -4.335938 -0.675781 -4.1875 -0.15625 -3.75 C 1.601562 -2.675781 3.320312 -2.695312 5 -3.8125 C 5.769531 -4.320312 6.269531 -4.988281 6.5 -5.8125 C 6.738281 -6.644531 6.609375 -7.429688 6.109375 -8.171875 C 5.316406 -9.367188 3.863281 -10.015625 1.75 -10.109375 C 1.15625 -10.128906 0.304688 -10.144531 -0.796875 -10.15625 C -1.910156 -10.164062 -2.863281 -10.273438 -3.65625 -10.484375 C -4.90625 -10.816406 -5.851562 -11.472656 -6.5 -12.453125 C -7.15625 -13.429688 -7.296875 -14.488281 -6.921875 -15.625 C -6.554688 -16.769531 -5.863281 -17.679688 -4.84375 -18.359375 C -4.320312 -18.703125 -3.6875 -18.992188 -2.9375 -19.234375 C -2.1875 -19.472656 -1.671875 -19.644531 -1.390625 -19.75 Z M -0.859375 -20.21875 "/></g></g></g><g fill="#000000" fill-opacity="1"><g transform="translate(518.447555, 535.818851)"><g><path d="M 4.859375 -4.328125 C 4.648438 -4.140625 4.488281 -4.109375 4.375 -4.234375 L 4.296875 -4.328125 C 4.210938 -4.421875 4.25 -4.5625 4.40625 -4.75 C 4.570312 -4.9375 4.679688 -5.054688 4.734375 -5.109375 C 5.148438 -5.578125 5.375 -5.988281 5.40625 -6.34375 C 5.4375 -6.695312 5.289062 -7.054688 4.96875 -7.421875 L 2.25 -10.484375 C 2.207031 -10.523438 2.160156 -10.554688 2.109375 -10.578125 L -7.046875 -13.265625 C -8.472656 -13.671875 -9.546875 -13.691406 -10.265625 -13.328125 C -10.296875 -13.296875 -10.359375 -13.253906 -10.453125 -13.203125 C -10.546875 -13.160156 -10.753906 -13.035156 -11.078125 -12.828125 C -11.203125 -12.753906 -11.316406 -12.773438 -11.421875 -12.890625 C -11.523438 -13.015625 -11.53125 -13.117188 -11.4375 -13.203125 L -6.140625 -17.921875 C -6.035156 -18.003906 -5.925781 -17.984375 -5.8125 -17.859375 C -5.707031 -17.734375 -5.707031 -17.628906 -5.8125 -17.546875 C -6.1875 -17.140625 -6.425781 -16.851562 -6.53125 -16.6875 C -6.738281 -16.289062 -6.71875 -15.957031 -6.46875 -15.6875 C -6.332031 -15.53125 -6.171875 -15.425781 -5.984375 -15.375 L 1.578125 -13.171875 C 1.734375 -13.140625 1.832031 -13.113281 1.875 -13.09375 C 1.925781 -13.082031 1.972656 -13.097656 2.015625 -13.140625 C 2.066406 -13.179688 2.066406 -13.335938 2.015625 -13.609375 L 0.75 -20.09375 C 0.6875 -20.300781 0.625 -20.535156 0.5625 -20.796875 C 0.507812 -21.054688 0.40625 -21.273438 0.25 -21.453125 C -0.144531 -21.898438 -0.691406 -21.890625 -1.390625 -21.421875 C -1.640625 -21.253906 -1.785156 -21.179688 -1.828125 -21.203125 C -1.878906 -21.222656 -1.929688 -21.265625 -1.984375 -21.328125 C -2.078125 -21.429688 -2.078125 -21.53125 -1.984375 -21.625 L 2.34375 -25.46875 C 2.4375 -25.539062 2.519531 -25.535156 2.59375 -25.453125 C 2.664062 -25.367188 2.703125 -25.300781 2.703125 -25.25 C 2.703125 -25.195312 2.679688 -25.140625 2.640625 -25.078125 C 2.609375 -25.023438 2.570312 -24.96875 2.53125 -24.90625 C 2.488281 -24.851562 2.394531 -24.722656 2.25 -24.515625 C 1.894531 -24.015625 1.726562 -23.25 1.75 -22.21875 C 1.75 -22.09375 1.753906 -22.03125 1.765625 -22.03125 L 3.703125 -12.484375 L 6.78125 -9.03125 C 7.082031 -8.695312 7.410156 -8.515625 7.765625 -8.484375 C 8.117188 -8.460938 8.546875 -8.617188 9.046875 -8.953125 C 9.546875 -9.296875 9.832031 -9.425781 9.90625 -9.34375 L 10 -9.234375 C 10.113281 -9.109375 10.066406 -8.957031 9.859375 -8.78125 Z M 4.859375 -4.328125 "/></g></g></g><g fill="#000000" fill-opacity="1"><g transform="translate(542.51964, 512.985828)"><g><path d="M 9.15625 -13.03125 C 9.050781 -12.195312 8.820312 -11.367188 8.46875 -10.546875 C 8.125 -9.734375 7.742188 -9.070312 7.328125 -8.5625 C 6.472656 -7.507812 5.492188 -6.640625 4.390625 -5.953125 C 2.859375 -5.023438 1.304688 -4.539062 -0.265625 -4.5 C -2.273438 -4.4375 -4.191406 -5.144531 -6.015625 -6.625 C -7.335938 -7.6875 -8.265625 -8.992188 -8.796875 -10.546875 C -9.335938 -12.097656 -9.441406 -13.71875 -9.109375 -15.40625 C -8.773438 -17.101562 -8.050781 -18.640625 -6.9375 -20.015625 C -5.832031 -21.390625 -4.535156 -22.375 -3.046875 -22.96875 C -1.566406 -23.570312 -0.03125 -23.765625 1.5625 -23.546875 C 3.164062 -23.335938 4.585938 -22.734375 5.828125 -21.734375 C 7.066406 -20.734375 7.984375 -19.453125 8.578125 -17.890625 C 9.171875 -16.335938 9.363281 -14.71875 9.15625 -13.03125 Z M -4.6875 -8.890625 C -3.625 -8.035156 -2.378906 -7.414062 -0.953125 -7.03125 C 0.472656 -6.65625 1.875 -6.640625 3.25 -6.984375 C 4.625 -7.328125 5.78125 -8.078125 6.71875 -9.234375 C 8.039062 -10.878906 8.445312 -12.675781 7.9375 -14.625 C 7.46875 -16.363281 6.347656 -17.945312 4.578125 -19.375 C 2.816406 -20.800781 0.882812 -21.523438 -1.21875 -21.546875 C -2.238281 -21.554688 -3.222656 -21.351562 -4.171875 -20.9375 C -5.128906 -20.519531 -5.898438 -19.945312 -6.484375 -19.21875 C -7.078125 -18.488281 -7.476562 -17.828125 -7.6875 -17.234375 C -7.90625 -16.640625 -8.03125 -16.039062 -8.0625 -15.4375 C -8.101562 -14.832031 -8.046875 -14.226562 -7.890625 -13.625 C -7.734375 -13.03125 -7.503906 -12.453125 -7.203125 -11.890625 C -6.585938 -10.753906 -5.75 -9.753906 -4.6875 -8.890625 Z M -4.6875 -8.890625 "/></g></g></g><g fill="#000000" fill-opacity="1"><g transform="translate(564.30111, 484.054435)"><g><path d="M 0.40625 -0.734375 C 0.375 -0.679688 0.332031 -0.671875 0.28125 -0.703125 L 0.015625 -0.84375 C -0.046875 -0.882812 -0.0546875 -0.941406 -0.015625 -1.015625 L 0.125 -1.265625 C 0.34375 -1.648438 0.457031 -1.929688 0.46875 -2.109375 C 0.519531 -2.796875 -0.0390625 -3.46875 -1.21875 -4.125 L -12.46875 -10.390625 C -12.945312 -10.660156 -13.5 -10.351562 -14.125 -9.46875 C -14.25 -9.269531 -14.332031 -9.128906 -14.375 -9.046875 C -14.425781 -8.960938 -14.488281 -8.9375 -14.5625 -8.96875 L -14.8125 -9.125 C -14.863281 -9.15625 -14.875 -9.195312 -14.84375 -9.25 L -12.625 -13.203125 L 4.4375 -17.140625 C 4.5 -17.160156 4.539062 -17.171875 4.5625 -17.171875 C 4.59375 -17.171875 4.613281 -17.1875 4.625 -17.21875 C 4.644531 -17.25 4.625 -17.285156 4.5625 -17.328125 L -2.90625 -21.484375 C -4.34375 -22.285156 -5.34375 -22.691406 -5.90625 -22.703125 C -6.46875 -22.710938 -6.953125 -22.351562 -7.359375 -21.625 L -7.671875 -21.078125 C -7.703125 -21.023438 -7.753906 -21.015625 -7.828125 -21.046875 L -8.078125 -21.203125 C -8.128906 -21.234375 -8.140625 -21.273438 -8.109375 -21.328125 L -4.96875 -26.953125 C -4.9375 -27.015625 -4.894531 -27.03125 -4.84375 -27 L -4.59375 -26.84375 C -4.519531 -26.8125 -4.539062 -26.6875 -4.65625 -26.46875 C -4.769531 -26.257812 -4.84375 -25.84375 -4.875 -25.21875 C -4.90625 -24.601562 -4.742188 -24.195312 -4.390625 -24 L 8.84375 -16.609375 C 9 -16.523438 9.101562 -16.4375 9.15625 -16.34375 C 9.207031 -16.257812 9.1875 -16.132812 9.09375 -15.96875 C 9.007812 -15.8125 8.910156 -15.707031 8.796875 -15.65625 C 8.679688 -15.613281 8.53125 -15.578125 8.34375 -15.546875 L -10.25 -11.296875 C -10.363281 -11.253906 -10.4375 -11.203125 -10.46875 -11.140625 C -10.488281 -11.109375 -10.460938 -11.078125 -10.390625 -11.046875 L 0.421875 -5.015625 C 1.078125 -4.648438 1.800781 -4.929688 2.59375 -5.859375 C 2.800781 -6.109375 2.945312 -6.3125 3.03125 -6.46875 C 3.113281 -6.625 3.1875 -6.679688 3.25 -6.640625 L 3.515625 -6.5 C 3.566406 -6.46875 3.578125 -6.421875 3.546875 -6.359375 Z M 0.40625 -0.734375 "/></g></g></g><g clip-path="url(#05ae78c46b)"><path fill="#2b2d42" d="M 356.035156 379.492188 L 373.667969 389.691406 L 373.667969 319.777344 L 358.117188 310.792969 L 341.878906 320.144531 L 341.878906 338.988281 L 337.488281 341.527344 L 337.488281 322.683594 L 323.171875 330.960938 L 323.171875 350.882812 L 339.730469 360.417969 L 355.992188 351.019531 L 355.992188 333.410156 L 360.382812 330.871094 L 360.382812 353.558594 L 341.878906 364.238281 L 341.878906 382.96875 L 337.488281 385.507812 L 337.488281 364.214844 L 321.320312 354.863281 L 304.671875 364.46875 L 304.671875 380.613281 L 323.171875 369.933594 L 323.171875 375.011719 L 304.671875 385.691406 L 304.671875 403.894531 L 321.320312 413.5 L 335.066406 405.5625 L 322.027344 398.015625 L 322.027344 392.960938 L 360.382812 415.101562 L 360.382812 441.21875 L 355.992188 438.679688 L 355.992188 417.640625 L 339.457031 408.101562 L 323.171875 417.503906 L 323.171875 436.804688 L 337.488281 445.058594 L 337.488281 423.449219 L 341.878906 425.988281 L 341.878906 447.597656 L 358.507812 457.203125 L 373.667969 448.445312 L 373.667969 394.769531 L 356.035156 384.570312 Z M 356.035156 379.492188 " fill-opacity="1" fill-rule="evenodd"/></g><path fill="#000000" d="M 378.195312 325.222656 L 378.195312 447.964844 L 382.703125 450.59375 L 389.746094 454.644531 C 388.601562 458.621094 390.273438 463.035156 394.023438 465.1875 C 398.460938 467.746094 404.109375 466.238281 406.671875 461.800781 C 409.207031 457.386719 407.699219 451.714844 403.285156 449.152344 C 399.535156 447.003906 394.890625 447.757812 392.011719 450.730469 L 382.703125 445.359375 L 382.703125 322.613281 L 392.011719 317.242188 C 394.890625 320.238281 399.535156 320.992188 403.285156 318.820312 C 407.699219 316.257812 409.207031 310.609375 406.671875 306.171875 C 404.109375 301.757812 398.460938 300.25 394.023438 302.785156 C 390.273438 304.960938 388.601562 309.351562 389.746094 313.328125 L 382.703125 317.402344 L 378.195312 320.007812 Z M 396.765625 460.429688 C 394.984375 459.378906 394.367188 457.089844 395.417969 455.304688 C 396.449219 453.523438 398.734375 452.90625 400.519531 453.933594 C 402.324219 454.964844 402.917969 457.25 401.890625 459.058594 C 400.859375 460.839844 398.574219 461.457031 396.765625 460.429688 Z M 395.417969 312.691406 C 394.367188 310.882812 394.984375 308.597656 396.765625 307.566406 C 398.574219 306.539062 400.859375 307.15625 401.890625 308.9375 C 402.917969 310.722656 402.324219 313.007812 400.519531 314.039062 C 398.734375 315.089844 396.449219 314.472656 395.417969 312.691406 Z M 395.417969 312.691406 " fill-opacity="1" fill-rule="evenodd"/><path fill="#000000" d="M 398.734375 359.207031 L 387.574219 359.207031 L 387.574219 363.710938 L 400.609375 363.710938 L 405.136719 359.207031 L 410.671875 353.671875 L 434.890625 353.671875 L 445.207031 363.988281 C 443.078125 367.53125 443.535156 372.21875 446.601562 375.285156 C 450.214844 378.898438 456.09375 378.898438 459.707031 375.285156 C 463.320312 371.671875 463.320312 365.816406 459.707031 362.203125 C 456.640625 359.136719 451.953125 358.65625 448.40625 360.785156 L 441.273438 353.671875 L 436.765625 349.144531 L 408.796875 349.144531 L 404.292969 353.671875 Z M 450.511719 366.089844 C 451.976562 364.628906 454.332031 364.628906 455.792969 366.089844 C 457.257812 367.554688 457.257812 369.933594 455.792969 371.375 C 454.332031 372.835938 451.976562 372.835938 450.511719 371.375 C 449.046875 369.933594 449.046875 367.554688 450.511719 366.089844 Z M 450.511719 366.089844 " fill-opacity="1" fill-rule="evenodd"/><path fill="#2b2d42" d="M 387.574219 340.820312 L 393.566406 340.820312 L 398.070312 336.3125 L 403.398438 330.984375 L 410.605469 330.984375 C 411.632812 335.011719 415.269531 337.984375 419.589844 337.984375 C 424.691406 337.984375 428.855469 333.84375 428.855469 328.722656 C 428.855469 323.621094 424.691406 319.480469 419.589844 319.480469 C 415.269531 319.480469 411.632812 322.453125 410.605469 326.457031 L 401.523438 326.457031 L 396.996094 330.984375 L 391.691406 336.3125 L 387.574219 336.3125 Z M 415.839844 328.722656 C 415.839844 326.664062 417.535156 324.992188 419.589844 324.992188 C 421.648438 324.992188 423.34375 326.664062 423.34375 328.722656 C 423.34375 330.800781 421.648438 332.472656 419.589844 332.472656 C 417.535156 332.472656 415.839844 330.800781 415.839844 328.722656 Z M 415.839844 328.722656 " fill-opacity="1" fill-rule="evenodd"/><path fill="#000000" d="M 394.230469 404.261719 L 387.574219 404.261719 L 387.574219 408.789062 L 398.734375 408.789062 L 404.292969 414.324219 L 408.796875 418.828125 L 436.765625 418.828125 L 441.273438 414.324219 L 448.40625 407.1875 C 451.953125 409.316406 456.640625 408.859375 459.707031 405.792969 C 463.320312 402.179688 463.320312 396.324219 459.707031 392.710938 C 456.09375 389.097656 450.214844 389.097656 446.601562 392.710938 C 443.535156 395.777344 443.078125 400.441406 445.207031 403.984375 L 434.890625 414.324219 L 410.671875 414.324219 L 400.609375 404.261719 Z M 455.792969 401.90625 C 454.332031 403.367188 451.976562 403.367188 450.511719 401.90625 C 449.046875 400.441406 449.046875 398.0625 450.511719 396.597656 C 451.976562 395.136719 454.332031 395.136719 455.792969 396.597656 C 457.257812 398.0625 457.257812 400.441406 455.792969 401.90625 Z M 455.792969 401.90625 " fill-opacity="1" fill-rule="evenodd"/><path fill="#2b2d42" d="M 387.574219 386.261719 L 418.722656 386.261719 C 419.730469 390.265625 423.363281 393.238281 427.6875 393.238281 C 432.808594 393.238281 436.949219 389.097656 436.949219 383.996094 C 436.949219 378.875 432.808594 374.734375 427.6875 374.734375 C 423.363281 374.734375 419.730469 377.707031 418.722656 381.734375 L 387.574219 381.734375 Z M 423.960938 383.996094 C 423.960938 381.917969 425.628906 380.246094 427.6875 380.246094 C 429.769531 380.246094 431.4375 381.917969 431.4375 383.996094 C 431.4375 386.054688 429.769531 387.726562 427.6875 387.726562 C 425.628906 387.726562 423.960938 386.054688 423.960938 383.996094 Z M 423.960938 383.996094 " fill-opacity="1" fill-rule="evenodd"/><path fill="#2b2d42" d="M 398.070312 431.679688 L 393.566406 427.152344 L 387.574219 427.152344 L 387.574219 431.679688 L 391.691406 431.679688 L 396.996094 436.988281 L 401.523438 441.515625 L 410.605469 441.515625 C 411.632812 445.539062 415.269531 448.515625 419.589844 448.515625 C 424.691406 448.515625 428.855469 444.375 428.855469 439.25 C 428.855469 434.152344 424.691406 430.011719 419.589844 430.011719 C 415.269531 430.011719 411.632812 432.984375 410.605469 436.988281 L 403.398438 436.988281 Z M 419.589844 443.003906 C 417.535156 443.003906 415.839844 441.332031 415.839844 439.25 C 415.839844 437.191406 417.535156 435.523438 419.589844 435.523438 C 421.648438 435.523438 423.34375 437.191406 423.34375 439.25 C 423.34375 441.332031 421.648438 443.003906 419.589844 443.003906 Z M 419.589844 443.003906 " fill-opacity="1" fill-rule="evenodd"/></svg>